ZillaSlabHighlight-Bold.ufo
<glyph name="exclam" format="1">
  <advance width="261"/>
  <unicode hex="0021"/>
  <outline>
    <contour>
      <point x="207" y="650" type="line"/>
      <point x="53" y="650" type="line"/>
      <point x="83" y="232" type="line"/>
      <point x="177" y="232" type="line"/>
    </contour>
    <contour>
      <point x="56" y="0" type="line"/>
      <point x="207" y="0" type="line"/>
      <point x="207" y="145" type="line"/>
      <point x="56" y="145" type="line"/>
    </contour>
    <contour>
      <point x="-10" y="917" type="line"/>
      <point x="271" y="917" type="line"/>
      <point x="271" y="-213" type="line"/>
      <point x="-10" y="-213" type="line"/>
    </contour>
  </outline>
</glyph>
<glyph name="quotedbl" format="1">
  <advance width="387"/>
  <unicode hex="0022"/>
  <outline>
    <contour>
      <point x="158" y="377" type="line"/>
      <point x="168" y="650" type="line"/>
      <point x="39" y="650" type="line"/>
      <point x="49" y="377" type="line"/>
    </contour>
    <contour>
      <point x="338" y="377" type="line"/>
      <point x="348" y="650" type="line"/>
      <point x="219" y="650" type="line"/>
      <point x="229" y="377" type="line"/>
    </contour>
    <contour>
      <point x="-10" y="917" type="line"/>
      <point x="398" y="917" type="line"/>
      <point x="398" y="-213" type="line"/>
      <point x="-10" y="-213" type="line"/>
    </contour>
  </outline>
</glyph>
<glyph name="quotesingle" format="1">
  <advance width="208"/>
  <unicode hex="0027"/>
  <outline>
    <contour>
      <point x="158" y="377" type="line"/>
      <point x="168" y="650" type="line"/>
      <point x="39" y="650" type="line"/>
      <point x="49" y="377" type="line"/>
    </contour>
    <contour>
      <point x="-10" y="917" type="line"/>
      <point x="218" y="917" type="line"/>
      <point x="218" y="-213" type="line"/>
      <point x="-10" y="-213" type="line"/>
    </contour>
  </outline>
</glyph>
<glyph name="parenright" format="1">
  <advance width="308"/>
  <unicode hex="0029"/>
  <outline>
    <contour>
      <point x="124" y="718" type="line"/>
      <point x="234" y="576"/>
      <point x="285" y="424"/>
      <point x="285" y="270" type="curve" smooth="yes"/>
      <point x="285" y="118"/>
      <point x="237" y="-36"/>
      <point x="126" y="-183" type="curve"/>
      <point x="10" y="-183" type="line"/>
      <point x="121" y="-45"/>
      <point x="176" y="115"/>
      <point x="176" y="270" type="curve" smooth="yes"/>
      <point x="176" y="427"/>
      <point x="120" y="578"/>
      <point x="10" y="718" type="curve"/>
    </contour>
    <contour>
      <point x="318" y="917" type="line"/>
      <point x="-10" y="917" type="line"/>
      <point x="-10" y="-213" type="line"/>
      <point x="318" y="-213" type="line"/>
    </contour>
  </outline>
</glyph>
<glyph name="comma" format="1">
  <advance width="222"/>
  <unicode hex="002C"/>
  <outline>
    <contour>
      <point x="63" y="149" type="line"/>
      <point x="189" y="149" type="line"/>
      <point x="129" y="-85" type="line"/>
      <point x="3" y="-85" type="line"/>
    </contour>
    <contour>
      <point x="-10" y="-213" type="line"/>
      <point x="232" y="-213" type="line"/>
      <point x="232" y="917" type="line"/>
      <point x="-10" y="917" type="line"/>
    </contour>
  </outline>
</glyph>
<glyph name="hyphen" format="1">
  <advance width="321"/>
  <unicode hex="002D"/>
  <outline>
    <contour>
      <point x="41" y="288" type="line"/>
      <point x="280" y="288" type="line"/>
      <point x="280" y="180" type="line"/>
      <point x="41" y="180" type="line"/>
    </contour>
    <contour>
      <point x="-10" y="-213" type="line"/>
      <point x="331" y="-213" type="line"/>
      <point x="331" y="917" type="line"/>
      <point x="-10" y="917" type="line"/>
    </contour>
  </outline>
</glyph>
<glyph name="three" format="1">
  <advance width="533"/>
  <unicode hex="0033"/>
  <outline>
    <contour>
      <point x="71" y="492" type="curve"/>
      <point x="50" y="339" type="line"/>
      <point x="153" y="328" type="line"/>
      <point x="168" y="402" type="line"/>
      <point x="189" y="413"/>
      <point x="229" y="417"/>
      <point x="253" y="417" type="curve"/>
      <point x="309" y="417"/>
      <point x="337" y="390"/>
      <point x="337" y="346" type="curve" smooth="yes"/>
      <point x="337" y="317"/>
      <point x="325" y="253"/>
      <point x="207" y="253" type="curve"/>
      <point x="207" y="165" type="line"/>
      <point x="303" y="162"/>
      <point x="359" y="138"/>
      <point x="359" y="71" type="curve" smooth="yes"/>
      <point x="359" y="22"/>
      <point x="329" y="-27"/>
      <point x="253" y="-27" type="curve" smooth="yes"/>
      <point x="174" y="-27"/>
      <point x="146" y="25"/>
      <point x="146" y="71" type="curve"/>
      <point x="37" y="38" type="line"/>
      <point x="39" y="-72"/>
      <point x="110" y="-141"/>
      <point x="254" y="-141" type="curve" smooth="yes"/>
      <point x="390" y="-141"/>
      <point x="504" y="-79"/>
      <point x="504" y="55" type="curve" smooth="yes"/>
      <point x="504" y="135"/>
      <point x="463" y="196"/>
      <point x="369" y="215" type="curve"/>
      <point x="369" y="219" type="line"/>
      <point x="450" y="253"/>
      <point x="481" y="305"/>
      <point x="481" y="370" type="curve" smooth="yes"/>
      <point x="481" y="480"/>
      <point x="392" y="531"/>
      <point x="272" y="531" type="curve" smooth="yes"/>
      <point x="228" y="531"/>
      <point x="148" y="524"/>
    </contour>
    <contour>
      <point x="-10" y="917" type="line"/>
      <point x="544" y="917" type="line"/>
      <point x="544" y="-213" type="line"/>
      <point x="-10" y="-213" type="line"/>
    </contour>
  </outline>
</glyph>
<glyph name="question" format="1">
  <advance width="480"/>
  <unicode hex="003F"/>
  <outline>
    <contour>
      <point x="136" y="456" type="line"/>
      <point x="151" y="527" type="line"/>
      <point x="172" y="538"/>
      <point x="209" y="542"/>
      <point x="233" y="542" type="curve" smooth="yes"/>
      <point x="279" y="542"/>
      <point x="309" y="527"/>
      <point x="309" y="491" type="curve" smooth="yes"/>
      <point x="309" y="401"/>
      <point x="123" y="425"/>
      <point x="123" y="296" type="curve" smooth="yes"/>
      <point x="123" y="222"/>
      <point x="185" y="190"/>
      <point x="304" y="205" type="curve"/>
      <point x="304" y="284" type="line"/>
      <point x="277" y="284"/>
      <point x="263" y="295"/>
      <point x="263" y="312" type="curve" smooth="yes"/>
      <point x="263" y="374"/>
      <point x="456" y="376"/>
      <point x="456" y="513" type="curve" smooth="yes"/>
      <point x="456" y="604"/>
      <point x="370" y="659"/>
      <point x="251" y="659" type="curve"/>
      <point x="203" y="659"/>
      <point x="131" y="652"/>
      <point x="54" y="620" type="curve"/>
      <point x="33" y="467" type="line"/>
    </contour>
    <contour>
      <point x="151" y="0" type="line"/>
      <point x="302" y="0" type="line"/>
      <point x="302" y="145" type="line"/>
      <point x="151" y="145" type="line"/>
    </contour>
    <contour>
      <point x="-10" y="917" type="line"/>
      <point x="490" y="917" type="line"/>
      <point x="490" y="-213" type="line"/>
      <point x="-10" y="-213" type="line"/>
    </contour>
  </outline>
</glyph>
<glyph name="G" format="1">
  <advance width="682"/>
  <unicode hex="0047"/>
  <outline>
    <contour>
      <point x="626" y="246" type="line"/>
      <point x="626" y="0" type="line"/>
      <point x="522" y="0" type="line"/>
      <point x="509" y="68" type="line"/>
      <point x="469" y="21"/>
      <point x="407" y="-10"/>
      <point x="323" y="-10" type="curve" smooth="yes"/>
      <point x="141" y="-10"/>
      <point x="25" y="133"/>
      <point x="25" y="320" type="curve" smooth="yes"/>
      <point x="25" y="506"/>
      <point x="140" y="660"/>
      <point x="360" y="660" type="curve" smooth="yes"/>
      <point x="465" y="660"/>
      <point x="557" y="625"/>
      <point x="600" y="582" type="curve"/>
      <point x="618" y="441" type="line"/>
      <point x="510" y="431" type="line"/>
      <point x="492" y="507" type="line"/>
      <point x="458" y="530"/>
      <point x="398" y="542"/>
      <point x="354" y="542" type="curve" smooth="yes"/>
      <point x="247" y="542"/>
      <point x="169" y="471"/>
      <point x="169" y="322" type="curve" smooth="yes"/>
      <point x="169" y="178"/>
      <point x="242" y="108"/>
      <point x="347" y="108" type="curve" smooth="yes"/>
      <point x="435" y="108"/>
      <point x="491" y="157"/>
      <point x="491" y="242" type="curve"/>
      <point x="491" y="246" type="line"/>
      <point x="364" y="246" type="line"/>
      <point x="364" y="359" type="line"/>
      <point x="658" y="359" type="line"/>
      <point x="658" y="246" type="line"/>
    </contour>
    <contour>
      <point x="-10" y="-213" type="line"/>
      <point x="692" y="-213" type="line"/>
      <point x="692" y="917" type="line"/>
      <point x="-10" y="917" type="line"/>
    </contour>
  </outline>
</glyph>
<glyph name="K" format="1">
  <advance width="674"/>
  <unicode hex="004B"/>
  <outline>
    <contour>
      <point x="382" y="0" type="line"/>
      <point x="382" y="114" type="line"/>
      <point x="442" y="114" type="line"/>
      <point x="323" y="274" type="line"/>
      <point x="243" y="274" type="line"/>
      <point x="243" y="114" type="line"/>
      <point x="298" y="114" type="line"/>
      <point x="298" y="0" type="line"/>
      <point x="39" y="0" type="line"/>
      <point x="39" y="114" type="line"/>
      <point x="109" y="114" type="line"/>
      <point x="109" y="536" type="line"/>
      <point x="39" y="536" type="line"/>
      <point x="39" y="650" type="line"/>
      <point x="301" y="650" type="line"/>
      <point x="301" y="536" type="line"/>
      <point x="243" y="536" type="line"/>
      <point x="243" y="383" type="line"/>
      <point x="325" y="383" type="line"/>
      <point x="440" y="536" type="line"/>
      <point x="384" y="536" type="line"/>
      <point x="384" y="650" type="line"/>
      <point x="654" y="650" type="line"/>
      <point x="654" y="536" type="line"/>
      <point x="581" y="536" type="line"/>
      <point x="426" y="341" type="line"/>
      <point x="598" y="114" type="line"/>
      <point x="665" y="114" type="line"/>
      <point x="665" y="0" type="line"/>
    </contour>
    <contour>
      <point x="-10" y="-213" type="line"/>
      <point x="684" y="-213" type="line"/>
      <point x="684" y="917" type="line"/>
      <point x="-10" y="917" type="line"/>
    </contour>
  </outline>
</glyph>
<glyph name="O" format="1">
  <advance width="712"/>
  <unicode hex="004F"/>
  <outline>
    <contour>
      <point x="688" y="326" type="curve" smooth="yes"/>
      <point x="688" y="142"/>
      <point x="564" y="-10"/>
      <point x="353" y="-10" type="curve" smooth="yes"/>
      <point x="141" y="-10"/>
      <point x="24" y="143"/>
      <point x="24" y="324" type="curve" smooth="yes"/>
      <point x="24" y="514"/>
      <point x="153" y="660"/>
      <point x="357" y="660" type="curve" smooth="yes"/>
      <point x="565" y="660"/>
      <point x="688" y="509"/>
    </contour>
    <contour>
      <point x="543" y="322" type="curve" smooth="yes"/>
      <point x="543" y="460"/>
      <point x="477" y="542"/>
      <point x="356" y="542" type="curve" smooth="yes"/>
      <point x="227" y="542"/>
      <point x="169" y="450"/>
      <point x="169" y="327" type="curve" smooth="yes"/>
      <point x="169" y="209"/>
      <point x="223" y="108"/>
      <point x="360" y="108" type="curve" smooth="yes"/>
      <point x="487" y="108"/>
      <point x="543" y="195"/>
    </contour>
    <contour>
      <point x="-10" y="-213" type="line"/>
      <point x="722" y="-213" type="line"/>
      <point x="722" y="917" type="line"/>
      <point x="-10" y="917" type="line"/>
    </contour>
  </outline>
</glyph>
<glyph name="Q" format="1">
  <advance width="718"/>
  <unicode hex="0051"/>
  <outline>
    <contour>
      <point x="688" y="326" type="curve" smooth="yes"/>
      <point x="688" y="240"/>
      <point x="661" y="162"/>
      <point x="611" y="102" type="curve"/>
      <point x="677" y="34" type="line"/>
      <point x="593" y="-49" type="line"/>
      <point x="518" y="28" type="line"/>
      <point x="472" y="4"/>
      <point x="416" y="-10"/>
      <point x="353" y="-10" type="curve" smooth="yes"/>
      <point x="141" y="-10"/>
      <point x="24" y="143"/>
      <point x="24" y="324" type="curve" smooth="yes"/>
      <point x="24" y="514"/>
      <point x="153" y="660"/>
      <point x="357" y="660" type="curve" smooth="yes"/>
      <point x="565" y="660"/>
      <point x="688" y="509"/>
    </contour>
    <contour>
      <point x="543" y="322" type="curve" smooth="yes"/>
      <point x="543" y="460"/>
      <point x="477" y="542"/>
      <point x="356" y="542" type="curve" smooth="yes"/>
      <point x="227" y="542"/>
      <point x="169" y="450"/>
      <point x="169" y="327" type="curve" smooth="yes"/>
      <point x="169" y="209"/>
      <point x="223" y="108"/>
      <point x="360" y="108" type="curve" smooth="yes"/>
      <point x="386" y="108"/>
      <point x="410" y="112"/>
      <point x="430" y="119" type="curve"/>
      <point x="332" y="220" type="line"/>
      <point x="416" y="303" type="line"/>
      <point x="518" y="198" type="line"/>
      <point x="535" y="232"/>
      <point x="543" y="274"/>
    </contour>
    <contour>
      <point x="-10" y="-213" type="line"/>
      <point x="728" y="-213" type="line"/>
      <point x="728" y="917" type="line"/>
      <point x="-10" y="917" type="line"/>
    </contour>
  </outline>
</glyph>
<glyph name="R" format="1">
  <advance width="638"/>
  <unicode hex="0052"/>
  <outline>
    <contour>
      <point x="460" y="0" type="line"/>
      <point x="331" y="248" type="line"/>
      <point x="243" y="248" type="line"/>
      <point x="243" y="114" type="line"/>
      <point x="313" y="114" type="line"/>
      <point x="313" y="0" type="line"/>
      <point x="39" y="0" type="line"/>
      <point x="39" y="114" type="line"/>
      <point x="109" y="114" type="line"/>
      <point x="109" y="536" type="line"/>
      <point x="39" y="536" type="line"/>
      <point x="39" y="650" type="line"/>
      <point x="333" y="650" type="line" smooth="yes"/>
      <point x="494" y="650"/>
      <point x="584" y="584"/>
      <point x="584" y="453" type="curve" smooth="yes"/>
      <point x="584" y="365"/>
      <point x="534" y="305"/>
      <point x="460" y="276" type="curve"/>
      <point x="548" y="114" type="line"/>
      <point x="626" y="114" type="line"/>
      <point x="626" y="0" type="line"/>
    </contour>
    <contour>
      <point x="440" y="450" type="curve" smooth="yes"/>
      <point x="440" y="515"/>
      <point x="407" y="536"/>
      <point x="309" y="536" type="curve" smooth="yes"/>
      <point x="243" y="536" type="line"/>
      <point x="243" y="354" type="line"/>
      <point x="307" y="354" type="line" smooth="yes"/>
      <point x="409" y="354"/>
      <point x="440" y="388"/>
    </contour>
    <contour>
      <point x="-10" y="-213" type="line"/>
      <point x="648" y="-213" type="line"/>
      <point x="648" y="917" type="line"/>
      <point x="-10" y="917" type="line"/>
    </contour>
  </outline>
</glyph>
<glyph name="V" format="1">
  <advance width="654"/>
  <unicode hex="0056"/>
  <outline>
    <contour>
      <point x="259" y="536" type="line"/>
      <point x="200" y="536" type="line"/>
      <point x="333" y="207" type="line"/>
      <point x="339" y="207" type="line"/>
      <point x="469" y="536" type="line"/>
      <point x="408" y="536" type="line"/>
      <point x="408" y="650" type="line"/>
      <point x="664" y="650" type="line"/>
      <point x="664" y="917" type="line"/>
      <point x="-10" y="917" type="line"/>
      <point x="-10" y="650" type="line"/>
      <point x="259" y="650" type="line"/>
    </contour>
    <contour>
      <point x="664" y="-213" type="line"/>
      <point x="664" y="536" type="line"/>
      <point x="605" y="536" type="line"/>
      <point x="374" y="0" type="line"/>
      <point x="281" y="0" type="line"/>
      <point x="51" y="536" type="line"/>
      <point x="-10" y="536" type="line"/>
      <point x="-10" y="-213" type="line"/>
    </contour>
  </outline>
</glyph>
<glyph name="bracketleft" format="1">
  <advance width="376"/>
  <unicode hex="005B"/>
  <outline>
    <contour>
      <point x="-10" y="-213" type="line"/>
      <point x="67" y="-213" type="line"/>
      <point x="67" y="785" type="line"/>
      <point x="290" y="785" type="line"/>
      <point x="290" y="698" type="line"/>
      <point x="176" y="698" type="line"/>
      <point x="176" y="-126" type="line"/>
      <point x="290" y="-126" type="line"/>
      <point x="290" y="-213" type="line"/>
      <point x="386" y="-213" type="line"/>
      <point x="386" y="917" type="line"/>
      <point x="-10" y="917" type="line"/>
    </contour>
  </outline>
</glyph>
<glyph name="bracketright" format="1">
  <advance width="376"/>
  <unicode hex="005D"/>
  <outline>
    <contour>
      <point x="386" y="-213" type="line"/>
      <point x="309" y="-213" type="line"/>
      <point x="309" y="785" type="line"/>
      <point x="86" y="785" type="line"/>
      <point x="86" y="698" type="line"/>
      <point x="200" y="698" type="line"/>
      <point x="200" y="-126" type="line"/>
      <point x="86" y="-126" type="line"/>
      <point x="86" y="-213" type="line"/>
      <point x="-10" y="-213" type="line"/>
      <point x="-10" y="917" type="line"/>
      <point x="386" y="917" type="line"/>
    </contour>
  </outline>
</glyph>
<glyph name="f" format="1">
  <advance width="343"/>
  <unicode hex="0066"/>
  <outline>
    <contour>
      <point x="-10" y="-213" type="line"/>
      <point x="353" y="-213" type="line"/>
      <point x="353" y="568" type="line"/>
      <point x="332" y="579"/>
      <point x="303" y="589"/>
      <point x="277" y="589" type="curve" smooth="yes"/>
      <point x="245" y="589"/>
      <point x="217" y="574"/>
      <point x="217" y="531" type="curve" smooth="yes"/>
      <point x="217" y="451" type="line"/>
      <point x="328" y="451" type="line"/>
      <point x="328" y="359" type="line"/>
      <point x="217" y="359" type="line"/>
      <point x="217" y="97" type="line"/>
      <point x="292" y="97" type="line"/>
      <point x="292" y="0" type="line"/>
      <point x="28" y="0" type="line"/>
      <point x="28" y="97" type="line"/>
      <point x="88" y="97" type="line"/>
      <point x="88" y="359" type="line"/>
      <point x="33" y="359" type="line"/>
      <point x="33" y="451" type="line"/>
      <point x="88" y="451" type="line"/>
      <point x="88" y="520" type="line" smooth="yes"/>
      <point x="88" y="614"/>
      <point x="151" y="698"/>
      <point x="269" y="698" type="curve" smooth="yes"/>
      <point x="294" y="698"/>
      <point x="324" y="694"/>
      <point x="353" y="684" type="curve"/>
      <point x="353" y="917" type="line"/>
      <point x="-10" y="917" type="line"/>
    </contour>
  </outline>
</glyph>
<glyph name="p" format="1">
  <advance width="571"/>
  <unicode hex="0070"/>
  <outline>
    <contour>
      <point x="75" y="-113" type="line"/>
      <point x="75" y="354" type="line"/>
      <point x="10" y="354" type="line"/>
      <point x="10" y="451" type="line"/>
      <point x="204" y="451" type="line"/>
      <point x="204" y="365" type="line"/>
      <point x="228" y="417"/>
      <point x="274" y="460"/>
      <point x="356" y="460" type="curve" smooth="yes"/>
      <point x="470" y="460"/>
      <point x="549" y="377"/>
      <point x="549" y="236" type="curve" smooth="yes"/>
      <point x="549" y="103"/>
      <point x="478" y="-10"/>
      <point x="342" y="-10" type="curve" smooth="yes"/>
      <point x="277" y="-10"/>
      <point x="231" y="15"/>
      <point x="204" y="57" type="curve"/>
      <point x="204" y="-113" type="line"/>
      <point x="284" y="-113" type="line"/>
      <point x="284" y="-213" type="line"/>
      <point x="581" y="-213" type="line"/>
      <point x="581" y="917" type="line"/>
      <point x="-10" y="917" type="line"/>
      <point x="-10" y="-213" type="line"/>
      <point x="15" y="-213" type="line"/>
      <point x="15" y="-113" type="line"/>
    </contour>
    <contour>
      <point x="415" y="223" type="curve" smooth="yes"/>
      <point x="415" y="311"/>
      <point x="372" y="358"/>
      <point x="310" y="358" type="curve" smooth="yes"/>
      <point x="243" y="358"/>
      <point x="208" y="303"/>
      <point x="205" y="227" type="curve" smooth="yes"/>
      <point x="204" y="211" type="line" smooth="yes"/>
      <point x="204" y="137"/>
      <point x="246" y="92"/>
      <point x="310" y="92" type="curve" smooth="yes"/>
      <point x="371" y="92"/>
      <point x="415" y="133"/>
    </contour>
    <contour>
      <point x="336" y="566" type="move" name="top"/>
    </contour>
  </outline>
</glyph>
<glyph name="s" format="1">
  <advance width="455"/>
  <unicode hex="0073"/>
  <outline>
    <contour>
      <point x="433" y="138" type="curve" smooth="yes"/>
      <point x="433" y="38"/>
      <point x="345" y="-10"/>
      <point x="219" y="-10" type="curve" smooth="yes"/>
      <point x="154" y="-10"/>
      <point x="86" y="3"/>
      <point x="26" y="34" type="curve"/>
      <point x="44" y="160" type="line"/>
      <point x="144" y="149" type="line"/>
      <point x="144" y="93" type="line"/>
      <point x="168" y="85"/>
      <point x="198" y="84"/>
      <point x="212" y="84" type="curve" smooth="yes"/>
      <point x="261" y="84"/>
      <point x="303" y="100"/>
      <point x="303" y="132" type="curve" smooth="yes"/>
      <point x="303" y="209"/>
      <point x="31" y="141"/>
      <point x="31" y="320" type="curve" smooth="yes"/>
      <point x="31" y="431"/>
      <point x="137" y="460"/>
      <point x="229" y="460" type="curve" smooth="yes"/>
      <point x="289" y="460"/>
      <point x="342" y="448"/>
      <point x="398" y="419" type="curve"/>
      <point x="409" y="304" type="line"/>
      <point x="309" y="293" type="line"/>
      <point x="301" y="356" type="line"/>
      <point x="277" y="364"/>
      <point x="251" y="367"/>
      <point x="230" y="367" type="curve"/>
      <point x="197" y="367"/>
      <point x="170" y="354"/>
      <point x="170" y="324" type="curve" smooth="yes"/>
      <point x="170" y="246"/>
      <point x="433" y="312"/>
    </contour>
    <contour>
      <point x="-12" y="-213" type="line"/>
      <point x="467" y="-213" type="line"/>
      <point x="467" y="917" type="line"/>
      <point x="-12" y="917" type="line"/>
    </contour>
  </outline>
</glyph>
<glyph name="t" format="1">
  <advance width="398"/>
  <unicode hex="0074"/>
  <outline>
    <contour>
      <point x="398" y="140" type="line"/>
      <point x="385" y="36"/>
      <point x="328" y="-10"/>
      <point x="234" y="-10" type="curve" smooth="yes"/>
      <point x="134" y="-10"/>
      <point x="70" y="42"/>
      <point x="70" y="135" type="curve" smooth="yes"/>
      <point x="70" y="359" type="line"/>
      <point x="6" y="359" type="line"/>
      <point x="6" y="451" type="line"/>
      <point x="70" y="451" type="line"/>
      <point x="70" y="588" type="line"/>
      <point x="199" y="588" type="line"/>
      <point x="199" y="451" type="line"/>
      <point x="361" y="451" type="line"/>
      <point x="361" y="359" type="line"/>
      <point x="199" y="359" type="line"/>
      <point x="199" y="157" type="line" smooth="yes"/>
      <point x="199" y="114"/>
      <point x="217" y="98"/>
      <point x="249" y="98" type="curve" smooth="yes"/>
      <point x="265" y="98"/>
      <point x="296" y="102"/>
      <point x="304" y="169" type="curve"/>
    </contour>
    <contour>
      <point x="-10" y="-213" type="line"/>
      <point x="408" y="-213" type="line"/>
      <point x="408" y="917" type="line"/>
      <point x="-10" y="917" type="line"/>
    </contour>
  </outline>
</glyph>
<glyph name="w" format="1">
  <advance width="760"/>
  <unicode hex="0077"/>
  <outline>
    <contour>
      <point x="711" y="354" type="line"/>
      <point x="589" y="0" type="line"/>
      <point x="493" y="0" type="line"/>
      <point x="376" y="270" type="line"/>
      <point x="370" y="270" type="line"/>
      <point x="264" y="0" type="line"/>
      <point x="173" y="0" type="line"/>
      <point x="48" y="354" type="line"/>
      <point x="7" y="354" type="line"/>
      <point x="7" y="451" type="line"/>
      <point x="247" y="451" type="line"/>
      <point x="247" y="354" type="line"/>
      <point x="185" y="354" type="line"/>
      <point x="240" y="178" type="line"/>
      <point x="246" y="178" type="line"/>
      <point x="352" y="451" type="line"/>
      <point x="429" y="451" type="line"/>
      <point x="552" y="182" type="line"/>
      <point x="558" y="182" type="line"/>
      <point x="595" y="354" type="line"/>
      <point x="536" y="354" type="line"/>
      <point x="536" y="451" type="line"/>
      <point x="752" y="451" type="line"/>
      <point x="752" y="354" type="line"/>
    </contour>
    <contour>
      <point x="-10" y="-213" type="line"/>
      <point x="770" y="-213" type="line"/>
      <point x="770" y="917" type="line"/>
      <point x="-10" y="917" type="line"/>
    </contour>
  </outline>
</glyph>
<glyph name="braceleft" format="1">
  <advance width="376"/>
  <unicode hex="007B"/>
  <outline>
    <contour>
      <point x="-10" y="-213" type="line"/>
      <point x="207" y="-213" type="line"/>
      <point x="85" y="-209"/>
      <point x="47" y="-136"/>
      <point x="47" y="-66" type="curve" smooth="yes"/>
      <point x="47" y="40"/>
      <point x="132" y="136"/>
      <point x="132" y="191" type="curve" smooth="yes"/>
      <point x="132" y="240"/>
      <point x="65" y="248"/>
      <point x="34" y="248" type="curve" smooth="yes"/>
      <point x="15" y="248" type="line"/>
      <point x="15" y="305" type="line"/>
      <point x="34" y="305" type="line" smooth="yes"/>
      <point x="64" y="305"/>
      <point x="132" y="313"/>
      <point x="132" y="361" type="curve" smooth="yes"/>
      <point x="132" y="415"/>
      <point x="47" y="531"/>
      <point x="47" y="639" type="curve" smooth="yes"/>
      <point x="47" y="718"/>
      <point x="92" y="785"/>
      <point x="217" y="785" type="curve" smooth="yes"/>
      <point x="281" y="785" type="line"/>
      <point x="281" y="698" type="line"/>
      <point x="217" y="698" type="line" smooth="yes"/>
      <point x="175" y="698"/>
      <point x="154" y="678"/>
      <point x="154" y="634" type="curve" smooth="yes"/>
      <point x="154" y="546"/>
      <point x="240" y="433"/>
      <point x="240" y="369" type="curve" smooth="yes"/>
      <point x="240" y="331"/>
      <point x="209" y="286"/>
      <point x="119" y="276" type="curve"/>
      <point x="209" y="265"/>
      <point x="240" y="221"/>
      <point x="240" y="182" type="curve" smooth="yes"/>
      <point x="240" y="118"/>
      <point x="154" y="26"/>
      <point x="154" y="-62" type="curve" smooth="yes"/>
      <point x="154" y="-106"/>
      <point x="175" y="-126"/>
      <point x="217" y="-126" type="curve" smooth="yes"/>
      <point x="281" y="-126" type="line"/>
      <point x="281" y="-213" type="line"/>
      <point x="386" y="-213" type="line"/>
      <point x="386" y="917" type="line"/>
      <point x="-10" y="917" type="line"/>
    </contour>
  </outline>
</glyph>
<glyph name="currency" format="1">
  <advance width="447"/>
  <unicode hex="00A4"/>
  <outline>
    <contour>
      <point x="71" y="321" type="curve" smooth="yes"/>
      <point x="71" y="292"/>
      <point x="79" y="265"/>
      <point x="93" y="242" type="curve"/>
      <point x="10" y="159" type="line"/>
      <point x="58" y="112" type="line"/>
      <point x="140" y="194" type="line"/>
      <point x="164" y="179"/>
      <point x="192" y="170"/>
      <point x="222" y="170" type="curve" smooth="yes"/>
      <point x="252" y="170"/>
      <point x="280" y="179"/>
      <point x="303" y="194" type="curve"/>
      <point x="386" y="112" type="line"/>
      <point x="434" y="159" type="line"/>
      <point x="351" y="242" type="line"/>
      <point x="365" y="265"/>
      <point x="373" y="292"/>
      <point x="373" y="321" type="curve" smooth="yes"/>
      <point x="373" y="347"/>
      <point x="366" y="373"/>
      <point x="354" y="395" type="curve"/>
      <point x="434" y="475" type="line"/>
      <point x="386" y="522" type="line"/>
      <point x="308" y="445" type="line"/>
      <point x="283" y="462"/>
      <point x="254" y="472"/>
      <point x="222" y="472" type="curve" smooth="yes"/>
      <point x="190" y="472"/>
      <point x="160" y="462"/>
      <point x="136" y="445" type="curve"/>
      <point x="58" y="522" type="line"/>
      <point x="10" y="475" type="line"/>
      <point x="90" y="395" type="line"/>
      <point x="77" y="373"/>
      <point x="71" y="347"/>
    </contour>
    <contour>
      <point x="181" y="321" type="curve" smooth="yes"/>
      <point x="181" y="349"/>
      <point x="199" y="372"/>
      <point x="222" y="372" type="curve" smooth="yes"/>
      <point x="245" y="372"/>
      <point x="263" y="349"/>
      <point x="263" y="321" type="curve" smooth="yes"/>
      <point x="263" y="293"/>
      <point x="245" y="270"/>
      <point x="222" y="270" type="curve" smooth="yes"/>
      <point x="199" y="270"/>
      <point x="181" y="293"/>
    </contour>
    <contour>
      <point x="-10" y="917" type="line"/>
      <point x="457" y="917" type="line"/>
      <point x="457" y="-213" type="line"/>
      <point x="-10" y="-213" type="line"/>
    </contour>
  </outline>
</glyph>
<glyph name="dieresis" format="1">
  <advance width="412"/>
  <unicode hex="00A8"/>
  <outline>
    <contour>
      <point x="57" y="665" type="line"/>
      <point x="186" y="665" type="line"/>
      <point x="186" y="531" type="line"/>
      <point x="57" y="531" type="line"/>
    </contour>
    <contour>
      <point x="242" y="665" type="line"/>
      <point x="371" y="665" type="line"/>
      <point x="371" y="531" type="line"/>
      <point x="242" y="531" type="line"/>
    </contour>
  </outline>
</glyph>
<glyph name="copyright" format="1">
  <advance width="596"/>
  <unicode hex="00A9"/>
  <outline>
    <contour>
      <point x="566" y="261" type="curve" smooth="yes"/>
      <point x="566" y="409"/>
      <point x="449" y="529"/>
      <point x="299" y="529" type="curve" smooth="yes"/>
      <point x="148" y="529"/>
      <point x="30" y="409"/>
      <point x="30" y="260" type="curve" smooth="yes"/>
      <point x="30" y="110"/>
      <point x="150" y="-7"/>
      <point x="298" y="-7" type="curve" smooth="yes"/>
      <point x="446" y="-7"/>
      <point x="566" y="111"/>
    </contour>
    <contour>
      <point x="496" y="261" type="curve" smooth="yes"/>
      <point x="496" y="150"/>
      <point x="416" y="58"/>
      <point x="298" y="58" type="curve" smooth="yes"/>
      <point x="175" y="58"/>
      <point x="100" y="149"/>
      <point x="100" y="260" type="curve" smooth="yes"/>
      <point x="100" y="370"/>
      <point x="174" y="463"/>
      <point x="299" y="463" type="curve" smooth="yes"/>
      <point x="424" y="463"/>
      <point x="496" y="370"/>
    </contour>
    <contour>
      <point x="409" y="156" type="curve"/>
      <point x="415" y="229" type="line"/>
      <point x="363" y="234" type="line"/>
      <point x="356" y="188" type="line"/>
      <point x="344" y="180"/>
      <point x="320" y="174"/>
      <point x="299" y="174" type="curve" smooth="yes"/>
      <point x="257" y="174"/>
      <point x="225" y="198"/>
      <point x="225" y="263" type="curve" smooth="yes"/>
      <point x="225" y="324"/>
      <point x="253" y="354"/>
      <point x="299" y="354" type="curve"/>
      <point x="320" y="354"/>
      <point x="340" y="351"/>
      <point x="356" y="339" type="curve"/>
      <point x="363" y="298" type="line"/>
      <point x="415" y="303" type="line"/>
      <point x="407" y="376" type="line"/>
      <point x="387" y="394"/>
      <point x="348" y="409"/>
      <point x="295" y="409" type="curve" smooth="yes"/>
      <point x="205" y="409"/>
      <point x="151" y="345"/>
      <point x="151" y="260" type="curve" smooth="yes"/>
      <point x="151" y="159"/>
      <point x="217" y="118"/>
      <point x="292" y="118" type="curve" smooth="yes"/>
      <point x="337" y="118"/>
      <point x="388" y="134"/>
    </contour>
    <contour>
      <point x="-10" y="917" type="line"/>
      <point x="606" y="917" type="line"/>
      <point x="606" y="-213" type="line"/>
      <point x="-10" y="-213" type="line"/>
    </contour>
  </outline>
</glyph>
<glyph name="guillemotleft" format="1">
  <advance width="471"/>
  <unicode hex="00AB"/>
  <outline>
    <contour>
      <point x="270" y="25" type="line"/>
      <point x="153" y="271" type="line"/>
      <point x="270" y="511" type="line"/>
      <point x="163" y="511" type="line"/>
      <point x="25" y="271" type="line"/>
      <point x="163" y="25" type="line"/>
    </contour>
    <contour>
      <point x="440" y="25" type="line"/>
      <point x="323" y="271" type="line"/>
      <point x="440" y="511" type="line"/>
      <point x="333" y="511" type="line"/>
      <point x="195" y="271" type="line"/>
      <point x="333" y="25" type="line"/>
    </contour>
    <contour>
      <point x="-10" y="917" type="line"/>
      <point x="481" y="917" type="line"/>
      <point x="481" y="-213" type="line"/>
      <point x="-10" y="-213" type="line"/>
    </contour>
  </outline>
</glyph>
<glyph name="plusminus" format="1">
  <advance width="418"/>
  <unicode hex="00B1"/>
  <outline>
    <contour>
      <point x="36" y="249" type="line"/>
      <point x="168" y="249" type="line"/>
      <point x="168" y="120" type="line"/>
      <point x="256" y="120" type="line"/>
      <point x="256" y="249" type="line"/>
      <point x="383" y="249" type="line"/>
      <point x="383" y="337" type="line"/>
      <point x="256" y="337" type="line"/>
      <point x="256" y="467" type="line"/>
      <point x="168" y="467" type="line"/>
      <point x="168" y="337" type="line"/>
      <point x="36" y="337" type="line"/>
    </contour>
    <contour>
      <point x="36" y="0" type="line"/>
      <point x="383" y="0" type="line"/>
      <point x="383" y="88" type="line"/>
      <point x="36" y="88" type="line"/>
    </contour>
    <contour>
      <point x="-10" y="917" type="line"/>
      <point x="428" y="917" type="line"/>
      <point x="428" y="-213" type="line"/>
      <point x="-10" y="-213" type="line"/>
    </contour>
  </outline>
</glyph>
<glyph name="twosuperior" format="1">
  <advance width="368"/>
  <unicode hex="00B2"/>
  <outline>
    <contour>
      <point x="110" y="654" type="line"/>
      <point x="120" y="699" type="line"/>
      <point x="135" y="707"/>
      <point x="152" y="710"/>
      <point x="166" y="710" type="curve" smooth="yes"/>
      <point x="196" y="710"/>
      <point x="215" y="695"/>
      <point x="215" y="674" type="curve" smooth="yes"/>
      <point x="215" y="623"/>
      <point x="106" y="547"/>
      <point x="25" y="485" type="curve"/>
      <point x="34" y="415" type="line"/>
      <point x="337" y="415" type="line"/>
      <point x="347" y="535" type="line"/>
      <point x="266" y="545" type="line"/>
      <point x="254" y="490" type="line"/>
      <point x="149" y="490" type="line"/>
      <point x="202" y="527"/>
      <point x="326" y="605"/>
      <point x="326" y="687" type="curve" smooth="yes"/>
      <point x="326" y="733"/>
      <point x="288" y="785"/>
      <point x="183" y="785" type="curve" smooth="yes"/>
      <point x="134" y="785"/>
      <point x="83" y="774"/>
      <point x="47" y="759" type="curve"/>
      <point x="33" y="660" type="line"/>
    </contour>
    <contour>
      <point x="-10" y="917" type="line"/>
      <point x="377" y="917" type="line"/>
      <point x="377" y="-213" type="line"/>
      <point x="-10" y="-213" type="line"/>
    </contour>
  </outline>
</glyph>
<glyph name="threesuperior" format="1">
  <advance width="351"/>
  <unicode hex="00B3"/>
  <outline>
    <contour>
      <point x="113" y="658" type="line"/>
      <point x="122" y="699" type="line"/>
      <point x="137" y="707"/>
      <point x="150" y="709"/>
      <point x="164" y="709" type="curve"/>
      <point x="191" y="709"/>
      <point x="204" y="698"/>
      <point x="204" y="675" type="curve" smooth="yes"/>
      <point x="204" y="637"/>
      <point x="171" y="634"/>
      <point x="137" y="632" type="curve"/>
      <point x="137" y="576" type="line"/>
      <point x="180" y="574"/>
      <point x="216" y="565"/>
      <point x="216" y="531" type="curve" smooth="yes"/>
      <point x="216" y="507"/>
      <point x="198" y="487"/>
      <point x="162" y="487" type="curve" smooth="yes"/>
      <point x="129" y="487"/>
      <point x="113" y="503"/>
      <point x="103" y="532" type="curve"/>
      <point x="30" y="507" type="line"/>
      <point x="44" y="435"/>
      <point x="97" y="408"/>
      <point x="167" y="408" type="curve" smooth="yes"/>
      <point x="260" y="408"/>
      <point x="325" y="448"/>
      <point x="325" y="517" type="curve" smooth="yes"/>
      <point x="325" y="558"/>
      <point x="304" y="595"/>
      <point x="252" y="608" type="curve"/>
      <point x="252" y="610" type="line"/>
      <point x="293" y="629"/>
      <point x="313" y="657"/>
      <point x="313" y="691" type="curve" smooth="yes"/>
      <point x="313" y="743"/>
      <point x="267" y="784"/>
      <point x="181" y="784" type="curve" smooth="yes"/>
      <point x="140" y="784"/>
      <point x="85" y="775"/>
      <point x="49" y="759" type="curve"/>
      <point x="36" y="664" type="line"/>
    </contour>
    <contour>
      <point x="-9" y="917" type="line"/>
      <point x="361" y="917" type="line"/>
      <point x="361" y="-213" type="line"/>
      <point x="-9" y="-213" type="line"/>
    </contour>
  </outline>
</glyph>
<glyph name="acute" format="1">
  <advance width="440"/>
  <unicode hex="00B4"/>
  <outline>
    <contour>
      <point x="209" y="508" type="line"/>
      <point x="175" y="557" type="line"/>
      <point x="337" y="700" type="line"/>
      <point x="404" y="599" type="line"/>
    </contour>
  </outline>
</glyph>
<glyph name="ordmasculine" format="1">
  <advance width="374"/>
  <unicode hex="00BA"/>
  <outline>
    <contour>
      <point x="-10" y="917" type="line"/>
      <point x="384" y="917" type="line"/>
      <point x="384" y="-213" type="line"/>
      <point x="-10" y="-213" type="line"/>
    </contour>
    <contour>
      <point x="20" y="547" type="curve" smooth="yes"/>
      <point x="20" y="453"/>
      <point x="88" y="398"/>
      <point x="182" y="398" type="curve" smooth="yes"/>
      <point x="280" y="398"/>
      <point x="354" y="457"/>
      <point x="354" y="552" type="curve" smooth="yes"/>
      <point x="354" y="633"/>
      <point x="300" y="705"/>
      <point x="187" y="705" type="curve" smooth="yes"/>
      <point x="75" y="705"/>
      <point x="20" y="633"/>
    </contour>
    <contour>
      <point x="128" y="553" type="curve" smooth="yes"/>
      <point x="128" y="604"/>
      <point x="150" y="629"/>
      <point x="186" y="629" type="curve" smooth="yes"/>
      <point x="218" y="629"/>
      <point x="246" y="610"/>
      <point x="246" y="554" type="curve" smooth="yes"/>
      <point x="246" y="502"/>
      <point x="222" y="474"/>
      <point x="185" y="474" type="curve" smooth="yes"/>
      <point x="146" y="474"/>
      <point x="128" y="506"/>
    </contour>
    <contour>
      <point x="159" y="338" type="move" name="top"/>
    </contour>
  </outline>
</glyph>
<glyph name="onehalf" format="1">
  <advance width="785"/>
  <unicode hex="00BD"/>
  <outline>
    <contour>
      <point x="34" y="575" type="line"/>
      <point x="107" y="575" type="line"/>
      <point x="107" y="361" type="line"/>
      <point x="34" y="361" type="line"/>
      <point x="34" y="286" type="line"/>
      <point x="273" y="286" type="line"/>
      <point x="273" y="361" type="line"/>
      <point x="208" y="361" type="line"/>
      <point x="208" y="650" type="line"/>
      <point x="34" y="650" type="line"/>
    </contour>
    <contour>
      <point x="528" y="239" type="line"/>
      <point x="538" y="284" type="line"/>
      <point x="553" y="292"/>
      <point x="570" y="295"/>
      <point x="584" y="295" type="curve" smooth="yes"/>
      <point x="614" y="295"/>
      <point x="633" y="280"/>
      <point x="633" y="259" type="curve" smooth="yes"/>
      <point x="633" y="208"/>
      <point x="524" y="132"/>
      <point x="443" y="70" type="curve"/>
      <point x="452" y="0" type="line"/>
      <point x="755" y="0" type="line"/>
      <point x="765" y="120" type="line"/>
      <point x="684" y="130" type="line"/>
      <point x="672" y="75" type="line"/>
      <point x="567" y="75" type="line"/>
      <point x="620" y="112"/>
      <point x="744" y="190"/>
      <point x="744" y="272" type="curve" smooth="yes"/>
      <point x="744" y="318"/>
      <point x="706" y="370"/>
      <point x="601" y="370" type="curve" smooth="yes"/>
      <point x="552" y="370"/>
      <point x="501" y="359"/>
      <point x="465" y="344" type="curve"/>
      <point x="451" y="245" type="line"/>
    </contour>
    <contour>
      <point x="504" y="650" type="line"/>
      <point x="330" y="337" type="line"/>
      <point x="132" y="0" type="line"/>
      <point x="220" y="0" type="line"/>
      <point x="401" y="325" type="line"/>
      <point x="592" y="650" type="line"/>
    </contour>
    <contour>
      <point x="-10" y="917" type="line"/>
      <point x="795" y="917" type="line"/>
      <point x="795" y="-213" type="line"/>
      <point x="-10" y="-213" type="line"/>
    </contour>
  </outline>
</glyph>
<glyph name="Agrave" format="1">
  <advance width="654"/>
  <unicode hex="00C0"/>
  <outline>
    <contour>
      <point x="-10" y="917" type="line"/>
      <point x="-10" y="114" type="line"/>
      <point x="49" y="114" type="line"/>
      <point x="235" y="536" type="line"/>
      <point x="145" y="536" type="line"/>
      <point x="145" y="650" type="line"/>
      <point x="368" y="650" type="line"/>
      <point x="602" y="114" type="line"/>
      <point x="664" y="114" type="line"/>
      <point x="664" y="917" type="line"/>
    </contour>
    <contour>
      <point x="329" y="459" type="line"/>
      <point x="323" y="459" type="line"/>
      <point x="250" y="276" type="line"/>
      <point x="397" y="276" type="line"/>
    </contour>
    <contour>
      <point x="664" y="-213" type="line"/>
      <point x="664" y="0" type="line"/>
      <point x="405" y="0" type="line"/>
      <point x="405" y="114" type="line"/>
      <point x="457" y="114" type="line"/>
      <point x="433" y="180" type="line"/>
      <point x="212" y="180" type="line"/>
      <point x="185" y="114" type="line"/>
      <point x="246" y="114" type="line"/>
      <point x="246" y="0" type="line"/>
      <point x="-10" y="0" type="line"/>
      <point x="-10" y="-213" type="line"/>
    </contour>
    <contour>
      <point x="368" y="688" type="line"/>
      <point x="153" y="716" type="line"/>
      <point x="182" y="833" type="line"/>
      <point x="384" y="745" type="line"/>
    </contour>
  </outline>
</glyph>
<glyph name="Idieresis" format="1">
  <advance width="353"/>
  <unicode hex="00CF"/>
  <outline>
    <contour>
      <point x="39" y="0" type="line"/>
      <point x="39" y="114" type="line"/>
      <point x="109" y="114" type="line"/>
      <point x="109" y="536" type="line"/>
      <point x="39" y="536" type="line"/>
      <point x="39" y="650" type="line"/>
      <point x="313" y="650" type="line"/>
      <point x="313" y="536" type="line"/>
      <point x="243" y="536" type="line"/>
      <point x="243" y="114" type="line"/>
      <point x="313" y="114" type="line"/>
      <point x="313" y="0" type="line"/>
    </contour>
    <contour>
      <point x="-10" y="-213" type="line"/>
      <point x="363" y="-213" type="line"/>
      <point x="363" y="917" type="line"/>
      <point x="-10" y="917" type="line"/>
    </contour>
    <contour>
      <point x="24" y="839" type="line"/>
      <point x="153" y="839" type="line"/>
      <point x="153" y="705" type="line"/>
      <point x="24" y="705" type="line"/>
    </contour>
    <contour>
      <point x="209" y="839" type="line"/>
      <point x="338" y="839" type="line"/>
      <point x="338" y="705" type="line"/>
      <point x="209" y="705" type="line"/>
    </contour>
  </outline>
</glyph>
<glyph name="Eth" format="1">
  <advance width="698"/>
  <unicode hex="00D0"/>
  <outline>
    <contour>
      <point x="-10" y="-213" type="line"/>
      <point x="708" y="-213" type="line"/>
      <point x="708" y="917" type="line"/>
      <point x="-10" y="917" type="line"/>
    </contour>
    <contour>
      <point x="673" y="328" type="curve" smooth="yes"/>
      <point x="673" y="130"/>
      <point x="550" y="0"/>
      <point x="345" y="0" type="curve" smooth="yes"/>
      <point x="39" y="0" type="line"/>
      <point x="39" y="114" type="line"/>
      <point x="109" y="114" type="line"/>
      <point x="109" y="287" type="line"/>
      <point x="42" y="287" type="line"/>
      <point x="42" y="397" type="line"/>
      <point x="109" y="397" type="line"/>
      <point x="109" y="536" type="line"/>
      <point x="39" y="536" type="line"/>
      <point x="39" y="650" type="line"/>
      <point x="337" y="650" type="line" smooth="yes"/>
      <point x="560" y="650"/>
      <point x="673" y="520"/>
    </contour>
    <contour>
      <point x="529" y="326" type="curve" smooth="yes"/>
      <point x="529" y="469"/>
      <point x="461" y="536"/>
      <point x="334" y="536" type="curve" smooth="yes"/>
      <point x="243" y="536" type="line"/>
      <point x="243" y="397" type="line"/>
      <point x="364" y="397" type="line"/>
      <point x="364" y="287" type="line"/>
      <point x="243" y="287" type="line"/>
      <point x="243" y="114" type="line"/>
      <point x="334" y="114" type="line" smooth="yes"/>
      <point x="459" y="114"/>
      <point x="529" y="177"/>
    </contour>
  </outline>
</glyph>
<glyph name="Otilde" format="1">
  <advance width="712"/>
  <unicode hex="00D5"/>
  <outline>
    <contour>
      <point x="515" y="820" type="line"/>
      <point x="515" y="762"/>
      <point x="499" y="700"/>
      <point x="430" y="700" type="curve" smooth="yes"/>
      <point x="381" y="700"/>
      <point x="350" y="731"/>
      <point x="304" y="731" type="curve" smooth="yes"/>
      <point x="282" y="731"/>
      <point x="269" y="724"/>
      <point x="262" y="698" type="curve"/>
      <point x="212" y="714" type="line"/>
      <point x="209" y="751"/>
      <point x="230" y="824"/>
      <point x="298" y="824" type="curve" smooth="yes"/>
      <point x="342" y="824"/>
      <point x="379" y="793"/>
      <point x="413" y="793" type="curve" smooth="yes"/>
      <point x="432" y="793"/>
      <point x="452" y="802"/>
      <point x="461" y="831" type="curve"/>
    </contour>
    <contour>
      <point x="688" y="326" type="curve" smooth="yes"/>
      <point x="688" y="142"/>
      <point x="564" y="-10"/>
      <point x="353" y="-10" type="curve" smooth="yes"/>
      <point x="141" y="-10"/>
      <point x="24" y="143"/>
      <point x="24" y="324" type="curve" smooth="yes"/>
      <point x="24" y="514"/>
      <point x="153" y="660"/>
      <point x="357" y="660" type="curve" smooth="yes"/>
      <point x="565" y="660"/>
      <point x="688" y="509"/>
    </contour>
    <contour>
      <point x="543" y="322" type="curve" smooth="yes"/>
      <point x="543" y="460"/>
      <point x="477" y="542"/>
      <point x="356" y="542" type="curve" smooth="yes"/>
      <point x="227" y="542"/>
      <point x="169" y="450"/>
      <point x="169" y="327" type="curve" smooth="yes"/>
      <point x="169" y="209"/>
      <point x="223" y="108"/>
      <point x="360" y="108" type="curve" smooth="yes"/>
      <point x="487" y="108"/>
      <point x="543" y="195"/>
    </contour>
    <contour>
      <point x="-10" y="-213" type="line"/>
      <point x="722" y="-213" type="line"/>
      <point x="722" y="917" type="line"/>
      <point x="-10" y="917" type="line"/>
    </contour>
  </outline>
</glyph>
<glyph name="Ugrave" format="1">
  <advance width="719"/>
  <unicode hex="00D9"/>
  <outline>
    <contour>
      <point x="460" y="688" type="line"/>
      <point x="245" y="716" type="line"/>
      <point x="274" y="833" type="line"/>
      <point x="476" y="745" type="line"/>
    </contour>
    <contour>
      <point x="634" y="536" type="line"/>
      <point x="634" y="269" type="line" smooth="yes"/>
      <point x="634" y="131"/>
      <point x="564" y="-10"/>
      <point x="356" y="-10" type="curve" smooth="yes"/>
      <point x="158" y="-10"/>
      <point x="86" y="118"/>
      <point x="86" y="258" type="curve" smooth="yes"/>
      <point x="86" y="536" type="line"/>
      <point x="28" y="536" type="line"/>
      <point x="28" y="650" type="line"/>
      <point x="296" y="650" type="line"/>
      <point x="296" y="536" type="line"/>
      <point x="220" y="536" type="line"/>
      <point x="220" y="262" type="line" smooth="yes"/>
      <point x="220" y="173"/>
      <point x="259" y="108"/>
      <point x="363" y="108" type="curve" smooth="yes"/>
      <point x="465" y="108"/>
      <point x="509" y="172"/>
      <point x="509" y="269" type="curve" smooth="yes"/>
      <point x="509" y="536" type="line"/>
      <point x="433" y="536" type="line"/>
      <point x="433" y="650" type="line"/>
      <point x="692" y="650" type="line"/>
      <point x="692" y="536" type="line"/>
    </contour>
    <contour>
      <point x="-10" y="-213" type="line"/>
      <point x="729" y="-213" type="line"/>
      <point x="729" y="917" type="line"/>
      <point x="-10" y="917" type="line"/>
    </contour>
  </outline>
</glyph>
<glyph name="ccedilla" format="1">
  <advance width="471"/>
  <unicode hex="00E7"/>
  <outline>
    <contour>
      <point x="-10" y="-213" type="line"/>
      <point x="480" y="-213" type="line"/>
      <point x="480" y="917" type="line"/>
      <point x="-10" y="917" type="line"/>
    </contour>
    <contour>
      <point x="385" y="-122" type="curve" smooth="yes"/>
      <point x="385" y="-189"/>
      <point x="319" y="-210"/>
      <point x="255" y="-210" type="curve" smooth="yes"/>
      <point x="206" y="-210"/>
      <point x="161" y="-198"/>
      <point x="139" y="-180" type="curve"/>
      <point x="162" y="-110" type="line"/>
      <point x="177" y="-120"/>
      <point x="203" y="-133"/>
      <point x="240" y="-133" type="curve" smooth="yes"/>
      <point x="268" y="-133"/>
      <point x="276" y="-126"/>
      <point x="276" y="-112" type="curve" smooth="yes"/>
      <point x="276" y="-98"/>
      <point x="269" y="-87"/>
      <point x="237" y="-87" type="curve" smooth="yes"/>
      <point x="200" y="-87" type="line"/>
      <point x="200" y="-6" type="line"/>
      <point x="94" y="10"/>
      <point x="21" y="84"/>
      <point x="21" y="218" type="curve" smooth="yes"/>
      <point x="21" y="378"/>
      <point x="126" y="460"/>
      <point x="257" y="460" type="curve" smooth="yes"/>
      <point x="307" y="460"/>
      <point x="365" y="448"/>
      <point x="420" y="419" type="curve"/>
      <point x="440" y="282" type="line"/>
      <point x="337" y="271" type="line"/>
      <point x="322" y="345" type="line"/>
      <point x="298" y="353"/>
      <point x="275" y="358"/>
      <point x="254" y="358" type="curve" smooth="yes"/>
      <point x="199" y="358"/>
      <point x="155" y="319"/>
      <point x="155" y="224" type="curve" smooth="yes"/>
      <point x="155" y="141"/>
      <point x="189" y="92"/>
      <point x="258" y="92" type="curve" smooth="yes"/>
      <point x="310" y="92"/>
      <point x="338" y="123"/>
      <point x="347" y="188" type="curve"/>
      <point x="455" y="168" type="line"/>
      <point x="447" y="94"/>
      <point x="402" y="9"/>
      <point x="288" y="-7" type="curve"/>
      <point x="288" y="-42" type="line"/>
      <point x="296" y="-42" type="line" smooth="yes"/>
      <point x="363" y="-42"/>
      <point x="385" y="-83"/>
    </contour>
  </outline>
</glyph>
<glyph name="iacute" format="1">
  <advance width="299"/>
  <unicode hex="00ED"/>
  <outline>
    <contour>
      <point x="92" y="508" type="line"/>
      <point x="58" y="557" type="line"/>
      <point x="220" y="700" type="line"/>
      <point x="287" y="599" type="line"/>
    </contour>
    <contour>
      <point x="32" y="0" type="line"/>
      <point x="32" y="97" type="line"/>
      <point x="92" y="97" type="line"/>
      <point x="92" y="353" type="line"/>
      <point x="27" y="353" type="line"/>
      <point x="27" y="451" type="line"/>
      <point x="221" y="451" type="line"/>
      <point x="221" y="97" type="line"/>
      <point x="281" y="97" type="line"/>
      <point x="281" y="0" type="line"/>
    </contour>
    <contour>
      <point x="-10" y="-213" type="line"/>
      <point x="309" y="-213" type="line"/>
      <point x="309" y="917" type="line"/>
      <point x="-10" y="917" type="line"/>
    </contour>
  </outline>
</glyph>
<glyph name="icircumflex" format="1">
  <advance width="299"/>
  <unicode hex="00EE"/>
  <outline>
    <contour>
      <point x="267" y="508" type="line"/>
      <point x="139" y="572" type="line"/>
      <point x="33" y="507" type="line"/>
      <point x="0" y="556" type="line"/>
      <point x="128" y="675" type="line"/>
      <point x="171" y="675" type="line"/>
      <point x="300" y="555" type="line"/>
    </contour>
    <contour>
      <point x="32" y="0" type="line"/>
      <point x="32" y="97" type="line"/>
      <point x="92" y="97" type="line"/>
      <point x="92" y="353" type="line"/>
      <point x="27" y="353" type="line"/>
      <point x="27" y="451" type="line"/>
      <point x="221" y="451" type="line"/>
      <point x="221" y="97" type="line"/>
      <point x="281" y="97" type="line"/>
      <point x="281" y="0" type="line"/>
    </contour>
    <contour>
      <point x="-10" y="-213" type="line"/>
      <point x="309" y="-213" type="line"/>
      <point x="309" y="917" type="line"/>
      <point x="-10" y="917" type="line"/>
    </contour>
  </outline>
</glyph>
<glyph name="otilde" format="1">
  <advance width="523"/>
  <unicode hex="00F5"/>
  <outline>
    <contour>
      <point x="262" y="461" type="curve" smooth="yes"/>
      <point x="425" y="461"/>
      <point x="503" y="352"/>
      <point x="503" y="225" type="curve" smooth="yes"/>
      <point x="503" y="82"/>
      <point x="399" y="-10"/>
      <point x="255" y="-10" type="curve" smooth="yes"/>
      <point x="116" y="-10"/>
      <point x="20" y="75"/>
      <point x="20" y="220" type="curve" smooth="yes"/>
      <point x="20" y="352"/>
      <point x="100" y="461"/>
    </contour>
    <contour>
      <point x="259" y="89" type="curve" smooth="yes"/>
      <point x="326" y="89"/>
      <point x="370" y="143"/>
      <point x="370" y="229" type="curve" smooth="yes"/>
      <point x="370" y="321"/>
      <point x="321" y="362"/>
      <point x="260" y="362" type="curve" smooth="yes"/>
      <point x="194" y="362"/>
      <point x="153" y="312"/>
      <point x="153" y="227" type="curve" smooth="yes"/>
      <point x="153" y="150"/>
      <point x="189" y="89"/>
    </contour>
    <contour>
      <point x="-10" y="-213" type="line"/>
      <point x="533" y="-213" type="line"/>
      <point x="533" y="917" type="line"/>
      <point x="-10" y="917" type="line"/>
    </contour>
    <contour>
      <point x="416" y="647" type="line"/>
      <point x="416" y="589"/>
      <point x="399" y="517"/>
      <point x="333" y="517" type="curve" smooth="yes"/>
      <point x="282" y="517"/>
      <point x="248" y="558"/>
      <point x="208" y="558" type="curve" smooth="yes"/>
      <point x="185" y="558"/>
      <point x="171" y="544"/>
      <point x="163" y="515" type="curve"/>
      <point x="113" y="531" type="line"/>
      <point x="110" y="569"/>
      <point x="132" y="655"/>
      <point x="198" y="655" type="curve" smooth="yes"/>
      <point x="243" y="655"/>
      <point x="281" y="617"/>
      <point x="315" y="617" type="curve" smooth="yes"/>
      <point x="334" y="617"/>
      <point x="353" y="629"/>
      <point x="362" y="658" type="curve"/>
    </contour>
  </outline>
</glyph>
<glyph name="oslash" format="1">
  <advance width="524"/>
  <unicode hex="00F8"/>
  <outline>
    <contour>
      <point x="504" y="225" type="curve" smooth="yes"/>
      <point x="504" y="81"/>
      <point x="400" y="-10"/>
      <point x="256" y="-10" type="curve" smooth="yes"/>
      <point x="205" y="-10"/>
      <point x="161" y="1"/>
      <point x="124" y="22" type="curve"/>
      <point x="105" y="0" type="line"/>
      <point x="20" y="0" type="line"/>
      <point x="75" y="62" type="line"/>
      <point x="40" y="101"/>
      <point x="21" y="154"/>
      <point x="21" y="219" type="curve" smooth="yes"/>
      <point x="21" y="351"/>
      <point x="101" y="460"/>
      <point x="263" y="460" type="curve" smooth="yes"/>
      <point x="316" y="460"/>
      <point x="361" y="448"/>
      <point x="397" y="427" type="curve"/>
      <point x="418" y="451" type="line"/>
      <point x="504" y="451" type="line"/>
      <point x="447" y="387" type="line"/>
      <point x="485" y="344"/>
      <point x="504" y="286"/>
    </contour>
    <contour>
      <point x="365" y="229" type="curve"/>
      <point x="365" y="146"/>
      <point x="325" y="98"/>
      <point x="260" y="98" type="curve" smooth="yes"/>
      <point x="238" y="98"/>
      <point x="220" y="103"/>
      <point x="205" y="113" type="curve"/>
      <point x="357" y="285" type="line"/>
      <point x="362" y="269"/>
      <point x="365" y="251"/>
    </contour>
    <contour>
      <point x="160" y="227" type="curve"/>
      <point x="160" y="205"/>
      <point x="162" y="185"/>
      <point x="168" y="167" type="curve"/>
      <point x="318" y="337" type="line"/>
      <point x="302" y="347"/>
      <point x="282" y="352"/>
      <point x="261" y="352" type="curve" smooth="yes"/>
      <point x="197" y="352"/>
      <point x="160" y="309"/>
    </contour>
    <contour>
      <point x="-10" y="-213" type="line"/>
      <point x="533" y="-213" type="line"/>
      <point x="533" y="917" type="line"/>
      <point x="-10" y="917" type="line"/>
    </contour>
  </outline>
</glyph>
<glyph name="udieresis" format="1">
  <advance width="585"/>
  <unicode hex="00FC"/>
  <outline>
    <contour>
      <point x="111" y="665" type="line"/>
      <point x="240" y="665" type="line"/>
      <point x="240" y="531" type="line"/>
      <point x="111" y="531" type="line"/>
    </contour>
    <contour>
      <point x="296" y="665" type="line"/>
      <point x="425" y="665" type="line"/>
      <point x="425" y="531" type="line"/>
      <point x="296" y="531" type="line"/>
    </contour>
    <contour>
      <point x="377" y="0" type="line"/>
      <point x="377" y="69" type="line"/>
      <point x="348" y="19"/>
      <point x="298" y="-9"/>
      <point x="232" y="-9" type="curve" smooth="yes"/>
      <point x="147" y="-9"/>
      <point x="74" y="40"/>
      <point x="74" y="147" type="curve" smooth="yes"/>
      <point x="74" y="354" type="line"/>
      <point x="14" y="354" type="line"/>
      <point x="14" y="451" type="line"/>
      <point x="203" y="451" type="line"/>
      <point x="203" y="197" type="line" smooth="yes"/>
      <point x="203" y="119"/>
      <point x="229" y="89"/>
      <point x="280" y="89" type="curve" smooth="yes"/>
      <point x="342" y="89"/>
      <point x="377" y="133"/>
      <point x="377" y="196" type="curve" smooth="yes"/>
      <point x="377" y="354" type="line"/>
      <point x="304" y="354" type="line"/>
      <point x="304" y="451" type="line"/>
      <point x="506" y="451" type="line"/>
      <point x="506" y="97" type="line"/>
      <point x="571" y="97" type="line"/>
      <point x="571" y="0" type="line"/>
    </contour>
    <contour>
      <point x="-10" y="-213" type="line"/>
      <point x="596" y="-213" type="line"/>
      <point x="596" y="917" type="line"/>
      <point x="-10" y="917" type="line"/>
    </contour>
  </outline>
</glyph>
<glyph name="Amacron" format="1">
  <advance width="654"/>
  <unicode hex="0100"/>
  <outline>
    <contour>
      <point x="-10" y="917" type="line"/>
      <point x="-10" y="114" type="line"/>
      <point x="49" y="114" type="line"/>
      <point x="235" y="536" type="line"/>
      <point x="145" y="536" type="line"/>
      <point x="145" y="650" type="line"/>
      <point x="368" y="650" type="line"/>
      <point x="602" y="114" type="line"/>
      <point x="664" y="114" type="line"/>
      <point x="664" y="917" type="line"/>
    </contour>
    <contour>
      <point x="329" y="459" type="line"/>
      <point x="323" y="459" type="line"/>
      <point x="250" y="276" type="line"/>
      <point x="397" y="276" type="line"/>
    </contour>
    <contour>
      <point x="664" y="-213" type="line"/>
      <point x="664" y="0" type="line"/>
      <point x="405" y="0" type="line"/>
      <point x="405" y="114" type="line"/>
      <point x="457" y="114" type="line"/>
      <point x="433" y="180" type="line"/>
      <point x="212" y="180" type="line"/>
      <point x="185" y="114" type="line"/>
      <point x="246" y="114" type="line"/>
      <point x="246" y="0" type="line"/>
      <point x="-10" y="0" type="line"/>
      <point x="-10" y="-213" type="line"/>
    </contour>
    <contour>
      <point x="175" y="721" type="line"/>
      <point x="175" y="819" type="line"/>
      <point x="483" y="819" type="line"/>
      <point x="483" y="721" type="line"/>
    </contour>
  </outline>
</glyph>
<glyph name="Aogonek" format="1">
  <advance width="654"/>
  <unicode hex="0104"/>
  <outline>
    <contour>
      <point x="49" y="114" type="line"/>
      <point x="235" y="536" type="line"/>
      <point x="145" y="536" type="line"/>
      <point x="145" y="650" type="line"/>
      <point x="368" y="650" type="line"/>
      <point x="602" y="114" type="line"/>
      <point x="664" y="114" type="line"/>
      <point x="664" y="917" type="line"/>
      <point x="-10" y="917" type="line"/>
      <point x="-10" y="114" type="line"/>
    </contour>
    <contour>
      <point x="-10" y="-213" type="line"/>
      <point x="664" y="-213" type="line"/>
      <point x="664" y="0" type="line"/>
      <point x="584" y="0" type="line"/>
      <point x="548" y="-25"/>
      <point x="541" y="-52"/>
      <point x="541" y="-74" type="curve" smooth="yes"/>
      <point x="541" y="-109"/>
      <point x="560" y="-118"/>
      <point x="584" y="-118" type="curve" smooth="yes"/>
      <point x="599" y="-118"/>
      <point x="617" y="-114"/>
      <point x="630" y="-106" type="curve"/>
      <point x="639" y="-188" type="line"/>
      <point x="616" y="-199"/>
      <point x="587" y="-208"/>
      <point x="549" y="-208" type="curve" smooth="yes"/>
      <point x="484" y="-208"/>
      <point x="431" y="-181"/>
      <point x="431" y="-117" type="curve" smooth="yes"/>
      <point x="431" y="-66"/>
      <point x="463" y="-25"/>
      <point x="504" y="0" type="curve"/>
      <point x="405" y="0" type="line"/>
      <point x="405" y="114" type="line"/>
      <point x="457" y="114" type="line"/>
      <point x="433" y="180" type="line"/>
      <point x="212" y="180" type="line"/>
      <point x="185" y="114" type="line"/>
      <point x="246" y="114" type="line"/>
      <point x="246" y="0" type="line"/>
      <point x="-10" y="0" type="line"/>
    </contour>
    <contour>
      <point x="329" y="459" type="line"/>
      <point x="323" y="459" type="line"/>
      <point x="250" y="276" type="line"/>
      <point x="397" y="276" type="line"/>
    </contour>
  </outline>
</glyph>
<glyph name="aogonek" format="1">
  <advance width="507"/>
  <unicode hex="0105"/>
  <outline>
    <contour>
      <point x="-10" y="-213" type="line"/>
      <point x="517" y="-213" type="line"/>
      <point x="517" y="917" type="line"/>
      <point x="-10" y="917" type="line"/>
    </contour>
    <contour>
      <point x="498" y="-188" type="line"/>
      <point x="475" y="-199"/>
      <point x="446" y="-208"/>
      <point x="408" y="-208" type="curve" smooth="yes"/>
      <point x="343" y="-208"/>
      <point x="290" y="-181"/>
      <point x="290" y="-117" type="curve" smooth="yes"/>
      <point x="290" y="-66"/>
      <point x="321" y="-25"/>
      <point x="362" y="0" type="curve"/>
      <point x="332" y="13"/>
      <point x="315" y="41"/>
      <point x="311" y="79" type="curve"/>
      <point x="311" y="80" type="line"/>
      <point x="285" y="34"/>
      <point x="239" y="-10"/>
      <point x="166" y="-10" type="curve" smooth="yes"/>
      <point x="101" y="-10"/>
      <point x="27" y="25"/>
      <point x="27" y="119" type="curve" smooth="yes"/>
      <point x="27" y="230"/>
      <point x="134" y="256"/>
      <point x="237" y="256" type="curve" smooth="yes"/>
      <point x="262" y="256"/>
      <point x="288" y="255"/>
      <point x="311" y="252" type="curve"/>
      <point x="311" y="267" type="line" smooth="yes"/>
      <point x="311" y="313"/>
      <point x="310" y="368"/>
      <point x="237" y="368" type="curve" smooth="yes"/>
      <point x="210" y="368"/>
      <point x="189" y="366"/>
      <point x="168" y="355" type="curve"/>
      <point x="151" y="291" type="line"/>
      <point x="48" y="302" type="line"/>
      <point x="68" y="419" type="line"/>
      <point x="147" y="451"/>
      <point x="187" y="460"/>
      <point x="261" y="460" type="curve" smooth="yes"/>
      <point x="358" y="460"/>
      <point x="440" y="410"/>
      <point x="440" y="307" type="curve" smooth="yes"/>
      <point x="440" y="111" type="line" smooth="yes"/>
      <point x="440" y="85"/>
      <point x="450" y="76"/>
      <point x="471" y="76" type="curve" smooth="yes"/>
      <point x="477" y="76"/>
      <point x="483" y="77"/>
      <point x="490" y="79" type="curve"/>
      <point x="491" y="11" type="line"/>
      <point x="473" y="1"/>
      <point x="453" y="-5"/>
      <point x="432" y="-8" type="curve"/>
      <point x="405" y="-31"/>
      <point x="400" y="-55"/>
      <point x="400" y="-74" type="curve" smooth="yes"/>
      <point x="400" y="-109"/>
      <point x="419" y="-118"/>
      <point x="443" y="-118" type="curve" smooth="yes"/>
      <point x="458" y="-118"/>
      <point x="476" y="-114"/>
      <point x="489" y="-106" type="curve"/>
    </contour>
    <contour>
      <point x="311" y="184" type="curve"/>
      <point x="311" y="190" type="line"/>
      <point x="290" y="193"/>
      <point x="267" y="196"/>
      <point x="246" y="196" type="curve" smooth="yes"/>
      <point x="200" y="196"/>
      <point x="160" y="183"/>
      <point x="160" y="134" type="curve" smooth="yes"/>
      <point x="160" y="105"/>
      <point x="174" y="82"/>
      <point x="213" y="82" type="curve" smooth="yes"/>
      <point x="258" y="82"/>
      <point x="305" y="113"/>
    </contour>
  </outline>
</glyph>
<glyph name="cacute" format="1">
  <advance width="471"/>
  <unicode hex="0107"/>
  <outline>
    <contour>
      <point x="210" y="508" type="line"/>
      <point x="176" y="557" type="line"/>
      <point x="338" y="700" type="line"/>
      <point x="405" y="599" type="line"/>
    </contour>
    <contour>
      <point x="455" y="168" type="line"/>
      <point x="446" y="86"/>
      <point x="391" y="-10"/>
      <point x="246" y="-10" type="curve" smooth="yes"/>
      <point x="116" y="-10"/>
      <point x="21" y="66"/>
      <point x="21" y="218" type="curve" smooth="yes"/>
      <point x="21" y="378"/>
      <point x="126" y="460"/>
      <point x="257" y="460" type="curve" smooth="yes"/>
      <point x="307" y="460"/>
      <point x="365" y="448"/>
      <point x="420" y="419" type="curve"/>
      <point x="440" y="282" type="line"/>
      <point x="337" y="271" type="line"/>
      <point x="322" y="345" type="line"/>
      <point x="298" y="353"/>
      <point x="275" y="358"/>
      <point x="254" y="358" type="curve" smooth="yes"/>
      <point x="199" y="358"/>
      <point x="155" y="319"/>
      <point x="155" y="224" type="curve" smooth="yes"/>
      <point x="155" y="141"/>
      <point x="189" y="92"/>
      <point x="258" y="92" type="curve" smooth="yes"/>
      <point x="310" y="92"/>
      <point x="338" y="123"/>
      <point x="347" y="188" type="curve"/>
    </contour>
    <contour>
      <point x="-10" y="-213" type="line"/>
      <point x="480" y="-213" type="line"/>
      <point x="480" y="917" type="line"/>
      <point x="-10" y="917" type="line"/>
    </contour>
  </outline>
</glyph>
<glyph name="Ccircumflex" format="1">
  <advance width="643"/>
  <unicode hex="0108"/>
  <outline>
    <contour>
      <point x="594" y="69" type="line"/>
      <point x="551" y="23"/>
      <point x="444" y="-10"/>
      <point x="351" y="-10" type="curve" smooth="yes"/>
      <point x="165" y="-10"/>
      <point x="24" y="121"/>
      <point x="24" y="314" type="curve" smooth="yes"/>
      <point x="24" y="465"/>
      <point x="110" y="660"/>
      <point x="357" y="660" type="curve" smooth="yes"/>
      <point x="468" y="660"/>
      <point x="549" y="621"/>
      <point x="591" y="582" type="curve"/>
      <point x="607" y="431" type="line"/>
      <point x="498" y="421" type="line"/>
      <point x="484" y="507" type="line"/>
      <point x="450" y="530"/>
      <point x="395" y="542"/>
      <point x="351" y="542" type="curve" smooth="yes"/>
      <point x="239" y="542"/>
      <point x="168" y="465"/>
      <point x="168" y="323" type="curve" smooth="yes"/>
      <point x="168" y="172"/>
      <point x="248" y="108"/>
      <point x="360" y="108" type="curve" smooth="yes"/>
      <point x="409" y="108"/>
      <point x="459" y="120"/>
      <point x="484" y="135" type="curve"/>
      <point x="498" y="232" type="line"/>
      <point x="607" y="222" type="line"/>
    </contour>
    <contour>
      <point x="-10" y="-213" type="line"/>
      <point x="653" y="-213" type="line"/>
      <point x="653" y="917" type="line"/>
      <point x="-10" y="917" type="line"/>
    </contour>
    <contour>
      <point x="490" y="685" type="line"/>
      <point x="355" y="745" type="line"/>
      <point x="231" y="685" type="line"/>
      <point x="202" y="738" type="line"/>
      <point x="337" y="844" type="line"/>
      <point x="382" y="844" type="line"/>
      <point x="518" y="737" type="line"/>
    </contour>
  </outline>
</glyph>
<glyph name="emacron" format="1">
  <advance width="483"/>
  <unicode hex="0113"/>
  <outline>
    <contour>
      <point x="463" y="142" type="line"/>
      <point x="457" y="62"/>
      <point x="383" y="-10"/>
      <point x="253" y="-10" type="curve" smooth="yes"/>
      <point x="119" y="-10"/>
      <point x="21" y="66"/>
      <point x="21" y="217" type="curve" smooth="yes"/>
      <point x="21" y="356"/>
      <point x="104" y="460"/>
      <point x="247" y="460" type="curve" smooth="yes"/>
      <point x="372" y="460"/>
      <point x="457" y="381"/>
      <point x="459" y="264" type="curve" smooth="yes"/>
      <point x="459" y="244"/>
      <point x="457" y="222"/>
      <point x="452" y="199" type="curve"/>
      <point x="156" y="199" type="line"/>
      <point x="163" y="129"/>
      <point x="197" y="92"/>
      <point x="262" y="92" type="curve" smooth="yes"/>
      <point x="331" y="92"/>
      <point x="350" y="135"/>
      <point x="355" y="162" type="curve"/>
    </contour>
    <contour>
      <point x="326" y="274" type="line"/>
      <point x="332" y="319"/>
      <point x="308" y="368"/>
      <point x="247" y="368" type="curve" smooth="yes"/>
      <point x="194" y="368"/>
      <point x="165" y="330"/>
      <point x="157" y="274" type="curve"/>
    </contour>
    <contour>
      <point x="-10" y="-213" type="line"/>
      <point x="492" y="-213" type="line"/>
      <point x="492" y="917" type="line"/>
      <point x="-10" y="917" type="line"/>
    </contour>
    <contour>
      <point x="122" y="536" type="line"/>
      <point x="122" y="634" type="line"/>
      <point x="390" y="634" type="line"/>
      <point x="390" y="536" type="line"/>
    </contour>
  </outline>
</glyph>
<glyph name="Ebreve" format="1">
  <advance width="594"/>
  <unicode hex="0114"/>
  <outline>
    <contour>
      <point x="473" y="833" type="line"/>
      <point x="473" y="738"/>
      <point x="418" y="695"/>
      <point x="333" y="695" type="curve" smooth="yes"/>
      <point x="245" y="695"/>
      <point x="194" y="741"/>
      <point x="194" y="833" type="curve"/>
      <point x="296" y="833" type="line"/>
      <point x="296" y="797"/>
      <point x="307" y="772"/>
      <point x="333" y="772" type="curve" smooth="yes"/>
      <point x="361" y="772"/>
      <point x="371" y="801"/>
      <point x="371" y="833" type="curve"/>
    </contour>
    <contour>
      <point x="39" y="0" type="line"/>
      <point x="39" y="114" type="line"/>
      <point x="109" y="114" type="line"/>
      <point x="109" y="536" type="line"/>
      <point x="39" y="536" type="line"/>
      <point x="39" y="650" type="line"/>
      <point x="535" y="650" type="line"/>
      <point x="555" y="460" type="line"/>
      <point x="441" y="450" type="line"/>
      <point x="421" y="536" type="line"/>
      <point x="243" y="536" type="line"/>
      <point x="243" y="383" type="line"/>
      <point x="517" y="383" type="line"/>
      <point x="517" y="270" type="line"/>
      <point x="243" y="270" type="line"/>
      <point x="243" y="114" type="line"/>
      <point x="427" y="114" type="line"/>
      <point x="447" y="200" type="line"/>
      <point x="561" y="190" type="line"/>
      <point x="541" y="0" type="line"/>
    </contour>
    <contour>
      <point x="-10" y="-213" type="line"/>
      <point x="604" y="-213" type="line"/>
      <point x="604" y="917" type="line"/>
      <point x="-10" y="917" type="line"/>
    </contour>
  </outline>
</glyph>
<glyph name="Eogonek" format="1">
  <advance width="594"/>
  <unicode hex="0118"/>
  <outline>
    <contour>
      <point x="-10" y="-213" type="line"/>
      <point x="604" y="-213" type="line"/>
      <point x="604" y="917" type="line"/>
      <point x="-10" y="917" type="line"/>
    </contour>
    <contour>
      <point x="39" y="0" type="line"/>
      <point x="39" y="114" type="line"/>
      <point x="109" y="114" type="line"/>
      <point x="109" y="536" type="line"/>
      <point x="39" y="536" type="line"/>
      <point x="39" y="650" type="line"/>
      <point x="535" y="650" type="line"/>
      <point x="555" y="460" type="line"/>
      <point x="441" y="450" type="line"/>
      <point x="421" y="536" type="line"/>
      <point x="243" y="536" type="line"/>
      <point x="243" y="383" type="line"/>
      <point x="517" y="383" type="line"/>
      <point x="517" y="270" type="line"/>
      <point x="243" y="270" type="line"/>
      <point x="243" y="114" type="line"/>
      <point x="427" y="114" type="line"/>
      <point x="447" y="200" type="line"/>
      <point x="561" y="190" type="line"/>
      <point x="541" y="0" type="line"/>
      <point x="515" y="0" type="line"/>
      <point x="479" y="-25"/>
      <point x="472" y="-52"/>
      <point x="472" y="-74" type="curve" smooth="yes"/>
      <point x="472" y="-109"/>
      <point x="491" y="-118"/>
      <point x="515" y="-118" type="curve" smooth="yes"/>
      <point x="530" y="-118"/>
      <point x="548" y="-114"/>
      <point x="561" y="-106" type="curve"/>
      <point x="570" y="-188" type="line"/>
      <point x="547" y="-199"/>
      <point x="518" y="-208"/>
      <point x="480" y="-208" type="curve" smooth="yes"/>
      <point x="415" y="-208"/>
      <point x="362" y="-181"/>
      <point x="362" y="-117" type="curve" smooth="yes"/>
      <point x="362" y="-66"/>
      <point x="394" y="-25"/>
      <point x="435" y="0" type="curve"/>
    </contour>
  </outline>
</glyph>
<glyph name="eogonek" format="1">
  <advance width="483"/>
  <unicode hex="0119"/>
  <outline>
    <contour>
      <point x="-10" y="-213" type="line"/>
      <point x="492" y="-213" type="line"/>
      <point x="492" y="917" type="line"/>
      <point x="-10" y="917" type="line"/>
    </contour>
    <contour>
      <point x="463" y="142" type="line"/>
      <point x="458" y="78"/>
      <point x="410" y="20"/>
      <point x="325" y="-1" type="curve"/>
      <point x="291" y="-26"/>
      <point x="284" y="-53"/>
      <point x="284" y="-74" type="curve" smooth="yes"/>
      <point x="284" y="-109"/>
      <point x="303" y="-118"/>
      <point x="327" y="-118" type="curve" smooth="yes"/>
      <point x="342" y="-118"/>
      <point x="360" y="-114"/>
      <point x="373" y="-106" type="curve"/>
      <point x="382" y="-188" type="line"/>
      <point x="359" y="-199"/>
      <point x="330" y="-208"/>
      <point x="292" y="-208" type="curve" smooth="yes"/>
      <point x="227" y="-208"/>
      <point x="174" y="-181"/>
      <point x="174" y="-117" type="curve" smooth="yes"/>
      <point x="174" y="-72"/>
      <point x="199" y="-35"/>
      <point x="233" y="-9" type="curve"/>
      <point x="109" y="-2"/>
      <point x="21" y="73"/>
      <point x="21" y="217" type="curve" smooth="yes"/>
      <point x="21" y="356"/>
      <point x="104" y="460"/>
      <point x="247" y="460" type="curve" smooth="yes"/>
      <point x="372" y="460"/>
      <point x="457" y="381"/>
      <point x="459" y="264" type="curve" smooth="yes"/>
      <point x="459" y="244"/>
      <point x="457" y="222"/>
      <point x="452" y="199" type="curve"/>
      <point x="156" y="199" type="line"/>
      <point x="163" y="129"/>
      <point x="197" y="92"/>
      <point x="262" y="92" type="curve" smooth="yes"/>
      <point x="331" y="92"/>
      <point x="350" y="135"/>
      <point x="355" y="162" type="curve"/>
    </contour>
    <contour>
      <point x="326" y="274" type="line"/>
      <point x="332" y="319"/>
      <point x="308" y="368"/>
      <point x="247" y="368" type="curve" smooth="yes"/>
      <point x="194" y="368"/>
      <point x="165" y="330"/>
      <point x="157" y="274" type="curve"/>
    </contour>
  </outline>
</glyph>
<glyph name="dotlessi" format="1">
  <advance width="299"/>
  <unicode hex="0131"/>
  <outline>
    <contour>
      <point x="32" y="0" type="line"/>
      <point x="32" y="97" type="line"/>
      <point x="92" y="97" type="line"/>
      <point x="92" y="353" type="line"/>
      <point x="27" y="353" type="line"/>
      <point x="27" y="451" type="line"/>
      <point x="221" y="451" type="line"/>
      <point x="221" y="97" type="line"/>
      <point x="281" y="97" type="line"/>
      <point x="281" y="0" type="line"/>
    </contour>
    <contour>
      <point x="-10" y="-213" type="line"/>
      <point x="309" y="-213" type="line"/>
      <point x="309" y="917" type="line"/>
      <point x="-10" y="917" type="line"/>
    </contour>
    <contour>
      <point x="313" y="566" type="move" name="top"/>
    </contour>
  </outline>
</glyph>
<glyph name="IJ" format="1">
  <advance width="847"/>
  <unicode hex="0132"/>
  <outline>
    <contour>
      <point x="39" y="0" type="line"/>
      <point x="39" y="114" type="line"/>
      <point x="109" y="114" type="line"/>
      <point x="109" y="536" type="line"/>
      <point x="39" y="536" type="line"/>
      <point x="39" y="650" type="line"/>
      <point x="313" y="650" type="line"/>
      <point x="313" y="536" type="line"/>
      <point x="243" y="536" type="line"/>
      <point x="243" y="114" type="line"/>
      <point x="313" y="114" type="line"/>
      <point x="313" y="0" type="line"/>
    </contour>
    <contour>
      <point x="759" y="536" type="line"/>
      <point x="759" y="185" type="line" smooth="yes"/>
      <point x="759" y="54"/>
      <point x="680" y="-10"/>
      <point x="562" y="-10" type="curve" smooth="yes"/>
      <point x="451" y="-10"/>
      <point x="395" y="47"/>
      <point x="367" y="113" type="curve"/>
      <point x="461" y="184" type="line"/>
      <point x="484" y="125"/>
      <point x="517" y="114"/>
      <point x="549" y="114" type="curve" smooth="yes"/>
      <point x="603" y="114"/>
      <point x="625" y="144"/>
      <point x="625" y="184" type="curve" smooth="yes"/>
      <point x="625" y="536" type="line"/>
      <point x="511" y="536" type="line"/>
      <point x="511" y="650" type="line"/>
      <point x="819" y="650" type="line"/>
      <point x="819" y="536" type="line"/>
    </contour>
    <contour>
      <point x="-10" y="-213" type="line"/>
      <point x="857" y="-213" type="line"/>
      <point x="857" y="917" type="line"/>
      <point x="-10" y="917" type="line"/>
    </contour>
  </outline>
</glyph>
<glyph name="ij" format="1">
  <advance width="299"/>
  <unicode hex="0133"/>
  <outline>
    <contour>
      <point x="-10" y="-213" type="line"/>
      <point x="289" y="-213" type="line"/>
      <point x="289" y="-126" type="line"/>
      <point x="344" y="-126"/>
      <point x="381" y="-128"/>
      <point x="381" y="16" type="curve" smooth="yes"/>
      <point x="381" y="353" type="line"/>
      <point x="311" y="353" type="line"/>
      <point x="311" y="451" type="line"/>
      <point x="510" y="451" type="line"/>
      <point x="510" y="16" type="line" smooth="yes"/>
      <point x="510" y="-136"/>
      <point x="470" y="-209"/>
      <point x="336" y="-213" type="curve"/>
      <point x="574" y="-213" type="line"/>
      <point x="574" y="917" type="line"/>
      <point x="-10" y="917" type="line"/>
    </contour>
    <contour>
      <point x="32" y="0" type="line"/>
      <point x="32" y="97" type="line"/>
      <point x="92" y="97" type="line"/>
      <point x="92" y="353" type="line"/>
      <point x="27" y="353" type="line"/>
      <point x="27" y="451" type="line"/>
      <point x="221" y="451" type="line"/>
      <point x="221" y="97" type="line"/>
      <point x="281" y="97" type="line"/>
      <point x="281" y="0" type="line"/>
    </contour>
    <contour>
      <point x="381" y="665" type="line"/>
      <point x="510" y="665" type="line"/>
      <point x="510" y="531" type="line"/>
      <point x="381" y="531" type="line"/>
    </contour>
    <contour>
      <point x="87" y="665" type="line"/>
      <point x="216" y="665" type="line"/>
      <point x="216" y="531" type="line"/>
      <point x="87" y="531" type="line"/>
    </contour>
  </outline>
</glyph>
<glyph name="Lacute" format="1">
  <advance width="559"/>
  <unicode hex="0139"/>
  <outline>
    <contour>
      <point x="98" y="688" type="line"/>
      <point x="82" y="745" type="line"/>
      <point x="284" y="833" type="line"/>
      <point x="313" y="716" type="line"/>
    </contour>
    <contour>
      <point x="39" y="0" type="line"/>
      <point x="39" y="114" type="line"/>
      <point x="109" y="114" type="line"/>
      <point x="109" y="536" type="line"/>
      <point x="39" y="536" type="line"/>
      <point x="39" y="650" type="line"/>
      <point x="334" y="650" type="line"/>
      <point x="334" y="536" type="line"/>
      <point x="243" y="536" type="line"/>
      <point x="243" y="114" type="line"/>
      <point x="413" y="114" type="line"/>
      <point x="433" y="240" type="line"/>
      <point x="547" y="230" type="line"/>
      <point x="527" y="0" type="line"/>
    </contour>
    <contour>
      <point x="-10" y="-213" type="line"/>
      <point x="569" y="-213" type="line"/>
      <point x="569" y="917" type="line"/>
      <point x="-10" y="917" type="line"/>
    </contour>
  </outline>
</glyph>
<glyph name="lcommaaccent" format="1">
  <advance width="285"/>
  <unicode hex="013C"/>
  <outline>
    <contour>
      <point x="180" y="-213" type="line"/>
      <point x="82" y="-213" type="line"/>
      <point x="85" y="-58" type="line"/>
      <point x="206" y="-58" type="line"/>
    </contour>
    <contour>
      <point x="18" y="0" type="line"/>
      <point x="18" y="97" type="line"/>
      <point x="78" y="97" type="line"/>
      <point x="78" y="590" type="line"/>
      <point x="13" y="590" type="line"/>
      <point x="13" y="688" type="line"/>
      <point x="207" y="688" type="line"/>
      <point x="207" y="97" type="line"/>
      <point x="267" y="97" type="line"/>
      <point x="267" y="0" type="line"/>
    </contour>
    <contour>
      <point x="-10" y="-213" type="line"/>
      <point x="294" y="-213" type="line"/>
      <point x="294" y="917" type="line"/>
      <point x="-10" y="917" type="line"/>
    </contour>
  </outline>
</glyph>
<glyph name="Ldot" format="1">
  <advance width="559"/>
  <unicode hex="013F"/>
  <outline>
    <contour>
      <point x="39" y="0" type="line"/>
      <point x="39" y="114" type="line"/>
      <point x="109" y="114" type="line"/>
      <point x="109" y="536" type="line"/>
      <point x="39" y="536" type="line"/>
      <point x="39" y="650" type="line"/>
      <point x="334" y="650" type="line"/>
      <point x="334" y="536" type="line"/>
      <point x="243" y="536" type="line"/>
      <point x="243" y="114" type="line"/>
      <point x="413" y="114" type="line"/>
      <point x="433" y="240" type="line"/>
      <point x="547" y="230" type="line"/>
      <point x="527" y="0" type="line"/>
    </contour>
    <contour>
      <point x="-10" y="-213" type="line"/>
      <point x="569" y="-213" type="line"/>
      <point x="569" y="917" type="line"/>
      <point x="-10" y="917" type="line"/>
    </contour>
    <contour>
      <point x="312" y="415" type="line"/>
      <point x="441" y="415" type="line"/>
      <point x="441" y="281" type="line"/>
      <point x="312" y="281" type="line"/>
    </contour>
  </outline>
</glyph>
<glyph name="Lslash" format="1">
  <advance width="559"/>
  <unicode hex="0141"/>
  <outline>
    <contour>
      <point x="-10" y="-213" type="line"/>
      <point x="569" y="-213" type="line"/>
      <point x="569" y="917" type="line"/>
      <point x="-10" y="917" type="line"/>
    </contour>
    <contour>
      <point x="39" y="0" type="line"/>
      <point x="39" y="114" type="line"/>
      <point x="109" y="114" type="line"/>
      <point x="109" y="256" type="line"/>
      <point x="42" y="235" type="line"/>
      <point x="42" y="335" type="line"/>
      <point x="109" y="356" type="line"/>
      <point x="109" y="536" type="line"/>
      <point x="39" y="536" type="line"/>
      <point x="39" y="650" type="line"/>
      <point x="334" y="650" type="line"/>
      <point x="334" y="536" type="line"/>
      <point x="243" y="536" type="line"/>
      <point x="243" y="398" type="line"/>
      <point x="392" y="445" type="line"/>
      <point x="392" y="345" type="line"/>
      <point x="243" y="298" type="line"/>
      <point x="243" y="114" type="line"/>
      <point x="413" y="114" type="line"/>
      <point x="433" y="240" type="line"/>
      <point x="547" y="230" type="line"/>
      <point x="527" y="0" type="line"/>
    </contour>
  </outline>
</glyph>
<glyph name="lslash" format="1">
  <advance width="285"/>
  <unicode hex="0142"/>
  <outline>
    <contour>
      <point x="-10" y="-213" type="line"/>
      <point x="294" y="-213" type="line"/>
      <point x="294" y="917" type="line"/>
      <point x="-10" y="917" type="line"/>
    </contour>
    <contour>
      <point x="18" y="0" type="line"/>
      <point x="18" y="97" type="line"/>
      <point x="78" y="97" type="line"/>
      <point x="78" y="259" type="line"/>
      <point x="3" y="225" type="line"/>
      <point x="3" y="325" type="line"/>
      <point x="78" y="359" type="line"/>
      <point x="78" y="590" type="line"/>
      <point x="13" y="590" type="line"/>
      <point x="13" y="688" type="line"/>
      <point x="207" y="688" type="line"/>
      <point x="207" y="418" type="line"/>
      <point x="276" y="450" type="line"/>
      <point x="276" y="350" type="line"/>
      <point x="207" y="318" type="line"/>
      <point x="207" y="97" type="line"/>
      <point x="267" y="97" type="line"/>
      <point x="267" y="0" type="line"/>
    </contour>
  </outline>
</glyph>
<glyph name="Ncaron" format="1">
  <advance width="760"/>
  <unicode hex="0147"/>
  <outline>
    <contour>
      <point x="393" y="685" type="line"/>
      <point x="348" y="685" type="line"/>
      <point x="212" y="792" type="line"/>
      <point x="240" y="844" type="line"/>
      <point x="377" y="784" type="line"/>
      <point x="499" y="844" type="line"/>
      <point x="528" y="791" type="line"/>
    </contour>
    <contour>
      <point x="663" y="536" type="line"/>
      <point x="663" y="0" type="line"/>
      <point x="588" y="-1" type="line"/>
      <point x="239" y="412" type="line"/>
      <point x="235" y="412" type="line"/>
      <point x="235" y="114" type="line"/>
      <point x="325" y="114" type="line"/>
      <point x="325" y="0" type="line"/>
      <point x="40" y="0" type="line"/>
      <point x="40" y="114" type="line"/>
      <point x="110" y="114" type="line"/>
      <point x="110" y="536" type="line"/>
      <point x="29" y="536" type="line"/>
      <point x="29" y="650" type="line"/>
      <point x="206" y="650" type="line"/>
      <point x="534" y="264" type="line"/>
      <point x="538" y="264" type="line"/>
      <point x="538" y="536" type="line"/>
      <point x="444" y="536" type="line"/>
      <point x="444" y="650" type="line"/>
      <point x="733" y="650" type="line"/>
      <point x="733" y="536" type="line"/>
    </contour>
    <contour>
      <point x="-10" y="-213" type="line"/>
      <point x="770" y="-213" type="line"/>
      <point x="770" y="917" type="line"/>
      <point x="-10" y="917" type="line"/>
    </contour>
  </outline>
</glyph>
<glyph name="eng" format="1">
  <advance width="593"/>
  <unicode hex="014B"/>
  <outline>
    <contour>
      <point x="392" y="27" type="curve"/>
      <point x="392" y="254" type="line" smooth="yes"/>
      <point x="392" y="332"/>
      <point x="366" y="362"/>
      <point x="315" y="362" type="curve" smooth="yes"/>
      <point x="254" y="362"/>
      <point x="219" y="320"/>
      <point x="218" y="259" type="curve"/>
      <point x="218" y="98" type="line"/>
      <point x="278" y="98" type="line"/>
      <point x="278" y="0" type="line"/>
      <point x="29" y="0" type="line"/>
      <point x="29" y="98" type="line"/>
      <point x="89" y="98" type="line"/>
      <point x="89" y="353" type="line"/>
      <point x="24" y="353" type="line"/>
      <point x="24" y="451" type="line"/>
      <point x="218" y="451" type="line"/>
      <point x="218" y="382" type="line"/>
      <point x="246" y="431"/>
      <point x="297" y="460"/>
      <point x="363" y="460" type="curve" smooth="yes"/>
      <point x="448" y="460"/>
      <point x="521" y="411"/>
      <point x="521" y="304" type="curve" smooth="yes"/>
      <point x="521" y="14" type="line"/>
      <point x="518" y="-129"/>
      <point x="476" y="-209"/>
      <point x="346" y="-213" type="curve"/>
      <point x="603" y="-213" type="line"/>
      <point x="603" y="917" type="line"/>
      <point x="-10" y="917" type="line"/>
      <point x="-10" y="-213" type="line"/>
      <point x="296" y="-213" type="line"/>
      <point x="292" y="-126" type="line"/>
      <point x="347" y="-126"/>
      <point x="392" y="-117"/>
    </contour>
  </outline>
</glyph>
<glyph name="racute" format="1">
  <advance width="441"/>
  <unicode hex="0155"/>
  <outline>
    <contour>
      <point x="232" y="508" type="line"/>
      <point x="198" y="557" type="line"/>
      <point x="360" y="700" type="line"/>
      <point x="427" y="599" type="line"/>
    </contour>
    <contour>
      <point x="314" y="457" type="curve" smooth="yes"/>
      <point x="339" y="457"/>
      <point x="372" y="450"/>
      <point x="403" y="432" type="curve"/>
      <point x="423" y="274" type="line"/>
      <point x="325" y="263" type="line"/>
      <point x="308" y="340" type="line"/>
      <point x="295" y="348"/>
      <point x="285" y="352"/>
      <point x="273" y="352" type="curve" smooth="yes"/>
      <point x="244" y="352"/>
      <point x="218" y="329"/>
      <point x="218" y="285" type="curve" smooth="yes"/>
      <point x="218" y="97" type="line"/>
      <point x="298" y="97" type="line"/>
      <point x="298" y="0" type="line"/>
      <point x="29" y="0" type="line"/>
      <point x="29" y="97" type="line"/>
      <point x="89" y="97" type="line"/>
      <point x="89" y="353" type="line"/>
      <point x="24" y="353" type="line"/>
      <point x="24" y="451" type="line"/>
      <point x="208" y="451" type="line"/>
      <point x="208" y="365" type="line"/>
      <point x="223" y="417"/>
      <point x="253" y="457"/>
    </contour>
    <contour>
      <point x="-10" y="-213" type="line"/>
      <point x="450" y="-213" type="line"/>
      <point x="450" y="917" type="line"/>
      <point x="-10" y="917" type="line"/>
    </contour>
  </outline>
</glyph>
<glyph name="ubreve" format="1">
  <advance width="585"/>
  <unicode hex="016D"/>
  <outline>
    <contour>
      <point x="377" y="0" type="line"/>
      <point x="377" y="69" type="line"/>
      <point x="348" y="19"/>
      <point x="298" y="-9"/>
      <point x="232" y="-9" type="curve" smooth="yes"/>
      <point x="147" y="-9"/>
      <point x="74" y="40"/>
      <point x="74" y="147" type="curve" smooth="yes"/>
      <point x="74" y="354" type="line"/>
      <point x="14" y="354" type="line"/>
      <point x="14" y="451" type="line"/>
      <point x="203" y="451" type="line"/>
      <point x="203" y="197" type="line" smooth="yes"/>
      <point x="203" y="119"/>
      <point x="229" y="89"/>
      <point x="280" y="89" type="curve" smooth="yes"/>
      <point x="342" y="89"/>
      <point x="377" y="133"/>
      <point x="377" y="196" type="curve" smooth="yes"/>
      <point x="377" y="354" type="line"/>
      <point x="304" y="354" type="line"/>
      <point x="304" y="451" type="line"/>
      <point x="506" y="451" type="line"/>
      <point x="506" y="97" type="line"/>
      <point x="571" y="97" type="line"/>
      <point x="571" y="0" type="line"/>
    </contour>
    <contour>
      <point x="-10" y="-213" type="line"/>
      <point x="596" y="-213" type="line"/>
      <point x="596" y="917" type="line"/>
      <point x="-10" y="917" type="line"/>
    </contour>
    <contour>
      <point x="410" y="653" type="line"/>
      <point x="410" y="558"/>
      <point x="352" y="515"/>
      <point x="268" y="515" type="curve" smooth="yes"/>
      <point x="181" y="515"/>
      <point x="131" y="561"/>
      <point x="131" y="653" type="curve"/>
      <point x="233" y="653" type="line"/>
      <point x="233" y="617"/>
      <point x="244" y="592"/>
      <point x="270" y="592" type="curve" smooth="yes"/>
      <point x="298" y="592"/>
      <point x="308" y="621"/>
      <point x="308" y="653" type="curve"/>
    </contour>
  </outline>
</glyph>
<glyph name="Uring" format="1">
  <advance width="719"/>
  <unicode hex="016E"/>
  <outline>
    <contour>
      <point x="634" y="536" type="line"/>
      <point x="634" y="269" type="line" smooth="yes"/>
      <point x="634" y="131"/>
      <point x="564" y="-10"/>
      <point x="356" y="-10" type="curve" smooth="yes"/>
      <point x="158" y="-10"/>
      <point x="86" y="118"/>
      <point x="86" y="258" type="curve" smooth="yes"/>
      <point x="86" y="536" type="line"/>
      <point x="28" y="536" type="line"/>
      <point x="28" y="650" type="line"/>
      <point x="296" y="650" type="line"/>
      <point x="296" y="536" type="line"/>
      <point x="220" y="536" type="line"/>
      <point x="220" y="262" type="line" smooth="yes"/>
      <point x="220" y="173"/>
      <point x="259" y="108"/>
      <point x="363" y="108" type="curve" smooth="yes"/>
      <point x="465" y="108"/>
      <point x="509" y="172"/>
      <point x="509" y="269" type="curve" smooth="yes"/>
      <point x="509" y="536" type="line"/>
      <point x="433" y="536" type="line"/>
      <point x="433" y="650" type="line"/>
      <point x="692" y="650" type="line"/>
      <point x="692" y="536" type="line"/>
    </contour>
    <contour>
      <point x="-10" y="-213" type="line"/>
      <point x="729" y="-213" type="line"/>
      <point x="729" y="917" type="line"/>
      <point x="-10" y="917" type="line"/>
    </contour>
    <contour>
      <point x="469" y="783" type="curve" smooth="yes"/>
      <point x="469" y="728"/>
      <point x="436" y="689"/>
      <point x="363" y="689" type="curve" smooth="yes"/>
      <point x="293" y="689"/>
      <point x="260" y="725"/>
      <point x="260" y="780" type="curve" smooth="yes"/>
      <point x="260" y="836"/>
      <point x="294" y="873"/>
      <point x="366" y="873" type="curve" smooth="yes"/>
      <point x="439" y="873"/>
      <point x="469" y="835"/>
    </contour>
    <contour>
      <point x="389" y="785" type="curve" smooth="yes"/>
      <point x="389" y="798"/>
      <point x="388" y="813"/>
      <point x="365" y="813" type="curve" smooth="yes"/>
      <point x="343" y="813"/>
      <point x="340" y="800"/>
      <point x="340" y="780" type="curve" smooth="yes"/>
      <point x="340" y="760"/>
      <point x="343" y="749"/>
      <point x="364" y="749" type="curve" smooth="yes"/>
      <point x="386" y="749"/>
      <point x="389" y="762"/>
    </contour>
  </outline>
</glyph>
<glyph name="uring" format="1">
  <advance width="585"/>
  <unicode hex="016F"/>
  <outline>
    <contour>
      <point x="381" y="608" type="curve" smooth="yes"/>
      <point x="381" y="553"/>
      <point x="348" y="514"/>
      <point x="275" y="514" type="curve" smooth="yes"/>
      <point x="205" y="514"/>
      <point x="172" y="550"/>
      <point x="172" y="605" type="curve" smooth="yes"/>
      <point x="172" y="661"/>
      <point x="206" y="698"/>
      <point x="278" y="698" type="curve" smooth="yes"/>
      <point x="351" y="698"/>
      <point x="381" y="660"/>
    </contour>
    <contour>
      <point x="301" y="610" type="curve" smooth="yes"/>
      <point x="301" y="623"/>
      <point x="300" y="638"/>
      <point x="277" y="638" type="curve" smooth="yes"/>
      <point x="255" y="638"/>
      <point x="252" y="625"/>
      <point x="252" y="605" type="curve" smooth="yes"/>
      <point x="252" y="585"/>
      <point x="255" y="574"/>
      <point x="276" y="574" type="curve"/>
      <point x="298" y="574"/>
      <point x="301" y="587"/>
    </contour>
    <contour>
      <point x="377" y="0" type="line"/>
      <point x="377" y="69" type="line"/>
      <point x="348" y="19"/>
      <point x="298" y="-9"/>
      <point x="232" y="-9" type="curve" smooth="yes"/>
      <point x="147" y="-9"/>
      <point x="74" y="40"/>
      <point x="74" y="147" type="curve" smooth="yes"/>
      <point x="74" y="354" type="line"/>
      <point x="14" y="354" type="line"/>
      <point x="14" y="451" type="line"/>
      <point x="203" y="451" type="line"/>
      <point x="203" y="197" type="line" smooth="yes"/>
      <point x="203" y="119"/>
      <point x="229" y="89"/>
      <point x="280" y="89" type="curve" smooth="yes"/>
      <point x="342" y="89"/>
      <point x="377" y="133"/>
      <point x="377" y="196" type="curve" smooth="yes"/>
      <point x="377" y="354" type="line"/>
      <point x="304" y="354" type="line"/>
      <point x="304" y="451" type="line"/>
      <point x="506" y="451" type="line"/>
      <point x="506" y="97" type="line"/>
      <point x="571" y="97" type="line"/>
      <point x="571" y="0" type="line"/>
    </contour>
    <contour>
      <point x="-10" y="-213" type="line"/>
      <point x="596" y="-213" type="line"/>
      <point x="596" y="917" type="line"/>
      <point x="-10" y="917" type="line"/>
    </contour>
  </outline>
</glyph>
<glyph name="Uogonek" format="1">
  <advance width="719"/>
  <unicode hex="0172"/>
  <outline>
    <contour>
      <point x="-10" y="-213" type="line"/>
      <point x="729" y="-213" type="line"/>
      <point x="729" y="917" type="line"/>
      <point x="-10" y="917" type="line"/>
    </contour>
    <contour>
      <point x="634" y="536" type="line"/>
      <point x="634" y="269" type="line" smooth="yes"/>
      <point x="634" y="151"/>
      <point x="582" y="30"/>
      <point x="437" y="-1" type="curve"/>
      <point x="403" y="-26"/>
      <point x="396" y="-53"/>
      <point x="396" y="-74" type="curve" smooth="yes"/>
      <point x="396" y="-109"/>
      <point x="415" y="-118"/>
      <point x="439" y="-118" type="curve" smooth="yes"/>
      <point x="454" y="-118"/>
      <point x="472" y="-114"/>
      <point x="485" y="-106" type="curve"/>
      <point x="494" y="-188" type="line"/>
      <point x="471" y="-199"/>
      <point x="442" y="-208"/>
      <point x="404" y="-208" type="curve" smooth="yes"/>
      <point x="339" y="-208"/>
      <point x="286" y="-181"/>
      <point x="286" y="-117" type="curve" smooth="yes"/>
      <point x="286" y="-72"/>
      <point x="310" y="-35"/>
      <point x="344" y="-10" type="curve"/>
      <point x="155" y="-5"/>
      <point x="86" y="121"/>
      <point x="86" y="258" type="curve" smooth="yes"/>
      <point x="86" y="536" type="line"/>
      <point x="28" y="536" type="line"/>
      <point x="28" y="650" type="line"/>
      <point x="296" y="650" type="line"/>
      <point x="296" y="536" type="line"/>
      <point x="220" y="536" type="line"/>
      <point x="220" y="262" type="line" smooth="yes"/>
      <point x="220" y="173"/>
      <point x="259" y="108"/>
      <point x="363" y="108" type="curve" smooth="yes"/>
      <point x="465" y="108"/>
      <point x="509" y="172"/>
      <point x="509" y="269" type="curve" smooth="yes"/>
      <point x="509" y="536" type="line"/>
      <point x="433" y="536" type="line"/>
      <point x="433" y="650" type="line"/>
      <point x="692" y="650" type="line"/>
      <point x="692" y="536" type="line"/>
    </contour>
  </outline>
</glyph>
<glyph name="Wcircumflex" format="1">
  <advance width="953"/>
  <unicode hex="0174"/>
  <outline>
    <contour>
      <point x="249" y="536" type="line"/>
      <point x="189" y="536" type="line"/>
      <point x="286" y="222" type="line"/>
      <point x="292" y="222" type="line"/>
      <point x="408" y="536" type="line"/>
      <point x="357" y="536" type="line"/>
      <point x="357" y="650" type="line"/>
      <point x="616" y="650" type="line"/>
      <point x="616" y="536" type="line"/>
      <point x="570" y="536" type="line"/>
      <point x="685" y="216" type="line"/>
      <point x="691" y="216" type="line"/>
      <point x="777" y="536" type="line"/>
      <point x="707" y="536" type="line"/>
      <point x="707" y="650" type="line"/>
      <point x="963" y="650" type="line"/>
      <point x="963" y="917" type="line"/>
      <point x="-10" y="917" type="line"/>
      <point x="-10" y="650" type="line"/>
      <point x="249" y="650" type="line"/>
    </contour>
    <contour>
      <point x="963" y="-213" type="line"/>
      <point x="963" y="536" type="line"/>
      <point x="911" y="536" type="line"/>
      <point x="732" y="0" type="line"/>
      <point x="637" y="0" type="line"/>
      <point x="484" y="420" type="line"/>
      <point x="479" y="420" type="line"/>
      <point x="333" y="0" type="line"/>
      <point x="236" y="0" type="line"/>
      <point x="46" y="536" type="line"/>
      <point x="-10" y="536" type="line"/>
      <point x="-10" y="-213" type="line"/>
    </contour>
    <contour>
      <point x="636" y="685" type="line"/>
      <point x="501" y="745" type="line"/>
      <point x="377" y="685" type="line"/>
      <point x="348" y="738" type="line"/>
      <point x="483" y="844" type="line"/>
      <point x="528" y="844" type="line"/>
      <point x="664" y="737" type="line"/>
    </contour>
  </outline>
</glyph>
<glyph name="Ycircumflex" format="1">
  <advance width="612"/>
  <unicode hex="0176"/>
  <outline>
    <contour>
      <point x="259" y="536" type="line"/>
      <point x="205" y="536" type="line"/>
      <point x="314" y="372" type="line"/>
      <point x="320" y="372" type="line"/>
      <point x="428" y="536" type="line"/>
      <point x="366" y="536" type="line"/>
      <point x="366" y="650" type="line"/>
      <point x="622" y="650" type="line"/>
      <point x="622" y="917" type="line"/>
      <point x="-10" y="917" type="line"/>
      <point x="-10" y="650" type="line"/>
      <point x="259" y="650" type="line"/>
    </contour>
    <contour>
      <point x="622" y="-213" type="line"/>
      <point x="622" y="536" type="line"/>
      <point x="566" y="536" type="line"/>
      <point x="377" y="254" type="line"/>
      <point x="377" y="114" type="line"/>
      <point x="483" y="114" type="line"/>
      <point x="483" y="0" type="line"/>
      <point x="143" y="0" type="line"/>
      <point x="143" y="114" type="line"/>
      <point x="243" y="114" type="line"/>
      <point x="243" y="255" type="line"/>
      <point x="48" y="536" type="line"/>
      <point x="-10" y="536" type="line"/>
      <point x="-10" y="-213" type="line"/>
    </contour>
    <contour>
      <point x="459" y="685" type="line"/>
      <point x="324" y="745" type="line"/>
      <point x="200" y="685" type="line"/>
      <point x="171" y="738" type="line"/>
      <point x="306" y="844" type="line"/>
      <point x="351" y="844" type="line"/>
      <point x="487" y="737" type="line"/>
    </contour>
  </outline>
</glyph>
<glyph name="ycircumflex" format="1">
  <advance width="530"/>
  <unicode hex="0177"/>
  <outline>
    <contour>
      <point x="-10" y="-213" type="line"/>
      <point x="101" y="-213" type="line"/>
      <point x="101" y="-113" type="line"/>
      <point x="173" y="-113" type="line"/>
      <point x="209" y="-7" type="line"/>
      <point x="51" y="354" type="line"/>
      <point x="5" y="354" type="line"/>
      <point x="5" y="451" type="line"/>
      <point x="235" y="451" type="line"/>
      <point x="235" y="354" type="line"/>
      <point x="190" y="354" type="line"/>
      <point x="282" y="146" type="line"/>
      <point x="288" y="146" type="line"/>
      <point x="356" y="354" type="line"/>
      <point x="317" y="354" type="line"/>
      <point x="317" y="451" type="line"/>
      <point x="523" y="451" type="line"/>
      <point x="523" y="354" type="line"/>
      <point x="479" y="354" type="line"/>
      <point x="334" y="0" type="line"/>
      <point x="291" y="-113" type="line"/>
      <point x="350" y="-113" type="line"/>
      <point x="350" y="-213" type="line"/>
      <point x="540" y="-213" type="line"/>
      <point x="540" y="917" type="line"/>
      <point x="-10" y="917" type="line"/>
    </contour>
    <contour>
      <point x="404" y="508" type="line"/>
      <point x="269" y="575" type="line"/>
      <point x="157" y="507" type="line"/>
      <point x="122" y="558" type="line"/>
      <point x="257" y="684" type="line"/>
      <point x="302" y="684" type="line"/>
      <point x="438" y="557" type="line"/>
    </contour>
  </outline>
</glyph>
<glyph name="Ydieresis" format="1">
  <advance width="612"/>
  <unicode hex="0178"/>
  <outline>
    <contour>
      <point x="259" y="536" type="line"/>
      <point x="205" y="536" type="line"/>
      <point x="314" y="372" type="line"/>
      <point x="320" y="372" type="line"/>
      <point x="428" y="536" type="line"/>
      <point x="366" y="536" type="line"/>
      <point x="366" y="650" type="line"/>
      <point x="622" y="650" type="line"/>
      <point x="622" y="917" type="line"/>
      <point x="-10" y="917" type="line"/>
      <point x="-10" y="650" type="line"/>
      <point x="259" y="650" type="line"/>
    </contour>
    <contour>
      <point x="622" y="-213" type="line"/>
      <point x="622" y="536" type="line"/>
      <point x="566" y="536" type="line"/>
      <point x="377" y="254" type="line"/>
      <point x="377" y="114" type="line"/>
      <point x="483" y="114" type="line"/>
      <point x="483" y="0" type="line"/>
      <point x="143" y="0" type="line"/>
      <point x="143" y="114" type="line"/>
      <point x="243" y="114" type="line"/>
      <point x="243" y="255" type="line"/>
      <point x="48" y="536" type="line"/>
      <point x="-10" y="536" type="line"/>
      <point x="-10" y="-213" type="line"/>
    </contour>
    <contour>
      <point x="169" y="839" type="line"/>
      <point x="298" y="839" type="line"/>
      <point x="298" y="705" type="line"/>
      <point x="169" y="705" type="line"/>
    </contour>
    <contour>
      <point x="354" y="839" type="line"/>
      <point x="483" y="839" type="line"/>
      <point x="483" y="705" type="line"/>
      <point x="354" y="705" type="line"/>
    </contour>
  </outline>
</glyph>
<glyph name="florin" format="1">
  <advance width="365"/>
  <unicode hex="0192"/>
  <outline>
    <contour>
      <point x="32" y="214" type="line"/>
      <point x="93" y="214" type="line"/>
      <point x="83" y="44" type="line" smooth="yes"/>
      <point x="79" y="-25"/>
      <point x="64" y="-28"/>
      <point x="34" y="-28" type="curve" smooth="yes"/>
      <point x="22" y="-28"/>
      <point x="20" y="-28"/>
      <point x="0" y="-24" type="curve"/>
      <point x="0" y="-108" type="line"/>
      <point x="22" y="-111"/>
      <point x="32" y="-112"/>
      <point x="45" y="-112" type="curve" smooth="yes"/>
      <point x="167" y="-112"/>
      <point x="206" y="-45"/>
      <point x="210" y="18" type="curve" smooth="yes"/>
      <point x="221" y="214" type="line"/>
      <point x="322" y="214" type="line"/>
      <point x="322" y="289" type="line"/>
      <point x="225" y="289" type="line"/>
      <point x="230" y="379" type="line" smooth="yes"/>
      <point x="232" y="417"/>
      <point x="231" y="445"/>
      <point x="285" y="445" type="curve" smooth="yes"/>
      <point x="301" y="445"/>
      <point x="323" y="442"/>
      <point x="348" y="439" type="curve"/>
      <point x="348" y="525" type="line"/>
      <point x="327" y="528"/>
      <point x="298" y="529"/>
      <point x="282" y="529" type="curve" smooth="yes"/>
      <point x="185" y="529"/>
      <point x="109" y="478"/>
      <point x="103" y="381" type="curve" smooth="yes"/>
      <point x="97" y="289" type="line"/>
      <point x="32" y="289" type="line"/>
    </contour>
    <contour>
      <point x="-10" y="917" type="line"/>
      <point x="375" y="917" type="line"/>
      <point x="375" y="-213" type="line"/>
      <point x="-10" y="-213" type="line"/>
    </contour>
  </outline>
</glyph>
<glyph name="uni01C4" format="1">
  <advance width="1287"/>
  <unicode hex="01C4"/>
  <outline>
    <contour>
      <point x="673" y="328" type="curve" smooth="yes"/>
      <point x="673" y="130"/>
      <point x="550" y="0"/>
      <point x="345" y="0" type="curve" smooth="yes"/>
      <point x="39" y="0" type="line"/>
      <point x="39" y="114" type="line"/>
      <point x="109" y="114" type="line"/>
      <point x="109" y="536" type="line"/>
      <point x="39" y="536" type="line"/>
      <point x="39" y="650" type="line"/>
      <point x="337" y="650" type="line" smooth="yes"/>
      <point x="560" y="650"/>
      <point x="673" y="520"/>
    </contour>
    <contour>
      <point x="529" y="326" type="curve" smooth="yes"/>
      <point x="529" y="469"/>
      <point x="461" y="536"/>
      <point x="334" y="536" type="curve" smooth="yes"/>
      <point x="243" y="536" type="line"/>
      <point x="243" y="114" type="line"/>
      <point x="334" y="114" type="line" smooth="yes"/>
      <point x="459" y="114"/>
      <point x="529" y="177"/>
    </contour>
    <contour>
      <point x="1021" y="685" type="line"/>
      <point x="976" y="685" type="line"/>
      <point x="840" y="792" type="line"/>
      <point x="868" y="844" type="line"/>
      <point x="1005" y="784" type="line"/>
      <point x="1127" y="844" type="line"/>
      <point x="1156" y="791" type="line"/>
    </contour>
    <contour>
      <point x="722" y="0" type="line"/>
      <point x="719" y="69" type="line"/>
      <point x="1049" y="535" type="line"/>
      <point x="1049" y="536" type="line"/>
      <point x="873" y="536" type="line"/>
      <point x="853" y="435" type="line"/>
      <point x="739" y="445" type="line"/>
      <point x="759" y="650" type="line"/>
      <point x="1245" y="650" type="line"/>
      <point x="1247" y="589" type="line"/>
      <point x="912" y="116" type="line"/>
      <point x="912" y="114" type="line"/>
      <point x="1134" y="114" type="line"/>
      <point x="1154" y="234" type="line"/>
      <point x="1268" y="224" type="line"/>
      <point x="1248" y="0" type="line"/>
    </contour>
    <contour>
      <point x="-10" y="-213" type="line"/>
      <point x="1297" y="-213" type="line"/>
      <point x="1297" y="917" type="line"/>
      <point x="-10" y="917" type="line"/>
    </contour>
  </outline>
</glyph>
<glyph name="uni01CA" format="1">
  <advance width="1232"/>
  <unicode hex="01CA"/>
  <outline>
    <contour>
      <point x="663" y="536" type="line"/>
      <point x="663" y="0" type="line"/>
      <point x="588" y="-1" type="line"/>
      <point x="239" y="412" type="line"/>
      <point x="235" y="412" type="line"/>
      <point x="235" y="114" type="line"/>
      <point x="325" y="114" type="line"/>
      <point x="325" y="0" type="line"/>
      <point x="40" y="0" type="line"/>
      <point x="40" y="114" type="line"/>
      <point x="110" y="114" type="line"/>
      <point x="110" y="536" type="line"/>
      <point x="29" y="536" type="line"/>
      <point x="29" y="650" type="line"/>
      <point x="206" y="650" type="line"/>
      <point x="534" y="264" type="line"/>
      <point x="538" y="264" type="line"/>
      <point x="538" y="536" type="line"/>
      <point x="444" y="536" type="line"/>
      <point x="444" y="650" type="line"/>
      <point x="733" y="650" type="line"/>
      <point x="733" y="536" type="line"/>
    </contour>
    <contour>
      <point x="1144" y="536" type="line"/>
      <point x="1144" y="185" type="line" smooth="yes"/>
      <point x="1144" y="54"/>
      <point x="1065" y="-10"/>
      <point x="947" y="-10" type="curve" smooth="yes"/>
      <point x="836" y="-10"/>
      <point x="780" y="47"/>
      <point x="752" y="113" type="curve"/>
      <point x="846" y="184" type="line"/>
      <point x="869" y="125"/>
      <point x="902" y="114"/>
      <point x="934" y="114" type="curve" smooth="yes"/>
      <point x="988" y="114"/>
      <point x="1010" y="144"/>
      <point x="1010" y="184" type="curve" smooth="yes"/>
      <point x="1010" y="536" type="line"/>
      <point x="896" y="536" type="line"/>
      <point x="896" y="650" type="line"/>
      <point x="1204" y="650" type="line"/>
      <point x="1204" y="536" type="line"/>
    </contour>
    <contour>
      <point x="-10" y="-213" type="line"/>
      <point x="1242" y="-213" type="line"/>
      <point x="1242" y="917" type="line"/>
      <point x="-10" y="917" type="line"/>
    </contour>
  </outline>
</glyph>
<glyph name="aemacron" format="1">
  <advance width="773"/>
  <unicode hex="01E3"/>
  <outline>
    <contour>
      <point x="256" y="536" type="line"/>
      <point x="256" y="634" type="line"/>
      <point x="524" y="634" type="line"/>
      <point x="524" y="536" type="line"/>
    </contour>
    <contour>
      <point x="753" y="142" type="line"/>
      <point x="747" y="62"/>
      <point x="673" y="-10"/>
      <point x="543" y="-10" type="curve" smooth="yes"/>
      <point x="459" y="-10"/>
      <point x="389" y="20"/>
      <point x="349" y="80" type="curve"/>
      <point x="317" y="33"/>
      <point x="261" y="-10"/>
      <point x="177" y="-10" type="curve" smooth="yes"/>
      <point x="101" y="-10"/>
      <point x="22" y="25"/>
      <point x="22" y="119" type="curve" smooth="yes"/>
      <point x="22" y="230"/>
      <point x="134" y="256"/>
      <point x="237" y="256" type="curve" smooth="yes"/>
      <point x="262" y="256"/>
      <point x="288" y="254"/>
      <point x="311" y="252" type="curve"/>
      <point x="311" y="267" type="line" smooth="yes"/>
      <point x="311" y="313"/>
      <point x="310" y="368"/>
      <point x="237" y="368" type="curve" smooth="yes"/>
      <point x="210" y="368"/>
      <point x="189" y="366"/>
      <point x="168" y="355" type="curve"/>
      <point x="151" y="291" type="line"/>
      <point x="48" y="302" type="line"/>
      <point x="68" y="419" type="line"/>
      <point x="147" y="451"/>
      <point x="187" y="460"/>
      <point x="261" y="460" type="curve" smooth="yes"/>
      <point x="314" y="460"/>
      <point x="362" y="444"/>
      <point x="395" y="414" type="curve"/>
      <point x="432" y="443"/>
      <point x="479" y="460"/>
      <point x="537" y="460" type="curve" smooth="yes"/>
      <point x="663" y="460"/>
      <point x="748" y="379"/>
      <point x="749" y="262" type="curve" smooth="yes"/>
      <point x="749" y="242"/>
      <point x="747" y="221"/>
      <point x="742" y="199" type="curve"/>
      <point x="451" y="199" type="line"/>
      <point x="458" y="129"/>
      <point x="488" y="97"/>
      <point x="553" y="97" type="curve" smooth="yes"/>
      <point x="622" y="97"/>
      <point x="640" y="135"/>
      <point x="645" y="162" type="curve"/>
    </contour>
    <contour>
      <point x="615" y="267" type="curve"/>
      <point x="452" y="267" type="line"/>
      <point x="458" y="327"/>
      <point x="482" y="363"/>
      <point x="537" y="363" type="curve" smooth="yes"/>
      <point x="601" y="363"/>
      <point x="625" y="315"/>
    </contour>
    <contour>
      <point x="160" y="134" type="curve" smooth="yes"/>
      <point x="160" y="183"/>
      <point x="200" y="196"/>
      <point x="246" y="196" type="curve" smooth="yes"/>
      <point x="267" y="196"/>
      <point x="290" y="193"/>
      <point x="311" y="190" type="curve"/>
      <point x="311" y="187" type="line"/>
      <point x="311" y="115"/>
      <point x="258" y="82"/>
      <point x="213" y="82" type="curve" smooth="yes"/>
      <point x="174" y="82"/>
      <point x="160" y="105"/>
    </contour>
    <contour>
      <point x="-10" y="-213" type="line"/>
      <point x="783" y="-213" type="line"/>
      <point x="783" y="917" type="line"/>
      <point x="-10" y="917" type="line"/>
    </contour>
  </outline>
</glyph>
<glyph name="uni01F1" format="1">
  <advance width="1282"/>
  <unicode hex="01F1"/>
  <outline>
    <contour>
      <point x="673" y="328" type="curve" smooth="yes"/>
      <point x="673" y="130"/>
      <point x="550" y="0"/>
      <point x="345" y="0" type="curve" smooth="yes"/>
      <point x="39" y="0" type="line"/>
      <point x="39" y="114" type="line"/>
      <point x="109" y="114" type="line"/>
      <point x="109" y="536" type="line"/>
      <point x="39" y="536" type="line"/>
      <point x="39" y="650" type="line"/>
      <point x="337" y="650" type="line" smooth="yes"/>
      <point x="560" y="650"/>
      <point x="673" y="520"/>
    </contour>
    <contour>
      <point x="529" y="326" type="curve" smooth="yes"/>
      <point x="529" y="469"/>
      <point x="461" y="536"/>
      <point x="334" y="536" type="curve" smooth="yes"/>
      <point x="243" y="536" type="line"/>
      <point x="243" y="114" type="line"/>
      <point x="334" y="114" type="line" smooth="yes"/>
      <point x="459" y="114"/>
      <point x="529" y="177"/>
    </contour>
    <contour>
      <point x="717" y="0" type="line"/>
      <point x="714" y="69" type="line"/>
      <point x="1044" y="535" type="line"/>
      <point x="1044" y="536" type="line"/>
      <point x="868" y="536" type="line"/>
      <point x="848" y="435" type="line"/>
      <point x="734" y="445" type="line"/>
      <point x="754" y="650" type="line"/>
      <point x="1240" y="650" type="line"/>
      <point x="1242" y="589" type="line"/>
      <point x="907" y="116" type="line"/>
      <point x="907" y="114" type="line"/>
      <point x="1129" y="114" type="line"/>
      <point x="1149" y="234" type="line"/>
      <point x="1263" y="224" type="line"/>
      <point x="1243" y="0" type="line"/>
    </contour>
    <contour>
      <point x="-10" y="-213" type="line"/>
      <point x="1292" y="-213" type="line"/>
      <point x="1292" y="917" type="line"/>
      <point x="-10" y="917" type="line"/>
    </contour>
  </outline>
</glyph>
<glyph name="breve" format="1">
  <advance width="399"/>
  <unicode hex="02D8"/>
  <outline>
    <contour>
      <point x="337" y="653" type="line"/>
      <point x="337" y="558"/>
      <point x="279" y="515"/>
      <point x="195" y="515" type="curve" smooth="yes"/>
      <point x="108" y="515"/>
      <point x="58" y="561"/>
      <point x="58" y="653" type="curve"/>
      <point x="160" y="653" type="line"/>
      <point x="160" y="617"/>
      <point x="171" y="592"/>
      <point x="197" y="592" type="curve" smooth="yes"/>
      <point x="225" y="592"/>
      <point x="235" y="621"/>
      <point x="235" y="653" type="curve"/>
    </contour>
  </outline>
</glyph>
<glyph name="dotaccent" format="1">
  <advance width="229"/>
  <unicode hex="02D9"/>
  <outline>
    <contour>
      <point x="40" y="665" type="line"/>
      <point x="169" y="665" type="line"/>
      <point x="169" y="531" type="line"/>
      <point x="40" y="531" type="line"/>
    </contour>
  </outline>
</glyph>
<glyph name="ring" format="1">
  <advance width="260"/>
  <unicode hex="02DA"/>
  <outline>
    <contour>
      <point x="235" y="608" type="curve" smooth="yes"/>
      <point x="235" y="553"/>
      <point x="202" y="514"/>
      <point x="129" y="514" type="curve" smooth="yes"/>
      <point x="59" y="514"/>
      <point x="26" y="550"/>
      <point x="26" y="605" type="curve" smooth="yes"/>
      <point x="26" y="661"/>
      <point x="60" y="698"/>
      <point x="132" y="698" type="curve" smooth="yes"/>
      <point x="205" y="698"/>
      <point x="235" y="660"/>
    </contour>
    <contour>
      <point x="155" y="610" type="curve" smooth="yes"/>
      <point x="155" y="623"/>
      <point x="154" y="638"/>
      <point x="131" y="638" type="curve" smooth="yes"/>
      <point x="109" y="638"/>
      <point x="106" y="625"/>
      <point x="106" y="605" type="curve" smooth="yes"/>
      <point x="106" y="585"/>
      <point x="109" y="574"/>
      <point x="130" y="574" type="curve"/>
      <point x="152" y="574"/>
      <point x="155" y="587"/>
    </contour>
  </outline>
</glyph>
<glyph name="uni0394" format="1">
  <advance width="533"/>
  <unicode hex="0394"/>
  <outline>
    <contour>
      <point x="21" y="0" type="line"/>
      <point x="512" y="0" type="line"/>
      <point x="272" y="661" type="line"/>
    </contour>
    <contour>
      <point x="164" y="98" type="line"/>
      <point x="269" y="394" type="line"/>
      <point x="369" y="98" type="line"/>
    </contour>
    <contour>
      <point x="-10" y="917" type="line"/>
      <point x="543" y="917" type="line"/>
      <point x="543" y="-213" type="line"/>
      <point x="-10" y="-213" type="line"/>
    </contour>
  </outline>
</glyph>
<glyph name="Sigma" format="1">
  <advance width="555"/>
  <unicode hex="03A3"/>
  <outline>
    <contour>
      <point x="35" y="0" type="line"/>
      <point x="529" y="0" type="line"/>
      <point x="529" y="114" type="line"/>
      <point x="193" y="114" type="line"/>
      <point x="346" y="299" type="line"/>
      <point x="346" y="339" type="line"/>
      <point x="193" y="536" type="line"/>
      <point x="529" y="536" type="line"/>
      <point x="529" y="650" type="line"/>
      <point x="35" y="650" type="line"/>
      <point x="35" y="536" type="line"/>
      <point x="208" y="314" type="line"/>
      <point x="35" y="114" type="line"/>
    </contour>
    <contour>
      <point x="-10" y="917" type="line"/>
      <point x="565" y="917" type="line"/>
      <point x="565" y="-213" type="line"/>
      <point x="-10" y="-213" type="line"/>
    </contour>
  </outline>
</glyph>
<glyph name="pi" format="1">
  <advance width="599"/>
  <unicode hex="03C0"/>
  <outline>
    <contour>
      <point x="320" y="0" type="line"/>
      <point x="569" y="0" type="line"/>
      <point x="569" y="98" type="line"/>
      <point x="509" y="98" type="line"/>
      <point x="509" y="353" type="line"/>
      <point x="576" y="353" type="line"/>
      <point x="576" y="451" type="line"/>
      <point x="25" y="451" type="line"/>
      <point x="25" y="353" type="line"/>
      <point x="90" y="353" type="line"/>
      <point x="90" y="98" type="line"/>
      <point x="30" y="98" type="line"/>
      <point x="30" y="0" type="line"/>
      <point x="279" y="0" type="line"/>
      <point x="279" y="98" type="line"/>
      <point x="219" y="98" type="line"/>
      <point x="219" y="353" type="line"/>
      <point x="380" y="353" type="line"/>
      <point x="380" y="98" type="line"/>
      <point x="320" y="98" type="line"/>
    </contour>
    <contour>
      <point x="-10" y="917" type="line"/>
      <point x="609" y="917" type="line"/>
      <point x="609" y="-213" type="line"/>
      <point x="-10" y="-213" type="line"/>
    </contour>
  </outline>
</glyph>
<glyph name="Wdieresis" format="1">
  <advance width="953"/>
  <unicode hex="1E84"/>
  <outline>
    <contour>
      <point x="346" y="839" type="line"/>
      <point x="475" y="839" type="line"/>
      <point x="475" y="705" type="line"/>
      <point x="346" y="705" type="line"/>
    </contour>
    <contour>
      <point x="531" y="839" type="line"/>
      <point x="660" y="839" type="line"/>
      <point x="660" y="705" type="line"/>
      <point x="531" y="705" type="line"/>
    </contour>
    <contour>
      <point x="249" y="536" type="line"/>
      <point x="189" y="536" type="line"/>
      <point x="286" y="222" type="line"/>
      <point x="292" y="222" type="line"/>
      <point x="408" y="536" type="line"/>
      <point x="357" y="536" type="line"/>
      <point x="357" y="650" type="line"/>
      <point x="616" y="650" type="line"/>
      <point x="616" y="536" type="line"/>
      <point x="570" y="536" type="line"/>
      <point x="685" y="216" type="line"/>
      <point x="691" y="216" type="line"/>
      <point x="777" y="536" type="line"/>
      <point x="707" y="536" type="line"/>
      <point x="707" y="650" type="line"/>
      <point x="963" y="650" type="line"/>
      <point x="963" y="917" type="line"/>
      <point x="-10" y="917" type="line"/>
      <point x="-10" y="650" type="line"/>
      <point x="249" y="650" type="line"/>
    </contour>
    <contour>
      <point x="963" y="-213" type="line"/>
      <point x="963" y="536" type="line"/>
      <point x="911" y="536" type="line"/>
      <point x="732" y="0" type="line"/>
      <point x="637" y="0" type="line"/>
      <point x="484" y="420" type="line"/>
      <point x="479" y="420" type="line"/>
      <point x="333" y="0" type="line"/>
      <point x="236" y="0" type="line"/>
      <point x="46" y="536" type="line"/>
      <point x="-10" y="536" type="line"/>
      <point x="-10" y="-213" type="line"/>
    </contour>
  </outline>
</glyph>
<glyph name="uni1EBC" format="1">
  <advance width="594"/>
  <unicode hex="1EBC"/>
  <outline>
    <contour>
      <point x="478" y="820" type="line"/>
      <point x="478" y="762"/>
      <point x="462" y="700"/>
      <point x="393" y="700" type="curve" smooth="yes"/>
      <point x="344" y="700"/>
      <point x="313" y="731"/>
      <point x="267" y="731" type="curve" smooth="yes"/>
      <point x="245" y="731"/>
      <point x="232" y="724"/>
      <point x="225" y="698" type="curve"/>
      <point x="175" y="714" type="line"/>
      <point x="172" y="751"/>
      <point x="193" y="824"/>
      <point x="261" y="824" type="curve" smooth="yes"/>
      <point x="305" y="824"/>
      <point x="342" y="793"/>
      <point x="376" y="793" type="curve" smooth="yes"/>
      <point x="395" y="793"/>
      <point x="415" y="802"/>
      <point x="424" y="831" type="curve"/>
    </contour>
    <contour>
      <point x="39" y="0" type="line"/>
      <point x="39" y="114" type="line"/>
      <point x="109" y="114" type="line"/>
      <point x="109" y="536" type="line"/>
      <point x="39" y="536" type="line"/>
      <point x="39" y="650" type="line"/>
      <point x="535" y="650" type="line"/>
      <point x="555" y="460" type="line"/>
      <point x="441" y="450" type="line"/>
      <point x="421" y="536" type="line"/>
      <point x="243" y="536" type="line"/>
      <point x="243" y="383" type="line"/>
      <point x="517" y="383" type="line"/>
      <point x="517" y="270" type="line"/>
      <point x="243" y="270" type="line"/>
      <point x="243" y="114" type="line"/>
      <point x="427" y="114" type="line"/>
      <point x="447" y="200" type="line"/>
      <point x="561" y="190" type="line"/>
      <point x="541" y="0" type="line"/>
    </contour>
    <contour>
      <point x="-10" y="-213" type="line"/>
      <point x="604" y="-213" type="line"/>
      <point x="604" y="917" type="line"/>
      <point x="-10" y="917" type="line"/>
    </contour>
  </outline>
</glyph>
<glyph name="uni1EBD" format="1">
  <advance width="483"/>
  <unicode hex="1EBD"/>
  <outline>
    <contour>
      <point x="463" y="142" type="line"/>
      <point x="457" y="62"/>
      <point x="383" y="-10"/>
      <point x="253" y="-10" type="curve" smooth="yes"/>
      <point x="119" y="-10"/>
      <point x="21" y="66"/>
      <point x="21" y="217" type="curve" smooth="yes"/>
      <point x="21" y="356"/>
      <point x="104" y="460"/>
      <point x="247" y="460" type="curve" smooth="yes"/>
      <point x="372" y="460"/>
      <point x="457" y="381"/>
      <point x="459" y="264" type="curve" smooth="yes"/>
      <point x="459" y="244"/>
      <point x="457" y="222"/>
      <point x="452" y="199" type="curve"/>
      <point x="156" y="199" type="line"/>
      <point x="163" y="129"/>
      <point x="197" y="92"/>
      <point x="262" y="92" type="curve" smooth="yes"/>
      <point x="331" y="92"/>
      <point x="350" y="135"/>
      <point x="355" y="162" type="curve"/>
    </contour>
    <contour>
      <point x="326" y="274" type="line"/>
      <point x="332" y="319"/>
      <point x="308" y="368"/>
      <point x="247" y="368" type="curve" smooth="yes"/>
      <point x="194" y="368"/>
      <point x="165" y="330"/>
      <point x="157" y="274" type="curve"/>
    </contour>
    <contour>
      <point x="-10" y="-213" type="line"/>
      <point x="492" y="-213" type="line"/>
      <point x="492" y="917" type="line"/>
      <point x="-10" y="917" type="line"/>
    </contour>
    <contour>
      <point x="401" y="647" type="line"/>
      <point x="401" y="589"/>
      <point x="384" y="517"/>
      <point x="318" y="517" type="curve" smooth="yes"/>
      <point x="267" y="517"/>
      <point x="233" y="558"/>
      <point x="193" y="558" type="curve" smooth="yes"/>
      <point x="170" y="558"/>
      <point x="156" y="544"/>
      <point x="148" y="515" type="curve"/>
      <point x="98" y="531" type="line"/>
      <point x="95" y="569"/>
      <point x="117" y="655"/>
      <point x="183" y="655" type="curve" smooth="yes"/>
      <point x="228" y="655"/>
      <point x="266" y="617"/>
      <point x="300" y="617" type="curve" smooth="yes"/>
      <point x="319" y="617"/>
      <point x="338" y="629"/>
      <point x="347" y="658" type="curve"/>
    </contour>
  </outline>
</glyph>
<glyph name="Ygrave" format="1">
  <advance width="612"/>
  <unicode hex="1EF2"/>
  <outline>
    <contour>
      <point x="259" y="536" type="line"/>
      <point x="205" y="536" type="line"/>
      <point x="314" y="372" type="line"/>
      <point x="320" y="372" type="line"/>
      <point x="428" y="536" type="line"/>
      <point x="366" y="536" type="line"/>
      <point x="366" y="650" type="line"/>
      <point x="622" y="650" type="line"/>
      <point x="622" y="917" type="line"/>
      <point x="-10" y="917" type="line"/>
      <point x="-10" y="650" type="line"/>
      <point x="259" y="650" type="line"/>
    </contour>
    <contour>
      <point x="622" y="-213" type="line"/>
      <point x="622" y="536" type="line"/>
      <point x="566" y="536" type="line"/>
      <point x="377" y="254" type="line"/>
      <point x="377" y="114" type="line"/>
      <point x="483" y="114" type="line"/>
      <point x="483" y="0" type="line"/>
      <point x="143" y="0" type="line"/>
      <point x="143" y="114" type="line"/>
      <point x="243" y="114" type="line"/>
      <point x="243" y="255" type="line"/>
      <point x="48" y="536" type="line"/>
      <point x="-10" y="536" type="line"/>
      <point x="-10" y="-213" type="line"/>
    </contour>
    <contour>
      <point x="382" y="688" type="line"/>
      <point x="167" y="716" type="line"/>
      <point x="196" y="833" type="line"/>
      <point x="398" y="745" type="line"/>
    </contour>
  </outline>
</glyph>
<glyph name="uni2002" format="1">
  <advance width="593"/>
  <unicode hex="2002"/>
  <outline>
    <contour>
      <point x="-15" y="-213" type="line"/>
      <point x="611" y="-213" type="line"/>
      <point x="611" y="917" type="line"/>
      <point x="-15" y="917" type="line"/>
    </contour>
    <contour>
      <point x="310" y="566" type="move" name="top"/>
    </contour>
  </outline>
</glyph>
<glyph name="uni2003" format="1">
  <advance width="876"/>
  <unicode hex="2003"/>
  <outline>
    <contour>
      <point x="-10" y="-213" type="line"/>
      <point x="887" y="-213" type="line"/>
      <point x="887" y="917" type="line"/>
      <point x="-10" y="917" type="line"/>
    </contour>
    <contour>
      <point x="310" y="566" type="move" name="top"/>
    </contour>
  </outline>
</glyph>
<glyph name="uni2009" format="1">
  <advance width="160"/>
  <unicode hex="2009"/>
  <outline>
    <contour>
      <point x="-15" y="-213" type="line"/>
      <point x="178" y="-213" type="line"/>
      <point x="178" y="917" type="line"/>
      <point x="-15" y="917" type="line"/>
    </contour>
  </outline>
</glyph>
<glyph name="emdash" format="1">
  <advance width="1028"/>
  <unicode hex="2014"/>
  <outline>
    <contour>
      <point x="44" y="193" type="line"/>
      <point x="984" y="193" type="line"/>
      <point x="984" y="278" type="line"/>
      <point x="44" y="278" type="line"/>
    </contour>
    <contour>
      <point x="-12" y="917" type="line"/>
      <point x="1038" y="917" type="line"/>
      <point x="1038" y="-213" type="line"/>
      <point x="-12" y="-213" type="line"/>
    </contour>
  </outline>
</glyph>
<glyph name="quotedblleft" format="1">
  <advance width="398"/>
  <unicode hex="201C"/>
  <outline>
    <contour>
      <point x="159" y="435" type="line"/>
      <point x="33" y="435" type="line"/>
      <point x="93" y="669" type="line"/>
      <point x="219" y="669" type="line"/>
    </contour>
    <contour>
      <point x="335" y="435" type="line"/>
      <point x="209" y="435" type="line"/>
      <point x="269" y="669" type="line"/>
      <point x="395" y="669" type="line"/>
    </contour>
    <contour>
      <point x="408" y="917" type="line"/>
      <point x="-10" y="917" type="line"/>
      <point x="-10" y="-213" type="line"/>
      <point x="408" y="-213" type="line"/>
    </contour>
  </outline>
</glyph>
<glyph name="quotedblbase" format="1">
  <advance width="400"/>
  <unicode hex="201E"/>
  <outline>
    <contour>
      <point x="63" y="149" type="line"/>
      <point x="189" y="149" type="line"/>
      <point x="129" y="-85" type="line"/>
      <point x="3" y="-85" type="line"/>
    </contour>
    <contour>
      <point x="241" y="149" type="line"/>
      <point x="367" y="149" type="line"/>
      <point x="307" y="-85" type="line"/>
      <point x="181" y="-85" type="line"/>
    </contour>
    <contour>
      <point x="-10" y="-213" type="line"/>
      <point x="410" y="-213" type="line"/>
      <point x="410" y="917" type="line"/>
      <point x="-10" y="917" type="line"/>
    </contour>
  </outline>
</glyph>
<glyph name="dagger" format="1">
  <advance width="460"/>
  <unicode hex="2020"/>
  <outline>
    <contour>
      <point x="25" y="331" type="line"/>
      <point x="175" y="331" type="line"/>
      <point x="175" y="-141" type="line"/>
      <point x="285" y="-141" type="line"/>
      <point x="285" y="331" type="line"/>
      <point x="435" y="331" type="line"/>
      <point x="435" y="440" type="line"/>
      <point x="285" y="440" type="line"/>
      <point x="285" y="650" type="line"/>
      <point x="175" y="650" type="line"/>
      <point x="175" y="440" type="line"/>
      <point x="25" y="440" type="line"/>
    </contour>
    <contour>
      <point x="-10" y="917" type="line"/>
      <point x="471" y="917" type="line"/>
      <point x="471" y="-213" type="line"/>
      <point x="-10" y="-213" type="line"/>
    </contour>
  </outline>
</glyph>
<glyph name="bullet" format="1">
  <advance width="351"/>
  <unicode hex="2022"/>
  <outline>
    <contour>
      <point x="50" y="242" type="curve" smooth="yes"/>
      <point x="50" y="172"/>
      <point x="105" y="117"/>
      <point x="175" y="117" type="curve" smooth="yes"/>
      <point x="246" y="117"/>
      <point x="302" y="172"/>
      <point x="302" y="242" type="curve" smooth="yes"/>
      <point x="302" y="313"/>
      <point x="246" y="369"/>
      <point x="175" y="369" type="curve" smooth="yes"/>
      <point x="105" y="369"/>
      <point x="50" y="313"/>
    </contour>
    <contour>
      <point x="-10" y="917" type="line"/>
      <point x="361" y="917" type="line"/>
      <point x="361" y="-213" type="line"/>
      <point x="-10" y="-213" type="line"/>
    </contour>
  </outline>
</glyph>
<glyph name="eightsuperior" format="1">
  <advance width="351"/>
  <unicode hex="2078"/>
  <outline>
    <contour>
      <point x="171" y="409" type="curve" smooth="yes"/>
      <point x="260" y="409"/>
      <point x="326" y="445"/>
      <point x="326" y="516" type="curve" smooth="yes"/>
      <point x="326" y="568"/>
      <point x="290" y="597"/>
      <point x="251" y="618" type="curve"/>
      <point x="284" y="634"/>
      <point x="312" y="654"/>
      <point x="312" y="694" type="curve" smooth="yes"/>
      <point x="312" y="749"/>
      <point x="258" y="785"/>
      <point x="176" y="785" type="curve" smooth="yes"/>
      <point x="90" y="785"/>
      <point x="34" y="745"/>
      <point x="34" y="683" type="curve" smooth="yes"/>
      <point x="34" y="638"/>
      <point x="63" y="611"/>
      <point x="99" y="591" type="curve"/>
      <point x="60" y="574"/>
      <point x="27" y="553"/>
      <point x="27" y="505" type="curve" smooth="yes"/>
      <point x="27" y="442"/>
      <point x="86" y="409"/>
    </contour>
    <contour>
      <point x="143" y="690" type="curve" smooth="yes"/>
      <point x="143" y="702"/>
      <point x="151" y="714"/>
      <point x="176" y="714" type="curve" smooth="yes"/>
      <point x="190" y="714"/>
      <point x="211" y="710"/>
      <point x="211" y="679" type="curve" smooth="yes"/>
      <point x="211" y="664"/>
      <point x="206" y="652"/>
      <point x="198" y="643" type="curve"/>
      <point x="167" y="657"/>
      <point x="143" y="670"/>
    </contour>
    <contour>
      <point x="175" y="480" type="curve" smooth="yes"/>
      <point x="139" y="480"/>
      <point x="128" y="501"/>
      <point x="128" y="525" type="curve" smooth="yes"/>
      <point x="128" y="543"/>
      <point x="135" y="557"/>
      <point x="147" y="568" type="curve"/>
      <point x="184" y="551"/>
      <point x="217" y="536"/>
      <point x="217" y="509" type="curve" smooth="yes"/>
      <point x="217" y="496"/>
      <point x="207" y="480"/>
    </contour>
    <contour>
      <point x="-10" y="917" type="line"/>
      <point x="361" y="917" type="line"/>
      <point x="361" y="-213" type="line"/>
      <point x="-10" y="-213" type="line"/>
    </contour>
  </outline>
</glyph>
<glyph name="equalsuperior" format="1">
  <advance width="359"/>
  <unicode hex="207C"/>
  <outline>
    <contour>
      <point x="36" y="628" type="line"/>
      <point x="322" y="628" type="line"/>
      <point x="322" y="690" type="line"/>
      <point x="36" y="690" type="line"/>
    </contour>
    <contour>
      <point x="36" y="504" type="line"/>
      <point x="322" y="504" type="line"/>
      <point x="322" y="565" type="line"/>
      <point x="36" y="565" type="line"/>
    </contour>
    <contour>
      <point x="-10" y="917" type="line"/>
      <point x="369" y="917" type="line"/>
      <point x="369" y="-213" type="line"/>
      <point x="-10" y="-213" type="line"/>
    </contour>
  </outline>
</glyph>
<glyph name="parenrightsuperior" format="1">
  <advance width="227"/>
  <unicode hex="207E"/>
  <outline>
    <contour>
      <point x="100" y="313" type="line"/>
      <point x="166" y="392"/>
      <point x="197" y="478"/>
      <point x="197" y="564" type="curve" smooth="yes"/>
      <point x="197" y="649"/>
      <point x="168" y="735"/>
      <point x="101" y="817" type="curve"/>
      <point x="16" y="817" type="line"/>
      <point x="83" y="740"/>
      <point x="116" y="651"/>
      <point x="116" y="564" type="curve" smooth="yes"/>
      <point x="116" y="476"/>
      <point x="82" y="391"/>
      <point x="16" y="313" type="curve"/>
    </contour>
    <contour>
      <point x="-10" y="918" type="line"/>
      <point x="234" y="918" type="line"/>
      <point x="234" y="-212" type="line"/>
      <point x="-10" y="-212" type="line"/>
    </contour>
  </outline>
</glyph>
<glyph name="n.superior" format="1">
  <advance width="420"/>
  <unicode hex="207F"/>
  <outline>
    <contour>
      <point x="229" y="415" type="line"/>
      <point x="402" y="415" type="line"/>
      <point x="402" y="483" type="line"/>
      <point x="366" y="483" type="line"/>
      <point x="366" y="615" type="line" smooth="yes"/>
      <point x="366" y="683"/>
      <point x="315" y="715"/>
      <point x="258" y="715" type="curve" smooth="yes"/>
      <point x="215" y="715"/>
      <point x="182" y="697"/>
      <point x="164" y="665" type="curve"/>
      <point x="164" y="709" type="line"/>
      <point x="24" y="709" type="line"/>
      <point x="24" y="640" type="line"/>
      <point x="64" y="640" type="line"/>
      <point x="64" y="483" type="line"/>
      <point x="28" y="483" type="line"/>
      <point x="28" y="415" type="line"/>
      <point x="200" y="415" type="line"/>
      <point x="200" y="483" type="line"/>
      <point x="164" y="483" type="line"/>
      <point x="164" y="585" type="line"/>
      <point x="166" y="622"/>
      <point x="185" y="646"/>
      <point x="220" y="646" type="curve" smooth="yes"/>
      <point x="252" y="646"/>
      <point x="265" y="627"/>
      <point x="265" y="579" type="curve" smooth="yes"/>
      <point x="265" y="483" type="line"/>
      <point x="229" y="483" type="line"/>
    </contour>
    <contour>
      <point x="-11" y="917" type="line"/>
      <point x="429" y="917" type="line"/>
      <point x="429" y="-213" type="line"/>
      <point x="-11" y="-213" type="line"/>
    </contour>
  </outline>
</glyph>
<glyph name="oneinferior" format="1">
  <advance width="283"/>
  <unicode hex="2081"/>
  <outline>
    <contour>
      <point x="29" y="289" type="line"/>
      <point x="102" y="289" type="line"/>
      <point x="102" y="75" type="line"/>
      <point x="29" y="75" type="line"/>
      <point x="29" y="0" type="line"/>
      <point x="268" y="0" type="line"/>
      <point x="268" y="75" type="line"/>
      <point x="203" y="75" type="line"/>
      <point x="203" y="364" type="line"/>
      <point x="29" y="364" type="line"/>
    </contour>
    <contour>
      <point x="-10" y="917" type="line"/>
      <point x="293" y="917" type="line"/>
      <point x="293" y="-213" type="line"/>
      <point x="-10" y="-213" type="line"/>
    </contour>
  </outline>
</glyph>
<glyph name="fourinferior" format="1">
  <advance width="370"/>
  <unicode hex="2084"/>
  <outline>
    <contour>
      <point x="189" y="0" type="line"/>
      <point x="290" y="0" type="line"/>
      <point x="290" y="65" type="line"/>
      <point x="341" y="65" type="line"/>
      <point x="348" y="143" type="line"/>
      <point x="290" y="143" type="line"/>
      <point x="290" y="364" type="line"/>
      <point x="120" y="364" type="line"/>
      <point x="14" y="138" type="line"/>
      <point x="24" y="65" type="line"/>
      <point x="189" y="65" type="line"/>
    </contour>
    <contour>
      <point x="173" y="289" type="line"/>
      <point x="189" y="289" type="line"/>
      <point x="189" y="143" type="line"/>
      <point x="102" y="143" type="line"/>
    </contour>
    <contour>
      <point x="-10" y="917" type="line"/>
      <point x="380" y="917" type="line"/>
      <point x="380" y="-213" type="line"/>
      <point x="-10" y="-213" type="line"/>
    </contour>
  </outline>
</glyph>
<glyph name="m.inferior" format="1">
  <advance width="609"/>
  <unicode hex="2098"/>
  <outline>
    <contour>
      <point x="224" y="0" type="line"/>
      <point x="396" y="0" type="line"/>
      <point x="396" y="68" type="line"/>
      <point x="360" y="68" type="line"/>
      <point x="360" y="165" type="line" smooth="yes"/>
      <point x="360" y="205"/>
      <point x="371" y="231"/>
      <point x="408" y="231" type="curve" smooth="yes"/>
      <point x="440" y="231"/>
      <point x="455" y="212"/>
      <point x="455" y="164" type="curve" smooth="yes"/>
      <point x="455" y="68" type="line"/>
      <point x="418" y="68" type="line"/>
      <point x="418" y="0" type="line"/>
      <point x="591" y="0" type="line"/>
      <point x="591" y="68" type="line"/>
      <point x="555" y="68" type="line"/>
      <point x="555" y="200" type="line" smooth="yes"/>
      <point x="555" y="268"/>
      <point x="503" y="300"/>
      <point x="449" y="300" type="curve" smooth="yes"/>
      <point x="402" y="300"/>
      <point x="369" y="275"/>
      <point x="353" y="238" type="curve"/>
      <point x="338" y="280"/>
      <point x="296" y="300"/>
      <point x="254" y="300" type="curve" smooth="yes"/>
      <point x="213" y="300"/>
      <point x="183" y="282"/>
      <point x="165" y="252" type="curve"/>
      <point x="165" y="294" type="line"/>
      <point x="25" y="294" type="line"/>
      <point x="25" y="225" type="line"/>
      <point x="65" y="225" type="line"/>
      <point x="65" y="68" type="line"/>
      <point x="29" y="68" type="line"/>
      <point x="29" y="0" type="line"/>
      <point x="198" y="0" type="line"/>
      <point x="198" y="68" type="line"/>
      <point x="165" y="68" type="line"/>
      <point x="165" y="173" type="line"/>
      <point x="166" y="209"/>
      <point x="180" y="231"/>
      <point x="214" y="231" type="curve" smooth="yes"/>
      <point x="246" y="231"/>
      <point x="260" y="212"/>
      <point x="260" y="164" type="curve" smooth="yes"/>
      <point x="260" y="68" type="line"/>
      <point x="224" y="68" type="line"/>
    </contour>
    <contour>
      <point x="-10" y="917" type="line"/>
      <point x="619" y="917" type="line"/>
      <point x="619" y="-213" type="line"/>
      <point x="-10" y="-213" type="line"/>
    </contour>
    <contour>
      <point x="221" y="368" type="move" name="top"/>
    </contour>
  </outline>
</glyph>
<glyph name="p.inferior" format="1">
  <advance width="407"/>
  <unicode hex="209A"/>
  <outline>
    <contour>
      <point x="-10" y="917" type="line"/>
      <point x="417" y="917" type="line"/>
      <point x="417" y="-213" type="line"/>
      <point x="-10" y="-213" type="line"/>
    </contour>
    <contour>
      <point x="17" y="225" type="line"/>
      <point x="57" y="225" type="line"/>
      <point x="57" y="-70" type="line"/>
      <point x="21" y="-70" type="line"/>
      <point x="21" y="-138" type="line"/>
      <point x="206" y="-138" type="line"/>
      <point x="206" y="-70" type="line"/>
      <point x="157" y="-70" type="line"/>
      <point x="157" y="35" type="line"/>
      <point x="174" y="9"/>
      <point x="204" y="-7"/>
      <point x="247" y="-7" type="curve" smooth="yes"/>
      <point x="338" y="-7"/>
      <point x="387" y="66"/>
      <point x="387" y="154" type="curve" smooth="yes"/>
      <point x="387" y="245"/>
      <point x="334" y="300"/>
      <point x="257" y="300" type="curve" smooth="yes"/>
      <point x="204" y="300"/>
      <point x="173" y="273"/>
      <point x="157" y="241" type="curve"/>
      <point x="157" y="294" type="line"/>
      <point x="17" y="294" type="line"/>
    </contour>
    <contour>
      <point x="219" y="68" type="curve" smooth="yes"/>
      <point x="183" y="68"/>
      <point x="157" y="93"/>
      <point x="157" y="141" type="curve" smooth="yes"/>
      <point x="157" y="186"/>
      <point x="182" y="225"/>
      <point x="223" y="225" type="curve" smooth="yes"/>
      <point x="256" y="225"/>
      <point x="279" y="199"/>
      <point x="279" y="147" type="curve" smooth="yes"/>
      <point x="279" y="86"/>
      <point x="248" y="68"/>
    </contour>
    <contour>
      <point x="246" y="368" type="move" name="top"/>
    </contour>
  </outline>
</glyph>
<glyph name="colonsign" format="1">
  <advance width="685"/>
  <unicode hex="20A1"/>
  <outline>
    <contour>
      <point x="286" y="-71" type="line"/>
      <point x="375" y="-71" type="line"/>
      <point x="398" y="-6" type="line"/>
      <point x="476" y="4"/>
      <point x="560" y="33"/>
      <point x="595" y="69" type="curve"/>
      <point x="608" y="222" type="line"/>
      <point x="499" y="232" type="line"/>
      <point x="485" y="135" type="line"/>
      <point x="474" y="129"/>
      <point x="459" y="123"/>
      <point x="442" y="118" type="curve"/>
      <point x="647" y="689" type="line"/>
      <point x="558" y="689" type="line"/>
      <point x="522" y="589" type="line"/>
      <point x="514" y="598"/>
      <point x="505" y="607"/>
      <point x="495" y="615" type="curve"/>
      <point x="522" y="689" type="line"/>
      <point x="433" y="689" type="line"/>
      <point x="419" y="651" type="line"/>
      <point x="397" y="656"/>
      <point x="373" y="660"/>
      <point x="346" y="660" type="curve" smooth="yes"/>
      <point x="157" y="660"/>
      <point x="34" y="512"/>
      <point x="34" y="321" type="curve" smooth="yes"/>
      <point x="34" y="183"/>
      <point x="97" y="77"/>
      <point x="195" y="25" type="curve"/>
      <point x="161" y="-71" type="line"/>
      <point x="250" y="-71" type="line"/>
      <point x="274" y="-3" type="line"/>
      <point x="285" y="-5"/>
      <point x="297" y="-7"/>
      <point x="308" y="-8" type="curve"/>
    </contour>
    <contour>
      <point x="178" y="323" type="curve" smooth="yes"/>
      <point x="178" y="466"/>
      <point x="249" y="542"/>
      <point x="362" y="542" type="curve" smooth="yes"/>
      <point x="368" y="542"/>
      <point x="374" y="542"/>
      <point x="380" y="541" type="curve"/>
      <point x="240" y="149" type="line"/>
      <point x="201" y="184"/>
      <point x="178" y="240"/>
    </contour>
    <contour>
      <point x="315" y="113" type="curve"/>
      <point x="458" y="511" type="line"/>
      <point x="468" y="501"/>
      <point x="476" y="489"/>
      <point x="482" y="476" type="curve"/>
      <point x="350" y="108" type="line"/>
      <point x="338" y="109"/>
      <point x="327" y="110"/>
    </contour>
    <contour>
      <point x="-10" y="917" type="line"/>
      <point x="695" y="917" type="line"/>
      <point x="695" y="-213" type="line"/>
      <point x="-10" y="-213" type="line"/>
    </contour>
  </outline>
</glyph>
<glyph name="franc" format="1">
  <advance width="800"/>
  <unicode hex="20A3"/>
  <outline>
    <contour>
      <point x="244" y="536" type="line"/>
      <point x="414" y="536" type="line"/>
      <point x="434" y="440" type="line"/>
      <point x="548" y="450" type="line"/>
      <point x="528" y="650" type="line"/>
      <point x="40" y="650" type="line"/>
      <point x="40" y="536" type="line"/>
      <point x="110" y="536" type="line"/>
      <point x="110" y="114" type="line"/>
      <point x="40" y="114" type="line"/>
      <point x="40" y="0" type="line"/>
      <point x="340" y="0" type="line"/>
      <point x="340" y="114" type="line"/>
      <point x="244" y="114" type="line"/>
      <point x="244" y="281" type="line"/>
      <point x="434" y="281" type="line"/>
      <point x="434" y="98" type="line"/>
      <point x="374" y="98" type="line"/>
      <point x="374" y="0" type="line"/>
      <point x="643" y="0" type="line"/>
      <point x="643" y="98" type="line"/>
      <point x="563" y="98" type="line"/>
      <point x="563" y="227" type="line"/>
      <point x="563" y="271"/>
      <point x="589" y="294"/>
      <point x="618" y="294" type="curve" smooth="yes"/>
      <point x="630" y="294"/>
      <point x="640" y="290"/>
      <point x="653" y="282" type="curve"/>
      <point x="671" y="205" type="line"/>
      <point x="769" y="216" type="line"/>
      <point x="748" y="374" type="line"/>
      <point x="717" y="392"/>
      <point x="684" y="399"/>
      <point x="659" y="399" type="curve" smooth="yes"/>
      <point x="598" y="399"/>
      <point x="568" y="359"/>
      <point x="553" y="307" type="curve"/>
      <point x="553" y="394" type="line"/>
      <point x="244" y="394" type="line"/>
    </contour>
    <contour>
      <point x="-10" y="917" type="line"/>
      <point x="810" y="917" type="line"/>
      <point x="810" y="-213" type="line"/>
      <point x="-10" y="-213" type="line"/>
    </contour>
  </outline>
</glyph>
<glyph name="naira" format="1">
  <advance width="760"/>
  <unicode hex="20A6"/>
  <outline>
    <contour>
      <point x="-10" y="-213" type="line"/>
      <point x="770" y="-213" type="line"/>
      <point x="770" y="917" type="line"/>
      <point x="-10" y="917" type="line"/>
    </contour>
    <contour>
      <point x="30" y="327" type="line"/>
      <point x="110" y="327" type="line"/>
      <point x="110" y="349" type="line"/>
      <point x="30" y="349" type="line"/>
      <point x="30" y="392" type="line"/>
      <point x="110" y="392" type="line"/>
      <point x="110" y="536" type="line"/>
      <point x="29" y="536" type="line"/>
      <point x="29" y="650" type="line"/>
      <point x="206" y="650" type="line"/>
      <point x="425" y="392" type="line"/>
      <point x="538" y="392" type="line"/>
      <point x="538" y="536" type="line"/>
      <point x="444" y="536" type="line"/>
      <point x="444" y="650" type="line"/>
      <point x="733" y="650" type="line"/>
      <point x="733" y="536" type="line"/>
      <point x="663" y="536" type="line"/>
      <point x="663" y="392" type="line"/>
      <point x="732" y="392" type="line"/>
      <point x="732" y="349" type="line"/>
      <point x="663" y="349" type="line"/>
      <point x="663" y="327" type="line"/>
      <point x="732" y="327" type="line"/>
      <point x="732" y="284" type="line"/>
      <point x="663" y="284" type="line"/>
      <point x="663" y="0" type="line"/>
      <point x="588" y="-1" type="line"/>
      <point x="347" y="284" type="line"/>
      <point x="235" y="284" type="line"/>
      <point x="235" y="114" type="line"/>
      <point x="325" y="114" type="line"/>
      <point x="325" y="0" type="line"/>
      <point x="40" y="0" type="line"/>
      <point x="40" y="114" type="line"/>
      <point x="110" y="114" type="line"/>
      <point x="110" y="284" type="line"/>
      <point x="30" y="284" type="line"/>
    </contour>
    <contour>
      <point x="480" y="327" type="line"/>
      <point x="538" y="327" type="line"/>
      <point x="538" y="349" type="line"/>
      <point x="461" y="349" type="line"/>
    </contour>
    <contour>
      <point x="235" y="327" type="line"/>
      <point x="311" y="327" type="line"/>
      <point x="292" y="349" type="line"/>
      <point x="235" y="349" type="line"/>
    </contour>
    <contour>
      <point x="235" y="412" type="line"/>
      <point x="235" y="392" type="line"/>
      <point x="256" y="392" type="line"/>
      <point x="239" y="412" type="line"/>
    </contour>
    <contour>
      <point x="534" y="264" type="line"/>
      <point x="538" y="264" type="line"/>
      <point x="538" y="284" type="line"/>
      <point x="517" y="284" type="line"/>
    </contour>
  </outline>
</glyph>
<glyph name="won" format="1">
  <advance width="953"/>
  <unicode hex="20A9"/>
  <outline>
    <contour>
      <point x="9" y="313" type="line"/>
      <point x="125" y="313" type="line"/>
      <point x="113" y="346" type="line"/>
      <point x="9" y="346" type="line"/>
      <point x="9" y="399" type="line"/>
      <point x="94" y="399" type="line"/>
      <point x="46" y="536" type="line"/>
      <point x="-10" y="536" type="line"/>
      <point x="-10" y="-213" type="line"/>
      <point x="963" y="-213" type="line"/>
      <point x="963" y="536" type="line"/>
      <point x="911" y="536" type="line"/>
      <point x="865" y="399" type="line"/>
      <point x="943" y="399" type="line"/>
      <point x="943" y="346" type="line"/>
      <point x="847" y="346" type="line"/>
      <point x="836" y="313" type="line"/>
      <point x="943" y="313" type="line"/>
      <point x="943" y="261" type="line"/>
      <point x="819" y="261" type="line"/>
      <point x="732" y="0" type="line"/>
      <point x="637" y="0" type="line"/>
      <point x="542" y="261" type="line"/>
      <point x="423" y="261" type="line"/>
      <point x="333" y="0" type="line"/>
      <point x="236" y="0" type="line"/>
      <point x="143" y="261" type="line"/>
      <point x="9" y="261" type="line"/>
    </contour>
    <contour>
      <point x="249" y="650" type="line"/>
      <point x="249" y="536" type="line"/>
      <point x="189" y="536" type="line"/>
      <point x="231" y="399" type="line"/>
      <point x="357" y="399" type="line"/>
      <point x="408" y="536" type="line"/>
      <point x="357" y="536" type="line"/>
      <point x="357" y="650" type="line"/>
      <point x="616" y="650" type="line"/>
      <point x="616" y="536" type="line"/>
      <point x="570" y="536" type="line"/>
      <point x="619" y="399" type="line"/>
      <point x="740" y="399" type="line"/>
      <point x="777" y="536" type="line"/>
      <point x="707" y="536" type="line"/>
      <point x="707" y="650" type="line"/>
      <point x="963" y="650" type="line"/>
      <point x="963" y="917" type="line"/>
      <point x="-10" y="917" type="line"/>
      <point x="-10" y="650" type="line"/>
    </contour>
    <contour>
      <point x="258" y="313" type="line"/>
      <point x="325" y="313" type="line"/>
      <point x="337" y="346" type="line"/>
      <point x="248" y="346" type="line"/>
    </contour>
    <contour>
      <point x="650" y="313" type="line"/>
      <point x="717" y="313" type="line"/>
      <point x="726" y="346" type="line"/>
      <point x="638" y="346" type="line"/>
    </contour>
    <contour>
      <point x="441" y="313" type="line"/>
      <point x="523" y="313" type="line"/>
      <point x="511" y="346" type="line"/>
      <point x="453" y="346" type="line"/>
    </contour>
    <contour>
      <point x="685" y="216" type="line"/>
      <point x="691" y="216" type="line"/>
      <point x="703" y="261" type="line"/>
      <point x="669" y="261" type="line"/>
    </contour>
    <contour>
      <point x="286" y="222" type="line"/>
      <point x="292" y="222" type="line"/>
      <point x="306" y="261" type="line"/>
      <point x="274" y="261" type="line"/>
    </contour>
    <contour>
      <point x="479" y="420" type="line"/>
      <point x="471" y="399" type="line"/>
      <point x="491" y="399" type="line"/>
      <point x="484" y="420" type="line"/>
    </contour>
  </outline>
</glyph>
<glyph name="sheqel" format="1">
  <advance width="801"/>
  <unicode hex="20AA"/>
  <outline>
    <contour>
      <point x="63" y="0" type="line"/>
      <point x="196" y="0" type="line"/>
      <point x="196" y="541" type="line"/>
      <point x="314" y="541" type="line" smooth="yes"/>
      <point x="416" y="541"/>
      <point x="430" y="533"/>
      <point x="430" y="394" type="curve" smooth="yes"/>
      <point x="430" y="244" type="line"/>
      <point x="562" y="244" type="line"/>
      <point x="562" y="389" type="line" smooth="yes"/>
      <point x="562" y="595"/>
      <point x="512" y="650"/>
      <point x="316" y="650" type="curve" smooth="yes"/>
      <point x="63" y="650" type="line"/>
    </contour>
    <contour>
      <point x="378" y="109" type="line"/>
      <point x="378" y="406" type="line"/>
      <point x="246" y="406" type="line"/>
      <point x="246" y="0" type="line"/>
      <point x="515" y="0" type="line" smooth="yes"/>
      <point x="711" y="0"/>
      <point x="744" y="75"/>
      <point x="744" y="281" type="curve" smooth="yes"/>
      <point x="744" y="650" type="line"/>
      <point x="612" y="650" type="line"/>
      <point x="612" y="276" type="line" smooth="yes"/>
      <point x="612" y="179"/>
      <point x="612" y="109"/>
      <point x="516" y="109" type="curve" smooth="yes"/>
    </contour>
    <contour>
      <point x="-10" y="917" type="line"/>
      <point x="811" y="917" type="line"/>
      <point x="811" y="-213" type="line"/>
      <point x="-10" y="-213" type="line"/>
    </contour>
  </outline>
</glyph>
<glyph name="Euro" format="1">
  <advance width="592"/>
  <unicode hex="20AC"/>
  <outline>
    <contour>
      <point x="-10" y="917" type="line"/>
      <point x="602" y="917" type="line"/>
      <point x="602" y="-213" type="line"/>
      <point x="-10" y="-213" type="line"/>
    </contour>
    <contour>
      <point x="30" y="277" type="line"/>
      <point x="81" y="277" type="line"/>
      <point x="81" y="232" type="line"/>
      <point x="30" y="232" type="line"/>
      <point x="30" y="157" type="line"/>
      <point x="95" y="157" type="line"/>
      <point x="126" y="55"/>
      <point x="210" y="-8"/>
      <point x="332" y="-8" type="curve" smooth="yes"/>
      <point x="413" y="-8"/>
      <point x="495" y="20"/>
      <point x="532" y="58" type="curve"/>
      <point x="542" y="183" type="line"/>
      <point x="434" y="191" type="line"/>
      <point x="422" y="114" type="line"/>
      <point x="406" y="99"/>
      <point x="386" y="93"/>
      <point x="354" y="93" type="curve" smooth="yes"/>
      <point x="298" y="93"/>
      <point x="258" y="111"/>
      <point x="237" y="157" type="curve"/>
      <point x="339" y="157" type="line"/>
      <point x="339" y="232" type="line"/>
      <point x="221" y="232" type="line"/>
      <point x="220" y="240"/>
      <point x="220" y="249"/>
      <point x="220" y="259" type="curve" smooth="yes"/>
      <point x="220" y="277" type="line"/>
      <point x="364" y="277" type="line"/>
      <point x="364" y="352" type="line"/>
      <point x="233" y="352" type="line"/>
      <point x="252" y="402"/>
      <point x="290" y="428"/>
      <point x="349" y="428" type="curve" smooth="yes"/>
      <point x="373" y="428"/>
      <point x="399" y="424"/>
      <point x="421" y="405" type="curve"/>
      <point x="433" y="335" type="line"/>
      <point x="541" y="343" type="line"/>
      <point x="528" y="466" type="line"/>
      <point x="494" y="497"/>
      <point x="425" y="529"/>
      <point x="337" y="529" type="curve" smooth="yes"/>
      <point x="204" y="529"/>
      <point x="123" y="456"/>
      <point x="93" y="352" type="curve"/>
      <point x="30" y="352" type="line"/>
    </contour>
  </outline>
</glyph>
<glyph name="uni20B9" format="1">
  <advance width="539"/>
  <unicode hex="20B9"/>
  <outline>
    <contour>
      <point x="336" y="0" type="line"/>
      <point x="485" y="0" type="line"/>
      <point x="485" y="98" type="line"/>
      <point x="423" y="98" type="line"/>
      <point x="352" y="222" type="line"/>
      <point x="399" y="240"/>
      <point x="435" y="273"/>
      <point x="448" y="322" type="curve"/>
      <point x="492" y="322" type="line"/>
      <point x="492" y="394" type="line"/>
      <point x="451" y="394" type="line"/>
      <point x="450" y="404"/>
      <point x="447" y="414"/>
      <point x="444" y="423" type="curve"/>
      <point x="499" y="423" type="line"/>
      <point x="499" y="521" type="line"/>
      <point x="40" y="521" type="line"/>
      <point x="40" y="423" type="line"/>
      <point x="229" y="423" type="line" smooth="yes"/>
      <point x="274" y="423"/>
      <point x="297" y="413"/>
      <point x="308" y="394" type="curve"/>
      <point x="40" y="394" type="line"/>
      <point x="40" y="322" type="line"/>
      <point x="307" y="322" type="line"/>
      <point x="295" y="299"/>
      <point x="267" y="287"/>
      <point x="209" y="287" type="curve" smooth="yes"/>
      <point x="40" y="287" type="line"/>
      <point x="40" y="196" type="line"/>
      <point x="228" y="196" type="line"/>
    </contour>
    <contour>
      <point x="-10" y="917" type="line"/>
      <point x="549" y="917" type="line"/>
      <point x="549" y="-213" type="line"/>
      <point x="-10" y="-213" type="line"/>
    </contour>
  </outline>
</glyph>
<glyph name="rubel" format="1">
  <advance width="622"/>
  <unicode hex="20BD"/>
  <outline>
    <contour>
      <point x="52" y="248" type="line"/>
      <point x="122" y="248" type="line"/>
      <point x="122" y="214" type="line"/>
      <point x="52" y="214" type="line"/>
      <point x="52" y="145" type="line"/>
      <point x="122" y="145" type="line"/>
      <point x="122" y="114" type="line"/>
      <point x="52" y="114" type="line"/>
      <point x="52" y="0" type="line"/>
      <point x="356" y="0" type="line"/>
      <point x="356" y="114" type="line"/>
      <point x="256" y="114" type="line"/>
      <point x="256" y="145" type="line"/>
      <point x="495" y="145" type="line"/>
      <point x="495" y="214" type="line"/>
      <point x="256" y="214" type="line"/>
      <point x="256" y="248" type="line"/>
      <point x="356" y="248" type="line" smooth="yes"/>
      <point x="484" y="248"/>
      <point x="597" y="304"/>
      <point x="597" y="452" type="curve" smooth="yes"/>
      <point x="597" y="582"/>
      <point x="511" y="650"/>
      <point x="350" y="650" type="curve" smooth="yes"/>
      <point x="52" y="650" type="line"/>
      <point x="52" y="536" type="line"/>
      <point x="122" y="536" type="line"/>
      <point x="122" y="361" type="line"/>
      <point x="52" y="361" type="line"/>
    </contour>
    <contour>
      <point x="333" y="536" type="line" smooth="yes"/>
      <point x="422" y="536"/>
      <point x="453" y="510"/>
      <point x="453" y="446" type="curve" smooth="yes"/>
      <point x="453" y="383"/>
      <point x="423" y="361"/>
      <point x="331" y="361" type="curve" smooth="yes"/>
      <point x="256" y="361" type="line"/>
      <point x="256" y="536" type="line"/>
    </contour>
    <contour>
      <point x="-10" y="917" type="line"/>
      <point x="632" y="917" type="line"/>
      <point x="632" y="-213" type="line"/>
      <point x="-10" y="-213" type="line"/>
    </contour>
  </outline>
</glyph>
<glyph name="uni2116" format="1">
  <advance width="1018"/>
  <unicode hex="2116"/>
  <outline>
    <contour>
      <point x="648" y="194" type="line"/>
      <point x="981" y="194" type="line"/>
      <point x="981" y="109" type="line"/>
      <point x="648" y="109" type="line"/>
    </contour>
    <contour>
      <point x="647" y="371" type="curve"/>
      <point x="647" y="457"/>
      <point x="702" y="529"/>
      <point x="814" y="529" type="curve" smooth="yes"/>
      <point x="927" y="529"/>
      <point x="981" y="457"/>
      <point x="981" y="376" type="curve" smooth="yes"/>
      <point x="981" y="281"/>
      <point x="907" y="222"/>
      <point x="809" y="222" type="curve" smooth="yes"/>
      <point x="715" y="222"/>
      <point x="647" y="277"/>
    </contour>
    <contour>
      <point x="755" y="377" type="curve"/>
      <point x="755" y="330"/>
      <point x="773" y="298"/>
      <point x="812" y="298" type="curve" smooth="yes"/>
      <point x="849" y="298"/>
      <point x="873" y="326"/>
      <point x="873" y="378" type="curve" smooth="yes"/>
      <point x="873" y="434"/>
      <point x="845" y="453"/>
      <point x="813" y="453" type="curve" smooth="yes"/>
      <point x="777" y="453"/>
      <point x="755" y="428"/>
    </contour>
    <contour>
      <point x="378" y="521" type="line"/>
      <point x="631" y="521" type="line"/>
      <point x="631" y="423" type="line"/>
      <point x="576" y="423" type="line"/>
      <point x="576" y="0" type="line"/>
      <point x="505" y="-1" type="line"/>
      <point x="220" y="317" type="line"/>
      <point x="216" y="317" type="line"/>
      <point x="216" y="98" type="line"/>
      <point x="288" y="98" type="line"/>
      <point x="288" y="0" type="line"/>
      <point x="39" y="0" type="line"/>
      <point x="39" y="98" type="line"/>
      <point x="96" y="98" type="line"/>
      <point x="96" y="423" type="line"/>
      <point x="30" y="423" type="line"/>
      <point x="30" y="521" type="line"/>
      <point x="188" y="521" type="line"/>
      <point x="452" y="227" type="line"/>
      <point x="456" y="227" type="line"/>
      <point x="456" y="423" type="line"/>
      <point x="378" y="423" type="line"/>
    </contour>
    <contour>
      <point x="-10" y="-213" type="line"/>
      <point x="1028" y="-213" type="line"/>
      <point x="1028" y="917" type="line"/>
      <point x="-10" y="917" type="line"/>
    </contour>
  </outline>
</glyph>
<glyph name="trademark" format="1">
  <advance width="1092"/>
  <unicode hex="2122"/>
  <outline>
    <contour>
      <point x="1050" y="570" type="line"/>
      <point x="1050" y="650" type="line"/>
      <point x="910" y="650" type="line"/>
      <point x="772" y="400" type="line"/>
      <point x="769" y="400" type="line"/>
      <point x="619" y="650" type="line"/>
      <point x="481" y="650" type="line"/>
      <point x="481" y="570" type="line"/>
      <point x="533" y="570" type="line"/>
      <point x="533" y="307" type="line"/>
      <point x="489" y="307" type="line"/>
      <point x="489" y="227" type="line"/>
      <point x="667" y="227" type="line"/>
      <point x="667" y="307" type="line"/>
      <point x="630" y="307" type="line"/>
      <point x="630" y="457" type="line"/>
      <point x="632" y="457" type="line"/>
      <point x="746" y="264" type="line"/>
      <point x="788" y="264" type="line"/>
      <point x="891" y="448" type="line"/>
      <point x="894" y="448" type="line"/>
      <point x="894" y="307" type="line"/>
      <point x="860" y="307" type="line"/>
      <point x="860" y="227" type="line"/>
      <point x="1042" y="227" type="line"/>
      <point x="1042" y="307" type="line"/>
      <point x="998" y="307" type="line"/>
      <point x="998" y="570" type="line"/>
    </contour>
    <contour>
      <point x="470" y="497" type="line"/>
      <point x="456" y="650" type="line"/>
      <point x="60" y="650" type="line"/>
      <point x="46" y="497" type="line"/>
      <point x="125" y="490" type="line"/>
      <point x="139" y="570" type="line"/>
      <point x="207" y="570" type="line"/>
      <point x="207" y="307" type="line"/>
      <point x="143" y="307" type="line"/>
      <point x="143" y="227" type="line"/>
      <point x="380" y="227" type="line"/>
      <point x="380" y="307" type="line"/>
      <point x="311" y="307" type="line"/>
      <point x="311" y="570" type="line"/>
      <point x="377" y="570" type="line"/>
      <point x="390" y="490" type="line"/>
    </contour>
    <contour>
      <point x="-10" y="917" type="line"/>
      <point x="1102" y="917" type="line"/>
      <point x="1102" y="-213" type="line"/>
      <point x="-10" y="-213" type="line"/>
    </contour>
  </outline>
</glyph>
<glyph name="estimated" format="1">
  <advance width="595"/>
  <unicode hex="212E"/>
  <outline>
    <contour>
      <point x="-10" y="917" type="line"/>
      <point x="605" y="917" type="line"/>
      <point x="605" y="-213" type="line"/>
      <point x="-10" y="-213" type="line"/>
    </contour>
    <contour>
      <point x="571" y="235" type="line"/>
      <point x="571" y="242" type="line" smooth="yes"/>
      <point x="571" y="383"/>
      <point x="457" y="496"/>
      <point x="302" y="496" type="curve" smooth="yes"/>
      <point x="147" y="496"/>
      <point x="35" y="383"/>
      <point x="35" y="242" type="curve" smooth="yes"/>
      <point x="35" y="101"/>
      <point x="147" y="-12"/>
      <point x="302" y="-12" type="curve" smooth="yes"/>
      <point x="393" y="-12"/>
      <point x="461" y="29"/>
      <point x="511" y="87" type="curve"/>
      <point x="487" y="87" type="line"/>
      <point x="444" y="36"/>
      <point x="377" y="3"/>
      <point x="302" y="3" type="curve" smooth="yes"/>
      <point x="234" y="3"/>
      <point x="177" y="39"/>
      <point x="145" y="78" type="curve" smooth="yes"/>
      <point x="141" y="83"/>
      <point x="139" y="89"/>
      <point x="139" y="95" type="curve" smooth="yes"/>
      <point x="139" y="232" type="line" smooth="yes"/>
      <point x="139" y="234"/>
      <point x="140" y="235"/>
      <point x="143" y="235" type="curve" smooth="yes"/>
    </contour>
    <contour>
      <point x="466" y="255" type="line" smooth="yes"/>
      <point x="466" y="252"/>
      <point x="466" y="251"/>
      <point x="465" y="251" type="curve"/>
      <point x="143" y="251" type="line" smooth="yes"/>
      <point x="140" y="251"/>
      <point x="139" y="252"/>
      <point x="139" y="255" type="curve" smooth="yes"/>
      <point x="139" y="388" type="line" smooth="yes"/>
      <point x="139" y="396"/>
      <point x="142" y="401"/>
      <point x="146" y="407" type="curve" smooth="yes"/>
      <point x="169" y="441"/>
      <point x="235" y="481"/>
      <point x="302" y="481" type="curve" smooth="yes"/>
      <point x="369" y="481"/>
      <point x="434" y="444"/>
      <point x="461" y="410" type="curve" smooth="yes"/>
      <point x="466" y="405"/>
      <point x="466" y="399"/>
      <point x="466" y="392" type="curve" smooth="yes"/>
    </contour>
  </outline>
</glyph>
<glyph name="twothirds" format="1">
  <advance width="842"/>
  <unicode hex="2154"/>
  <outline>
    <contour>
      <point x="115" y="529" type="line"/>
      <point x="125" y="574" type="line"/>
      <point x="140" y="582"/>
      <point x="157" y="585"/>
      <point x="171" y="585" type="curve" smooth="yes"/>
      <point x="201" y="585"/>
      <point x="220" y="570"/>
      <point x="220" y="549" type="curve" smooth="yes"/>
      <point x="220" y="498"/>
      <point x="111" y="422"/>
      <point x="30" y="360" type="curve"/>
      <point x="39" y="290" type="line"/>
      <point x="342" y="290" type="line"/>
      <point x="352" y="410" type="line"/>
      <point x="271" y="420" type="line"/>
      <point x="259" y="365" type="line"/>
      <point x="154" y="365" type="line"/>
      <point x="207" y="402"/>
      <point x="331" y="480"/>
      <point x="331" y="562" type="curve" smooth="yes"/>
      <point x="331" y="608"/>
      <point x="293" y="660"/>
      <point x="188" y="660" type="curve" smooth="yes"/>
      <point x="139" y="660"/>
      <point x="88" y="649"/>
      <point x="52" y="634" type="curve"/>
      <point x="38" y="535" type="line"/>
    </contour>
    <contour>
      <point x="603" y="243" type="line"/>
      <point x="612" y="284" type="line"/>
      <point x="627" y="292"/>
      <point x="640" y="294"/>
      <point x="654" y="294" type="curve"/>
      <point x="681" y="294"/>
      <point x="694" y="283"/>
      <point x="694" y="260" type="curve" smooth="yes"/>
      <point x="694" y="222"/>
      <point x="661" y="219"/>
      <point x="627" y="217" type="curve"/>
      <point x="627" y="161" type="line"/>
      <point x="670" y="159"/>
      <point x="706" y="150"/>
      <point x="706" y="116" type="curve" smooth="yes"/>
      <point x="706" y="92"/>
      <point x="688" y="72"/>
      <point x="652" y="72" type="curve" smooth="yes"/>
      <point x="619" y="72"/>
      <point x="603" y="88"/>
      <point x="593" y="117" type="curve"/>
      <point x="520" y="92" type="line"/>
      <point x="534" y="20"/>
      <point x="587" y="-7"/>
      <point x="657" y="-7" type="curve" smooth="yes"/>
      <point x="750" y="-7"/>
      <point x="815" y="33"/>
      <point x="815" y="102" type="curve" smooth="yes"/>
      <point x="815" y="143"/>
      <point x="794" y="180"/>
      <point x="742" y="193" type="curve"/>
      <point x="742" y="195" type="line"/>
      <point x="783" y="214"/>
      <point x="803" y="242"/>
      <point x="803" y="276" type="curve" smooth="yes"/>
      <point x="803" y="328"/>
      <point x="757" y="369"/>
      <point x="671" y="369" type="curve" smooth="yes"/>
      <point x="630" y="369"/>
      <point x="575" y="360"/>
      <point x="539" y="344" type="curve"/>
      <point x="526" y="249" type="line"/>
    </contour>
    <contour>
      <point x="571" y="650" type="line"/>
      <point x="397" y="337" type="line"/>
      <point x="199" y="0" type="line"/>
      <point x="287" y="0" type="line"/>
      <point x="468" y="325" type="line"/>
      <point x="659" y="650" type="line"/>
    </contour>
    <contour>
      <point x="-10" y="917" type="line"/>
      <point x="852" y="917" type="line"/>
      <point x="852" y="-213" type="line"/>
      <point x="-10" y="-213" type="line"/>
    </contour>
  </outline>
</glyph>
<glyph name="arrowdown" format="1">
  <advance width="527"/>
  <unicode hex="2193"/>
  <outline>
    <contour>
      <point x="496" y="249" type="line"/>
      <point x="384" y="249" type="line"/>
      <point x="319" y="188" type="line"/>
      <point x="319" y="714" type="line"/>
      <point x="211" y="714" type="line"/>
      <point x="211" y="187" type="line"/>
      <point x="143" y="248" type="line"/>
      <point x="31" y="248" type="line"/>
      <point x="247" y="-20" type="line"/>
      <point x="284" y="-20" type="line"/>
    </contour>
    <contour>
      <point x="-10" y="917" type="line"/>
      <point x="537" y="917" type="line"/>
      <point x="537" y="-213" type="line"/>
      <point x="-10" y="-213" type="line"/>
    </contour>
  </outline>
</glyph>
<glyph name="summation" format="1">
  <advance width="555"/>
  <unicode hex="2211"/>
  <outline>
    <contour>
      <point x="30" y="-140" type="line"/>
      <point x="524" y="-140" type="line"/>
      <point x="524" y="-26" type="line"/>
      <point x="188" y="-26" type="line"/>
      <point x="401" y="238" type="line"/>
      <point x="401" y="278" type="line"/>
      <point x="188" y="536" type="line"/>
      <point x="524" y="536" type="line"/>
      <point x="524" y="650" type="line"/>
      <point x="30" y="650" type="line"/>
      <point x="30" y="536" type="line"/>
      <point x="263" y="253" type="line"/>
      <point x="30" y="-26" type="line"/>
    </contour>
    <contour>
      <point x="-10" y="917" type="line"/>
      <point x="565" y="917" type="line"/>
      <point x="565" y="-213" type="line"/>
      <point x="-10" y="-213" type="line"/>
    </contour>
  </outline>
</glyph>
<glyph name="minus" format="1">
  <advance width="435"/>
  <unicode hex="2212"/>
  <outline>
    <contour>
      <point x="44" y="237" type="line"/>
      <point x="391" y="237" type="line"/>
      <point x="391" y="325" type="line"/>
      <point x="44" y="325" type="line"/>
    </contour>
    <contour>
      <point x="-10" y="917" type="line"/>
      <point x="445" y="917" type="line"/>
      <point x="445" y="-213" type="line"/>
      <point x="-10" y="-213" type="line"/>
    </contour>
  </outline>
</glyph>
<glyph name="integral" format="1">
  <advance width="370"/>
  <unicode hex="222B"/>
  <outline>
    <contour>
      <point x="3" y="-140" type="line"/>
      <point x="40" y="-140" type="line" smooth="yes"/>
      <point x="186" y="-140"/>
      <point x="235" y="-74"/>
      <point x="235" y="54" type="curve" smooth="yes"/>
      <point x="235" y="492" type="line" smooth="yes"/>
      <point x="235" y="571"/>
      <point x="253" y="581"/>
      <point x="314" y="581" type="curve" smooth="yes"/>
      <point x="369" y="581" type="line"/>
      <point x="369" y="689" type="line"/>
      <point x="322" y="689" type="line" smooth="yes"/>
      <point x="162" y="689"/>
      <point x="126" y="623"/>
      <point x="126" y="495" type="curve" smooth="yes"/>
      <point x="126" y="59" type="line" smooth="yes"/>
      <point x="126" y="-19"/>
      <point x="113" y="-33"/>
      <point x="45" y="-33" type="curve" smooth="yes"/>
      <point x="3" y="-33" type="line"/>
    </contour>
    <contour>
      <point x="-10" y="917" type="line"/>
      <point x="380" y="917" type="line"/>
      <point x="380" y="-213" type="line"/>
      <point x="-10" y="-213" type="line"/>
    </contour>
  </outline>
</glyph>
<glyph name="notequal" format="1">
  <advance width="535"/>
  <unicode hex="2260"/>
  <outline>
    <contour>
      <point x="40" y="347" type="line"/>
      <point x="255" y="347" type="line"/>
      <point x="174" y="213" type="line"/>
      <point x="40" y="213" type="line"/>
      <point x="40" y="125" type="line"/>
      <point x="121" y="125" type="line"/>
      <point x="80" y="56" type="line"/>
      <point x="197" y="56" type="line"/>
      <point x="237" y="125" type="line"/>
      <point x="497" y="125" type="line"/>
      <point x="497" y="213" type="line"/>
      <point x="288" y="213" type="line"/>
      <point x="365" y="347" type="line"/>
      <point x="497" y="347" type="line"/>
      <point x="497" y="435" type="line"/>
      <point x="416" y="435" type="line"/>
      <point x="456" y="504" type="line"/>
      <point x="350" y="504" type="line"/>
      <point x="308" y="435" type="line"/>
      <point x="40" y="435" type="line"/>
    </contour>
    <contour>
      <point x="-10" y="917" type="line"/>
      <point x="545" y="917" type="line"/>
      <point x="545" y="-213" type="line"/>
      <point x="-10" y="-213" type="line"/>
    </contour>
  </outline>
</glyph>
<glyph name="lessequal" format="1">
  <advance width="398"/>
  <unicode hex="2264"/>
  <outline>
    <contour>
      <point x="351" y="94" type="line"/>
      <point x="351" y="206" type="line"/>
      <point x="166" y="314" type="line"/>
      <point x="350" y="417" type="line"/>
      <point x="350" y="529" type="line"/>
      <point x="32" y="341" type="line"/>
      <point x="32" y="277" type="line"/>
    </contour>
    <contour>
      <point x="31" y="0" type="line"/>
      <point x="351" y="0" type="line"/>
      <point x="351" y="88" type="line"/>
      <point x="31" y="88" type="line"/>
    </contour>
    <contour>
      <point x="-10" y="917" type="line"/>
      <point x="407" y="917" type="line"/>
      <point x="407" y="-213" type="line"/>
      <point x="-10" y="-213" type="line"/>
    </contour>
  </outline>
</glyph>
<glyph name="uni24CA" format="1">
  <advance width="596"/>
  <unicode hex="24CA"/>
  <outline>
    <contour>
      <point x="298" y="-7" type="curve" smooth="yes"/>
      <point x="446" y="-7"/>
      <point x="566" y="111"/>
      <point x="566" y="261" type="curve" smooth="yes"/>
      <point x="566" y="409"/>
      <point x="449" y="529"/>
      <point x="299" y="529" type="curve" smooth="yes"/>
      <point x="148" y="529"/>
      <point x="30" y="409"/>
      <point x="30" y="260" type="curve" smooth="yes"/>
      <point x="30" y="110"/>
      <point x="150" y="-7"/>
    </contour>
    <contour>
      <point x="298" y="58" type="curve" smooth="yes"/>
      <point x="175" y="58"/>
      <point x="100" y="149"/>
      <point x="100" y="260" type="curve" smooth="yes"/>
      <point x="100" y="370"/>
      <point x="174" y="463"/>
      <point x="299" y="463" type="curve" smooth="yes"/>
      <point x="424" y="463"/>
      <point x="496" y="370"/>
      <point x="496" y="261" type="curve" smooth="yes"/>
      <point x="496" y="150"/>
      <point x="416" y="58"/>
    </contour>
    <contour>
      <point x="151" y="337" type="line"/>
      <point x="175" y="337" type="line"/>
      <point x="175" y="221" type="line" smooth="yes"/>
      <point x="175" y="161"/>
      <point x="209" y="105"/>
      <point x="298" y="105" type="curve" smooth="yes"/>
      <point x="391" y="105"/>
      <point x="424" y="166"/>
      <point x="424" y="226" type="curve" smooth="yes"/>
      <point x="424" y="337" type="line"/>
      <point x="449" y="337" type="line"/>
      <point x="449" y="390" type="line"/>
      <point x="328" y="390" type="line"/>
      <point x="328" y="337" type="line"/>
      <point x="360" y="337" type="line"/>
      <point x="360" y="226" type="line" smooth="yes"/>
      <point x="360" y="187"/>
      <point x="344" y="160"/>
      <point x="301" y="160" type="curve" smooth="yes"/>
      <point x="258" y="160"/>
      <point x="244" y="188"/>
      <point x="244" y="223" type="curve" smooth="yes"/>
      <point x="244" y="337" type="line"/>
      <point x="275" y="337" type="line"/>
      <point x="275" y="390" type="line"/>
      <point x="151" y="390" type="line"/>
    </contour>
    <contour>
      <point x="-10" y="917" type="line"/>
      <point x="606" y="917" type="line"/>
      <point x="606" y="-213" type="line"/>
      <point x="-10" y="-213" type="line"/>
    </contour>
  </outline>
</glyph>
<glyph name="uni25C4" format="1">
  <advance width="906"/>
  <unicode hex="25C4"/>
  <outline>
    <contour>
      <point x="814" y="-53" type="line"/>
      <point x="814" y="522" type="line"/>
      <point x="40" y="233" type="line"/>
    </contour>
    <contour>
      <point x="-10" y="917" type="line"/>
      <point x="917" y="917" type="line"/>
      <point x="917" y="-213" type="line"/>
      <point x="-10" y="-213" type="line"/>
    </contour>
  </outline>
</glyph>
<glyph name="lozenge" format="1">
  <advance width="578"/>
  <unicode hex="25CA"/>
  <outline>
    <contour>
      <point x="290" y="-11" type="line"/>
      <point x="557" y="320" type="line"/>
      <point x="290" y="660" type="line"/>
      <point x="22" y="320" type="line"/>
    </contour>
    <contour>
      <point x="290" y="136" type="line"/>
      <point x="146" y="320" type="line"/>
      <point x="290" y="501" type="line"/>
      <point x="433" y="320" type="line"/>
    </contour>
    <contour>
      <point x="-10" y="917" type="line"/>
      <point x="589" y="917" type="line"/>
      <point x="589" y="-213" type="line"/>
      <point x="-10" y="-213" type="line"/>
    </contour>
  </outline>
</glyph>
<glyph name="uni261E" format="1">
  <advance width="928"/>
  <unicode hex="261E"/>
  <outline>
    <contour>
      <point x="83" y="42" type="line"/>
      <point x="237" y="42" type="line"/>
      <point x="241" y="92" type="line"/>
      <point x="378" y="39"/>
      <point x="427" y="36"/>
      <point x="466" y="36" type="curve" smooth="yes"/>
      <point x="511" y="36"/>
      <point x="580" y="46"/>
      <point x="580" y="46" type="curve"/>
      <point x="592" y="44"/>
      <point x="616" y="44"/>
      <point x="636" y="44" type="curve" smooth="yes"/>
      <point x="674" y="44"/>
      <point x="705" y="51"/>
      <point x="705" y="90" type="curve" smooth="yes"/>
      <point x="705" y="102"/>
      <point x="698" y="113"/>
      <point x="690" y="121" type="curve"/>
      <point x="708" y="135"/>
      <point x="712" y="148"/>
      <point x="712" y="161" type="curve" smooth="yes"/>
      <point x="712" y="172"/>
      <point x="708" y="182"/>
      <point x="701" y="189" type="curve"/>
      <point x="717" y="203"/>
      <point x="722" y="217"/>
      <point x="722" y="229" type="curve" smooth="yes"/>
      <point x="722" y="236"/>
      <point x="720" y="243"/>
      <point x="716" y="250" type="curve"/>
      <point x="818" y="251" type="line" smooth="yes"/>
      <point x="863" y="251"/>
      <point x="877" y="278"/>
      <point x="877" y="302" type="curve" smooth="yes"/>
      <point x="877" y="330"/>
      <point x="860" y="354"/>
      <point x="818" y="354" type="curve" smooth="yes"/>
      <point x="670" y="354" type="line"/>
      <point x="672" y="360"/>
      <point x="673" y="366"/>
      <point x="673" y="373" type="curve" smooth="yes"/>
      <point x="673" y="392"/>
      <point x="659" y="419"/>
      <point x="659" y="419" type="curve"/>
      <point x="609" y="439"/>
      <point x="560" y="447"/>
      <point x="513" y="447" type="curve" smooth="yes"/>
      <point x="406" y="447"/>
      <point x="313" y="397"/>
      <point x="241" y="351" type="curve"/>
      <point x="237" y="394" type="line"/>
      <point x="83" y="394" type="line"/>
    </contour>
    <contour>
      <point x="524" y="415" type="curve" smooth="yes"/>
      <point x="563" y="415"/>
      <point x="602" y="407"/>
      <point x="639" y="386" type="curve"/>
      <point x="639" y="386"/>
      <point x="640" y="378"/>
      <point x="640" y="373" type="curve" smooth="yes"/>
      <point x="640" y="368"/>
      <point x="637" y="364"/>
      <point x="621" y="364" type="curve"/>
      <point x="577" y="376"/>
      <point x="547" y="379"/>
      <point x="527" y="379" type="curve" smooth="yes"/>
      <point x="496" y="379"/>
      <point x="486" y="371"/>
      <point x="479" y="367" type="curve"/>
      <point x="458" y="319"/>
      <point x="451" y="297"/>
      <point x="416" y="262" type="curve"/>
      <point x="416" y="247"/>
      <point x="421" y="240"/>
      <point x="431" y="231" type="curve"/>
      <point x="455" y="253"/>
      <point x="487" y="286"/>
      <point x="503" y="318" type="curve"/>
      <point x="821" y="318" type="line" smooth="yes"/>
      <point x="837" y="318"/>
      <point x="844" y="310"/>
      <point x="844" y="302" type="curve" smooth="yes"/>
      <point x="844" y="295"/>
      <point x="839" y="287"/>
      <point x="821" y="287" type="curve" smooth="yes"/>
      <point x="523" y="285" type="line"/>
      <point x="503" y="265"/>
      <point x="496" y="246"/>
      <point x="496" y="230" type="curve" smooth="yes"/>
      <point x="496" y="214"/>
      <point x="501" y="204"/>
      <point x="506" y="196" type="curve"/>
      <point x="506" y="196"/>
      <point x="496" y="175"/>
      <point x="496" y="160" type="curve" smooth="yes"/>
      <point x="496" y="148"/>
      <point x="502" y="132"/>
      <point x="513" y="119" type="curve"/>
      <point x="513" y="119"/>
      <point x="509" y="104"/>
      <point x="509" y="96" type="curve" smooth="yes"/>
      <point x="509" y="90"/>
      <point x="510" y="81"/>
      <point x="513" y="74" type="curve"/>
      <point x="513" y="74"/>
      <point x="512" y="72"/>
      <point x="466" y="72" type="curve" smooth="yes"/>
      <point x="431" y="72"/>
      <point x="379" y="77"/>
      <point x="243" y="131" type="curve"/>
      <point x="244" y="160"/>
      <point x="245" y="190"/>
      <point x="245" y="220" type="curve" smooth="yes"/>
      <point x="245" y="250"/>
      <point x="244" y="280"/>
      <point x="243" y="310" type="curve"/>
      <point x="326" y="358"/>
      <point x="426" y="415"/>
    </contour>
    <contour>
      <point x="684" y="248" type="line"/>
      <point x="684" y="248"/>
      <point x="690" y="235"/>
      <point x="690" y="229" type="curve" smooth="yes"/>
      <point x="690" y="227"/>
      <point x="688" y="211"/>
      <point x="684" y="211" type="curve" smooth="yes"/>
      <point x="532" y="207" type="line"/>
      <point x="532" y="214"/>
      <point x="532" y="242"/>
      <point x="536" y="248" type="curve"/>
    </contour>
    <contour>
      <point x="674" y="180" type="line"/>
      <point x="674" y="180"/>
      <point x="681" y="167"/>
      <point x="681" y="161" type="curve" smooth="yes"/>
      <point x="681" y="156"/>
      <point x="679" y="146"/>
      <point x="674" y="143" type="curve"/>
      <point x="532" y="139" type="line"/>
      <point x="532" y="156" type="line" smooth="yes"/>
      <point x="532" y="163"/>
      <point x="533" y="179"/>
      <point x="534" y="180" type="curve"/>
    </contour>
    <contour>
      <point x="666" y="112" type="line"/>
      <point x="666" y="112"/>
      <point x="672" y="95"/>
      <point x="672" y="92" type="curve" smooth="yes"/>
      <point x="672" y="85"/>
      <point x="657" y="77"/>
      <point x="636" y="77" type="curve" smooth="yes"/>
      <point x="626" y="77"/>
      <point x="615" y="77"/>
      <point x="605" y="78" type="curve"/>
      <point x="593" y="78"/>
      <point x="581" y="79"/>
      <point x="572" y="79" type="curve" smooth="yes"/>
      <point x="549" y="79" type="line"/>
      <point x="547" y="83"/>
      <point x="547" y="91"/>
      <point x="547" y="95" type="curve" smooth="yes"/>
      <point x="547" y="97"/>
      <point x="547" y="110"/>
      <point x="548" y="112" type="curve"/>
    </contour>
    <contour>
      <point x="-10" y="917" type="line"/>
      <point x="938" y="917" type="line"/>
      <point x="938" y="-213" type="line"/>
      <point x="-10" y="-213" type="line"/>
    </contour>
  </outline>
</glyph>
<glyph name="uni2713" format="1">
  <advance width="709"/>
  <unicode hex="2713"/>
  <outline>
    <contour>
      <point x="210" y="354" type="line"/>
      <point x="101" y="250" type="line"/>
      <point x="286" y="111" type="line"/>
      <point x="608" y="528" type="line"/>
      <point x="482" y="606" type="line"/>
      <point x="284" y="217" type="line"/>
    </contour>
    <contour>
      <point x="-10" y="917" type="line"/>
      <point x="719" y="917" type="line"/>
      <point x="719" y="-213" type="line"/>
      <point x="-10" y="-213" type="line"/>
    </contour>
  </outline>
</glyph>
<glyph name="fl" format="1">
  <advance width="598"/>
  <unicode hex="FB02"/>
  <outline>
    <contour>
      <point x="331" y="0" type="line"/>
      <point x="331" y="98" type="line"/>
      <point x="391" y="98" type="line"/>
      <point x="391" y="570" type="line"/>
      <point x="368" y="591"/>
      <point x="341" y="602"/>
      <point x="308" y="602" type="curve" smooth="yes"/>
      <point x="247" y="602"/>
      <point x="217" y="565"/>
      <point x="217" y="519" type="curve" smooth="yes"/>
      <point x="217" y="451" type="line"/>
      <point x="308" y="451" type="line"/>
      <point x="308" y="353" type="line"/>
      <point x="217" y="353" type="line"/>
      <point x="217" y="98" type="line"/>
      <point x="292" y="98" type="line"/>
      <point x="292" y="0" type="line"/>
      <point x="28" y="0" type="line"/>
      <point x="28" y="98" type="line"/>
      <point x="88" y="98" type="line"/>
      <point x="88" y="353" type="line"/>
      <point x="33" y="353" type="line"/>
      <point x="33" y="451" type="line"/>
      <point x="88" y="451" type="line"/>
      <point x="88" y="513" type="line" smooth="yes"/>
      <point x="88" y="619"/>
      <point x="159" y="698"/>
      <point x="276" y="698" type="curve" smooth="yes"/>
      <point x="317" y="698"/>
      <point x="357" y="688"/>
      <point x="391" y="662" type="curve"/>
      <point x="391" y="688" type="line"/>
      <point x="520" y="688" type="line"/>
      <point x="520" y="98" type="line"/>
      <point x="580" y="98" type="line"/>
      <point x="580" y="0" type="line"/>
    </contour>
    <contour>
      <point x="-10" y="-213" type="line"/>
      <point x="608" y="-213" type="line"/>
      <point x="608" y="917" type="line"/>
      <point x="-10" y="917" type="line"/>
    </contour>
  </outline>
</glyph>
<glyph name="f_f_i" format="1">
  <advance width="899"/>
  <unicode hex="FB03"/>
  <outline>
    <contour>
      <point x="390" y="353" type="line"/>
      <point x="217" y="353" type="line"/>
      <point x="217" y="98" type="line"/>
      <point x="292" y="98" type="line"/>
      <point x="292" y="0" type="line"/>
      <point x="28" y="0" type="line"/>
      <point x="28" y="98" type="line"/>
      <point x="88" y="98" type="line"/>
      <point x="88" y="353" type="line"/>
      <point x="33" y="353" type="line"/>
      <point x="33" y="451" type="line"/>
      <point x="88" y="451" type="line"/>
      <point x="88" y="503" type="line" smooth="yes"/>
      <point x="88" y="609"/>
      <point x="164" y="688"/>
      <point x="288" y="688" type="curve" smooth="yes"/>
      <point x="347" y="688"/>
      <point x="401" y="670"/>
      <point x="441" y="640" type="curve"/>
      <point x="478" y="675"/>
      <point x="535" y="698"/>
      <point x="611" y="698" type="curve" smooth="yes"/>
      <point x="662" y="698"/>
      <point x="728" y="688"/>
      <point x="787" y="657" type="curve"/>
      <point x="807" y="535" type="line"/>
      <point x="707" y="524" type="line"/>
      <point x="688" y="588" type="line"/>
      <point x="679" y="591"/>
      <point x="650" y="601"/>
      <point x="611" y="601" type="curve" smooth="yes"/>
      <point x="533" y="601"/>
      <point x="519" y="561"/>
      <point x="519" y="522" type="curve" smooth="yes"/>
      <point x="519" y="451" type="line"/>
      <point x="821" y="451" type="line"/>
      <point x="821" y="98" type="line"/>
      <point x="881" y="98" type="line"/>
      <point x="881" y="0" type="line"/>
      <point x="632" y="0" type="line"/>
      <point x="632" y="98" type="line"/>
      <point x="692" y="98" type="line"/>
      <point x="692" y="353" type="line"/>
      <point x="519" y="353" type="line"/>
      <point x="519" y="98" type="line"/>
      <point x="594" y="98" type="line"/>
      <point x="594" y="0" type="line"/>
      <point x="330" y="0" type="line"/>
      <point x="330" y="98" type="line"/>
      <point x="390" y="98" type="line"/>
    </contour>
    <contour>
      <point x="217" y="451" type="line"/>
      <point x="390" y="451" type="line"/>
      <point x="390" y="520" type="line" smooth="yes"/>
      <point x="390" y="535"/>
      <point x="392" y="550"/>
      <point x="396" y="564" type="curve"/>
      <point x="369" y="582"/>
      <point x="339" y="592"/>
      <point x="309" y="592" type="curve" smooth="yes"/>
      <point x="254" y="592"/>
      <point x="217" y="566"/>
      <point x="217" y="509" type="curve" smooth="yes"/>
    </contour>
    <contour>
      <point x="-10" y="-213" type="line"/>
      <point x="908" y="-213" type="line"/>
      <point x="908" y="917" type="line"/>
      <point x="-10" y="917" type="line"/>
    </contour>
  </outline>
</glyph>
